G75*
G70*
%OFA0B0*%
%FSLAX24Y24*%
%IPPOS*%
%LPD*%
%AMOC8*
5,1,8,0,0,1.08239X$1,22.5*
%
%ADD10C,0.1182*%
%ADD11C,0.0640*%
%ADD12OC8,0.0760*%
%ADD13C,0.0820*%
%ADD14C,0.0730*%
%ADD15R,0.0730X0.0730*%
%ADD16R,0.0640X0.0640*%
D10*
X002060Y001896D03*
X022560Y001896D03*
X022560Y024396D03*
X002060Y024396D03*
D11*
X009920Y022040D02*
X010480Y022040D01*
X010480Y021040D02*
X009920Y021040D01*
X009920Y020040D02*
X010480Y020040D01*
X010480Y019040D02*
X009920Y019040D01*
X009920Y018040D02*
X010480Y018040D01*
X010480Y017040D02*
X009920Y017040D01*
X009920Y016040D02*
X010480Y016040D01*
X010480Y015040D02*
X009920Y015040D01*
X009920Y014040D02*
X010480Y014040D01*
X010480Y013040D02*
X009920Y013040D01*
X009920Y012040D02*
X010480Y012040D01*
X010480Y011040D02*
X009920Y011040D01*
X009920Y010040D02*
X010480Y010040D01*
X010480Y009040D02*
X009920Y009040D01*
X012920Y009040D02*
X013480Y009040D01*
X013480Y010040D02*
X012920Y010040D01*
X012920Y011040D02*
X013480Y011040D01*
X013480Y012040D02*
X012920Y012040D01*
X012920Y013040D02*
X013480Y013040D01*
X013480Y014040D02*
X012920Y014040D01*
X012920Y015040D02*
X013480Y015040D01*
X013480Y016040D02*
X012920Y016040D01*
X012920Y017040D02*
X013480Y017040D01*
X013480Y018040D02*
X012920Y018040D01*
X012920Y019040D02*
X013480Y019040D01*
X013480Y020040D02*
X012920Y020040D01*
X012920Y021040D02*
X013480Y021040D01*
X013480Y022040D02*
X012920Y022040D01*
D12*
X015607Y015533D03*
X015607Y014533D03*
X015607Y013533D03*
X015607Y012533D03*
X018607Y012533D03*
X018607Y013533D03*
X018607Y014533D03*
X018607Y015533D03*
D13*
X020635Y014895D03*
X020635Y013895D03*
X020244Y011533D03*
X021244Y011533D03*
X021056Y017757D03*
X019893Y017767D03*
X018650Y017768D03*
X016351Y019199D03*
X016351Y020199D03*
X018650Y021768D03*
X019893Y021767D03*
X021056Y021757D03*
X016290Y022978D03*
X015290Y022978D03*
X006762Y022012D03*
X006762Y021012D03*
X006762Y020012D03*
X006762Y019012D03*
X006762Y018012D03*
X006762Y017012D03*
X007229Y009574D03*
X006229Y009574D03*
X006200Y006624D03*
X007200Y006624D03*
X009678Y007099D03*
X009706Y005946D03*
X009706Y004797D03*
X009678Y003504D03*
X009666Y002314D03*
X007313Y003737D03*
X006313Y003737D03*
X013678Y003504D03*
X013666Y002314D03*
X013706Y004797D03*
X013706Y005946D03*
X013678Y007099D03*
D14*
X007700Y012540D03*
X007700Y014040D03*
X007700Y015040D03*
X005700Y015040D03*
X005700Y014040D03*
X005700Y012540D03*
X012841Y023652D03*
X010911Y024102D03*
D15*
X009911Y024102D03*
X012841Y024652D03*
D16*
X018412Y009108D03*
X018412Y008108D03*
X018412Y007108D03*
X018412Y006108D03*
X018412Y005108D03*
X018412Y004108D03*
X018412Y003108D03*
X021412Y003108D03*
X021412Y004108D03*
X021412Y005108D03*
X021412Y006108D03*
X021412Y007108D03*
X021412Y008108D03*
X021412Y009108D03*
M02*
