G75*
G70*
%OFA0B0*%
%FSLAX24Y24*%
%IPPOS*%
%LPD*%
%AMOC8*
5,1,8,0,0,1.08239X$1,22.5*
%
%ADD10C,0.0560*%
%ADD11OC8,0.0680*%
%ADD12C,0.0740*%
%ADD13C,0.0650*%
%ADD14R,0.0650X0.0650*%
%ADD15R,0.0560X0.0560*%
%ADD16C,0.0100*%
%ADD17C,0.0160*%
%ADD18C,0.0080*%
%ADD19C,0.0400*%
D10*
X009920Y009040D02*
X010480Y009040D01*
X010480Y010040D02*
X009920Y010040D01*
X009920Y011040D02*
X010480Y011040D01*
X010480Y012040D02*
X009920Y012040D01*
X009920Y013040D02*
X010480Y013040D01*
X010480Y014040D02*
X009920Y014040D01*
X009920Y015040D02*
X010480Y015040D01*
X010480Y016040D02*
X009920Y016040D01*
X009920Y017040D02*
X010480Y017040D01*
X010480Y018040D02*
X009920Y018040D01*
X009920Y019040D02*
X010480Y019040D01*
X010480Y020040D02*
X009920Y020040D01*
X009920Y021040D02*
X010480Y021040D01*
X010480Y022040D02*
X009920Y022040D01*
X012920Y022040D02*
X013480Y022040D01*
X013480Y021040D02*
X012920Y021040D01*
X012920Y020040D02*
X013480Y020040D01*
X013480Y019040D02*
X012920Y019040D01*
X012920Y018040D02*
X013480Y018040D01*
X013480Y017040D02*
X012920Y017040D01*
X012920Y016040D02*
X013480Y016040D01*
X013480Y015040D02*
X012920Y015040D01*
X012920Y014040D02*
X013480Y014040D01*
X013480Y013040D02*
X012920Y013040D01*
X012920Y012040D02*
X013480Y012040D01*
X013480Y011040D02*
X012920Y011040D01*
X012920Y010040D02*
X013480Y010040D01*
X013480Y009040D02*
X012920Y009040D01*
D11*
X015607Y012533D03*
X015607Y013533D03*
X015607Y014533D03*
X015607Y015533D03*
X018607Y015533D03*
X018607Y014533D03*
X018607Y013533D03*
X018607Y012533D03*
D12*
X020244Y011533D03*
X021244Y011533D03*
X020635Y013895D03*
X020635Y014895D03*
X021056Y017757D03*
X019893Y017767D03*
X018650Y017768D03*
X016351Y019199D03*
X016351Y020199D03*
X018650Y021768D03*
X019893Y021767D03*
X021056Y021757D03*
X016290Y022978D03*
X015290Y022978D03*
X006762Y022012D03*
X006762Y021012D03*
X006762Y020012D03*
X006762Y019012D03*
X006762Y018012D03*
X006762Y017012D03*
X007229Y009574D03*
X006229Y009574D03*
X006200Y006624D03*
X007200Y006624D03*
X009678Y007099D03*
X009706Y005946D03*
X009706Y004797D03*
X009678Y003504D03*
X009666Y002314D03*
X007313Y003737D03*
X006313Y003737D03*
X013678Y003504D03*
X013666Y002314D03*
X013706Y004797D03*
X013706Y005946D03*
X013678Y007099D03*
D13*
X007700Y012540D03*
X007700Y014040D03*
X007700Y015040D03*
X005700Y015040D03*
X005700Y014040D03*
X005700Y012540D03*
X012841Y023652D03*
X010911Y024102D03*
D14*
X009911Y024102D03*
X012841Y024652D03*
D15*
X018412Y009108D03*
X018412Y008108D03*
X018412Y007108D03*
X018412Y006108D03*
X018412Y005108D03*
X018412Y004108D03*
X018412Y003108D03*
X021412Y003108D03*
X021412Y004108D03*
X021412Y005108D03*
X021412Y006108D03*
X021412Y007108D03*
X021412Y008108D03*
X021412Y009108D03*
D16*
X006200Y006624D02*
X006060Y006396D01*
X006560Y005896D01*
X009560Y005896D01*
X009706Y005946D01*
X009560Y004896D02*
X009706Y004797D01*
X009560Y004896D02*
X007560Y004896D01*
X006560Y003896D01*
X006313Y003737D01*
X007313Y003737D02*
X007560Y003896D01*
X008560Y002896D01*
X013060Y002896D01*
X013060Y008896D01*
X013200Y009040D01*
X014060Y011396D02*
X016560Y011396D01*
X018560Y013396D01*
X018607Y013533D01*
X018560Y014396D02*
X018607Y014533D01*
X018560Y014396D02*
X016060Y011896D01*
X014560Y011896D01*
X013560Y012896D01*
X013200Y013040D01*
X013560Y013896D02*
X013200Y014040D01*
X013560Y013896D02*
X015060Y013896D01*
X015060Y016396D01*
X017560Y016396D01*
X018560Y015396D01*
X018607Y015533D01*
X021056Y017757D02*
X021060Y017896D01*
X020060Y018896D01*
X016560Y018896D01*
X016351Y019199D01*
X016351Y020199D02*
X016560Y020396D01*
X018060Y021896D01*
X018560Y021896D01*
X018650Y021768D01*
X019560Y021896D02*
X019893Y021767D01*
X019560Y021896D02*
X017060Y024396D01*
X013060Y024396D01*
X012841Y024652D01*
X015060Y022896D02*
X015290Y022978D01*
X015060Y022896D02*
X015060Y016396D01*
X013200Y016040D02*
X013060Y015896D01*
X012060Y014896D01*
X010560Y014896D01*
X010200Y015040D01*
X009560Y013396D02*
X006560Y013396D01*
X005560Y012396D01*
X005700Y012540D01*
X006060Y013396D02*
X005560Y013896D01*
X005700Y014040D01*
X006060Y013396D02*
X006560Y013396D01*
X009560Y013396D02*
X010060Y012896D01*
X010200Y013040D01*
X010200Y010040D02*
X010060Y009896D01*
X009560Y009396D01*
X007560Y009396D01*
X007229Y009574D01*
X007060Y006896D02*
X007200Y006624D01*
X007060Y006896D02*
X008060Y006896D01*
X010060Y008896D01*
X010200Y009040D01*
X013200Y012040D02*
X013560Y011896D01*
X014060Y011396D01*
X010060Y019896D02*
X010200Y020040D01*
X010060Y019896D02*
X009060Y020896D01*
X007060Y020896D01*
X006762Y021012D01*
X007060Y021896D02*
X006762Y022012D01*
X007060Y021896D02*
X008060Y021896D01*
X010060Y023896D01*
X009911Y024102D01*
X021056Y021757D02*
X021060Y021396D01*
D17*
X013678Y003504D02*
X013678Y002314D01*
X013666Y002314D01*
D18*
X010560Y001396D02*
X020560Y001396D01*
X022060Y002896D01*
X022060Y011396D01*
X021560Y011396D01*
X021244Y011533D01*
X020244Y011533D02*
X020060Y011396D01*
X019060Y010396D01*
X014060Y010396D01*
X013560Y009896D01*
X013200Y010040D01*
X013560Y010896D02*
X013200Y011040D01*
X013560Y010896D02*
X017060Y010896D01*
X018560Y012396D01*
X018607Y012533D01*
X018560Y012396D02*
X019060Y012396D01*
X020560Y013896D01*
X020635Y013895D01*
X020560Y009896D02*
X016060Y009896D01*
X013560Y007396D01*
X013678Y007099D01*
X009666Y002314D02*
X009560Y002396D01*
X010560Y001396D01*
X019060Y006396D02*
X021560Y003896D01*
X021412Y004108D01*
X021560Y008896D02*
X021412Y009108D01*
X021560Y008896D02*
X020560Y009896D01*
D19*
X019060Y006396D03*
M02*
