%
M48
M72
T01C0.0200
T02C0.0276
T03C0.0320
T04C0.0354
T05C0.0400
T06C0.1102
%
T01
X19060Y6396
T02
X7700Y12540
X7700Y14040
X7700Y15040
X5700Y15040
X5700Y14040
X5700Y12540
X12841Y23652
X12841Y24652
X10911Y24102
X9911Y24102
T03
X10200Y22040
X10200Y21040
X10200Y20040
X10200Y19040
X10200Y18040
X10200Y17040
X10200Y16040
X10200Y15040
X10200Y14040
X10200Y13040
X10200Y12040
X10200Y11040
X10200Y10040
X10200Y9040
X13200Y9040
X13200Y10040
X13200Y11040
X13200Y12040
X13200Y13040
X13200Y14040
X13200Y15040
X13200Y16040
X13200Y17040
X13200Y18040
X13200Y19040
X13200Y20040
X13200Y21040
X13200Y22040
X15290Y22978
X16290Y22978
X16351Y20199
X16351Y19199
X15607Y15533
X15607Y14533
X15607Y13533
X15607Y12533
X18607Y12533
X18607Y13533
X18607Y14533
X18607Y15533
X20635Y14895
X20635Y13895
X20244Y11533
X21244Y11533
X21412Y9108
X21412Y8108
X21412Y7108
X21412Y6108
X21412Y5108
X21412Y4108
X21412Y3108
X18412Y3108
X18412Y4108
X18412Y5108
X18412Y6108
X18412Y7108
X18412Y8108
X18412Y9108
X7229Y9574
X6229Y9574
X6200Y6624
X7200Y6624
X7313Y3737
X6313Y3737
T04
X9678Y3504
X9666Y2314
X9706Y4797
X9706Y5946
X9678Y7099
X13678Y7099
X13706Y5946
X13706Y4797
X13678Y3504
X13666Y2314
X18650Y17768
X19893Y17767
X21056Y17757
X21056Y21757
X19893Y21767
X18650Y21768
T05
X6762Y22012
X6762Y21012
X6762Y20012
X6762Y19012
X6762Y18012
X6762Y17012
T06
X2060Y1896
X22560Y1896
X22560Y24396
X2060Y24396
M30
