G75*
G70*
%OFA0B0*%
%FSLAX24Y24*%
%IPPOS*%
%LPD*%
%AMOC8*
5,1,8,0,0,1.08239X$1,22.5*
%
%ADD10C,0.0040*%
%ADD11C,0.0030*%
%ADD12C,0.0060*%
%ADD13C,0.0080*%
%ADD14C,0.0100*%
%ADD15C,0.0010*%
%ADD16C,0.0050*%
%ADD17C,0.0059*%
D10*
X002091Y003390D02*
X002178Y003390D01*
X002265Y003477D01*
X002265Y003910D01*
X002004Y003910D01*
X001918Y003824D01*
X001918Y003650D01*
X002004Y003563D01*
X002265Y003563D01*
X002433Y003563D02*
X002433Y003910D01*
X002433Y003737D02*
X002607Y003910D01*
X002694Y003910D01*
X002950Y003910D02*
X003123Y003910D01*
X003210Y003824D01*
X003210Y003563D01*
X002950Y003563D01*
X002863Y003650D01*
X002950Y003737D01*
X003210Y003737D01*
X003379Y003910D02*
X003465Y003910D01*
X003552Y003824D01*
X003639Y003910D01*
X003726Y003824D01*
X003726Y003563D01*
X003894Y003563D02*
X003894Y003910D01*
X003981Y003910D01*
X004068Y003824D01*
X004154Y003910D01*
X004241Y003824D01*
X004241Y003563D01*
X004410Y003563D02*
X004583Y003563D01*
X004497Y003563D02*
X004497Y003910D01*
X004410Y003910D01*
X004497Y004084D02*
X004497Y004171D01*
X004754Y003910D02*
X005014Y003910D01*
X005101Y003824D01*
X005101Y003563D01*
X005269Y003650D02*
X005269Y003824D01*
X005356Y003910D01*
X005616Y003910D01*
X005616Y003477D01*
X005529Y003390D01*
X005443Y003390D01*
X005356Y003563D02*
X005616Y003563D01*
X005356Y003563D02*
X005269Y003650D01*
X004754Y003563D02*
X004754Y003910D01*
X004068Y003824D02*
X004068Y003563D01*
X003552Y003563D02*
X003552Y003824D01*
X003379Y003910D02*
X003379Y003563D01*
X001749Y003650D02*
X001749Y003824D01*
X001662Y003910D01*
X001489Y003910D01*
X001402Y003824D01*
X001402Y003650D01*
X001489Y003563D01*
X001662Y003563D01*
X001749Y003650D01*
X001233Y003910D02*
X001146Y003910D01*
X000972Y003737D01*
X000972Y003910D02*
X000972Y003563D01*
X000717Y003737D02*
X000457Y003737D01*
X000457Y003563D02*
X000457Y004084D01*
X000717Y004084D01*
X000804Y003997D01*
X000804Y003824D01*
X000717Y003737D01*
X003354Y006416D02*
X003701Y006416D01*
X003869Y006416D02*
X003869Y006763D01*
X003869Y006589D02*
X004043Y006763D01*
X004129Y006763D01*
X004299Y006763D02*
X004299Y006416D01*
X004299Y006589D02*
X004472Y006763D01*
X004559Y006763D01*
X004729Y006676D02*
X004729Y006502D01*
X004815Y006416D01*
X004989Y006416D01*
X005076Y006502D01*
X005076Y006676D01*
X004989Y006763D01*
X004815Y006763D01*
X004729Y006676D01*
X005244Y006763D02*
X005244Y006416D01*
X005244Y006589D02*
X005418Y006763D01*
X005504Y006763D01*
X003701Y006936D02*
X003354Y006936D01*
X003354Y006416D01*
X003354Y006676D02*
X003527Y006676D01*
X003572Y009386D02*
X003486Y009473D01*
X003486Y009820D01*
X003572Y009733D02*
X003399Y009733D01*
X003229Y009733D02*
X003143Y009733D01*
X002969Y009559D01*
X002801Y009559D02*
X002540Y009559D01*
X002454Y009473D01*
X002540Y009386D01*
X002801Y009386D01*
X002801Y009646D01*
X002714Y009733D01*
X002540Y009733D01*
X002285Y009646D02*
X002285Y009559D01*
X001938Y009559D01*
X001938Y009473D02*
X001938Y009646D01*
X002025Y009733D01*
X002198Y009733D01*
X002285Y009646D01*
X002198Y009386D02*
X002025Y009386D01*
X001938Y009473D01*
X001769Y009386D02*
X001769Y009906D01*
X001769Y009646D02*
X001422Y009646D01*
X001422Y009386D02*
X001422Y009906D01*
X002969Y009733D02*
X002969Y009386D01*
X003743Y009386D02*
X004003Y009386D01*
X004090Y009473D01*
X004090Y009646D01*
X004003Y009733D01*
X003743Y009733D01*
X003743Y009906D02*
X003743Y009386D01*
X004258Y009473D02*
X004258Y009646D01*
X004345Y009733D01*
X004519Y009733D01*
X004605Y009646D01*
X004605Y009559D01*
X004258Y009559D01*
X004258Y009473D02*
X004345Y009386D01*
X004519Y009386D01*
X004774Y009473D02*
X004861Y009559D01*
X005121Y009559D01*
X005121Y009646D02*
X005121Y009386D01*
X004861Y009386D01*
X004774Y009473D01*
X004861Y009733D02*
X005034Y009733D01*
X005121Y009646D01*
X005290Y009733D02*
X005463Y009733D01*
X005376Y009820D02*
X005376Y009473D01*
X005463Y009386D01*
X011580Y016863D02*
X011426Y017017D01*
X011580Y017170D01*
X011886Y017170D01*
X011656Y017170D02*
X011656Y016863D01*
X011580Y016863D02*
X011886Y016863D01*
X011886Y017477D02*
X011426Y017477D01*
X011426Y017324D02*
X011426Y017630D01*
X011426Y017784D02*
X011580Y017937D01*
X011426Y018091D01*
X011886Y018091D01*
X011810Y018244D02*
X011656Y018244D01*
X011580Y018321D01*
X011580Y018474D01*
X011656Y018551D01*
X011733Y018551D01*
X011733Y018244D01*
X011810Y018244D02*
X011886Y018321D01*
X011886Y018474D01*
X011810Y018705D02*
X011656Y018705D01*
X011580Y018781D01*
X011580Y019011D01*
X011963Y019011D01*
X012040Y018935D01*
X012040Y018858D01*
X011886Y018781D02*
X011886Y019011D01*
X011810Y019165D02*
X011733Y019242D01*
X011733Y019472D01*
X011656Y019472D02*
X011886Y019472D01*
X011886Y019242D01*
X011810Y019165D01*
X011580Y019242D02*
X011580Y019395D01*
X011656Y019472D01*
X011503Y019625D02*
X011426Y019702D01*
X011426Y019855D01*
X011503Y019932D01*
X011580Y019932D01*
X011656Y019855D01*
X011733Y019932D01*
X011810Y019932D01*
X011886Y019855D01*
X011886Y019702D01*
X011810Y019625D01*
X011656Y019779D02*
X011656Y019855D01*
X011503Y020086D02*
X011426Y020162D01*
X011426Y020316D01*
X011503Y020393D01*
X011580Y020393D01*
X011886Y020086D01*
X011886Y020393D01*
X011810Y020546D02*
X011733Y020546D01*
X011656Y020623D01*
X011656Y020776D01*
X011733Y020853D01*
X011810Y020853D01*
X011886Y020776D01*
X011886Y020623D01*
X011810Y020546D01*
X011656Y020623D02*
X011580Y020546D01*
X011503Y020546D01*
X011426Y020623D01*
X011426Y020776D01*
X011503Y020853D01*
X011580Y020853D01*
X011656Y020776D01*
X011886Y018781D02*
X011810Y018705D01*
X011886Y017784D02*
X011426Y017784D01*
X004140Y017684D02*
X004140Y017837D01*
X004063Y017914D01*
X004140Y017684D02*
X004063Y017607D01*
X003757Y017607D01*
X003680Y017684D01*
X003680Y017837D01*
X003757Y017914D01*
X003757Y017454D02*
X003680Y017377D01*
X003680Y017223D01*
X003757Y017147D01*
X004063Y017147D01*
X004140Y017223D01*
X004140Y017377D01*
X004063Y017454D01*
X004140Y018528D02*
X003680Y018528D01*
X003680Y018758D01*
X003757Y018835D01*
X003833Y018835D01*
X003910Y018758D01*
X003910Y018528D01*
X003910Y018758D02*
X003987Y018835D01*
X004063Y018835D01*
X004140Y018758D01*
X004140Y018528D01*
X003757Y018988D02*
X003680Y018988D01*
X003757Y018988D02*
X003910Y019142D01*
X004140Y019142D01*
X003910Y019142D02*
X003757Y019295D01*
X003680Y019295D01*
X003910Y019449D02*
X003910Y019755D01*
X003833Y019909D02*
X003910Y019986D01*
X003910Y020139D01*
X003987Y020216D01*
X004063Y020216D01*
X004140Y020139D01*
X004140Y019986D01*
X004063Y019909D01*
X003833Y019909D02*
X003757Y019909D01*
X003680Y019986D01*
X003680Y020139D01*
X003757Y020216D01*
X003833Y020369D02*
X003680Y020523D01*
X003833Y020676D01*
X004140Y020676D01*
X003910Y020676D02*
X003910Y020369D01*
X003833Y020369D02*
X004140Y020369D01*
X004063Y021290D02*
X004140Y021367D01*
X004140Y021520D01*
X004063Y021597D01*
X003987Y021597D01*
X003910Y021520D01*
X003910Y021443D01*
X003910Y021520D02*
X003833Y021597D01*
X003757Y021597D01*
X003680Y021520D01*
X003680Y021367D01*
X003757Y021290D01*
X004063Y021750D02*
X004063Y021827D01*
X004140Y021827D01*
X004140Y021750D01*
X004063Y021750D01*
X004063Y021980D02*
X003757Y021980D01*
X003680Y022057D01*
X003680Y022211D01*
X003757Y022287D01*
X004063Y021980D01*
X004140Y022057D01*
X004140Y022211D01*
X004063Y022287D01*
X003757Y022287D01*
X023079Y016771D02*
X023079Y016541D01*
X023540Y016541D01*
X023386Y016541D02*
X023386Y016771D01*
X023310Y016848D01*
X023156Y016848D01*
X023079Y016771D01*
X023233Y017001D02*
X023540Y017001D01*
X023386Y017001D02*
X023233Y017155D01*
X023233Y017232D01*
X023310Y017385D02*
X023463Y017385D01*
X023540Y017462D01*
X023540Y017615D01*
X023463Y017692D01*
X023310Y017692D01*
X023233Y017615D01*
X023233Y017462D01*
X023310Y017385D01*
X023310Y017845D02*
X023463Y017845D01*
X023540Y017922D01*
X023540Y018152D01*
X023616Y018152D02*
X023693Y018076D01*
X023693Y017999D01*
X023616Y018152D02*
X023233Y018152D01*
X023233Y017922D01*
X023310Y017845D01*
X023386Y018306D02*
X023233Y018459D01*
X023233Y018536D01*
X023233Y018306D02*
X023540Y018306D01*
X023463Y018689D02*
X023386Y018766D01*
X023386Y018996D01*
X023310Y018996D02*
X023540Y018996D01*
X023540Y018766D01*
X023463Y018689D01*
X023233Y018766D02*
X023233Y018920D01*
X023310Y018996D01*
X023233Y019150D02*
X023233Y019226D01*
X023310Y019303D01*
X023233Y019380D01*
X023310Y019457D01*
X023540Y019457D01*
X023540Y019610D02*
X023233Y019610D01*
X023233Y019687D01*
X023310Y019764D01*
X023233Y019840D01*
X023310Y019917D01*
X023540Y019917D01*
X023540Y019764D02*
X023310Y019764D01*
X023310Y020071D02*
X023233Y020147D01*
X023233Y020301D01*
X023310Y020377D01*
X023386Y020377D01*
X023386Y020071D01*
X023310Y020071D02*
X023463Y020071D01*
X023540Y020147D01*
X023540Y020301D01*
X023540Y020531D02*
X023233Y020531D01*
X023386Y020531D02*
X023233Y020684D01*
X023233Y020761D01*
X023310Y019303D02*
X023540Y019303D01*
X023540Y019150D02*
X023233Y019150D01*
X023310Y015927D02*
X023463Y015927D01*
X023540Y015851D01*
X023540Y015697D01*
X023463Y015620D01*
X023463Y015467D02*
X023540Y015390D01*
X023540Y015237D01*
X023463Y015160D01*
X023386Y015160D01*
X023310Y015237D01*
X023310Y015390D01*
X023386Y015467D01*
X023463Y015467D01*
X023310Y015390D02*
X023233Y015467D01*
X023156Y015467D01*
X023079Y015390D01*
X023079Y015237D01*
X023156Y015160D01*
X023233Y015160D01*
X023310Y015237D01*
X023079Y015007D02*
X023540Y014700D01*
X023463Y014546D02*
X023310Y014546D01*
X023233Y014470D01*
X023233Y014393D01*
X023310Y014239D01*
X023079Y014239D01*
X023079Y014546D01*
X023463Y014546D02*
X023540Y014470D01*
X023540Y014316D01*
X023463Y014239D01*
X023310Y014086D02*
X023310Y013779D01*
X023079Y014009D01*
X023540Y014009D01*
X023540Y013165D02*
X023079Y013165D01*
X023233Y013165D02*
X023233Y012935D01*
X023310Y012858D01*
X023463Y012858D01*
X023540Y012935D01*
X023540Y013165D01*
X023540Y012705D02*
X023310Y012705D01*
X023233Y012628D01*
X023233Y012398D01*
X023540Y012398D01*
X023540Y012244D02*
X023540Y012014D01*
X023463Y011938D01*
X023386Y012014D01*
X023386Y012244D01*
X023310Y012244D02*
X023540Y012244D01*
X023310Y012244D02*
X023233Y012168D01*
X023233Y012014D01*
X023310Y011324D02*
X023310Y011017D01*
X023079Y011247D01*
X023540Y011247D01*
X023463Y010863D02*
X023540Y010787D01*
X023540Y010633D01*
X023463Y010557D01*
X023386Y010557D01*
X023310Y010633D01*
X023310Y010787D01*
X023386Y010863D01*
X023463Y010863D01*
X023310Y010787D02*
X023233Y010863D01*
X023156Y010863D01*
X023079Y010787D01*
X023079Y010633D01*
X023156Y010557D01*
X023233Y010557D01*
X023310Y010633D01*
X023079Y010403D02*
X023540Y010096D01*
X023540Y009866D02*
X023079Y009866D01*
X023310Y009636D01*
X023310Y009943D01*
X023310Y009482D02*
X023310Y009175D01*
X023079Y009406D01*
X023540Y009406D01*
X023540Y008562D02*
X023540Y008331D01*
X023463Y008255D01*
X023233Y008255D01*
X023310Y008101D02*
X023540Y008101D01*
X023310Y008101D02*
X023233Y008025D01*
X023233Y007794D01*
X023540Y007794D01*
X023540Y007641D02*
X023540Y007488D01*
X023540Y007564D02*
X023233Y007564D01*
X023233Y007488D01*
X023233Y007334D02*
X023233Y007181D01*
X023156Y007257D02*
X023463Y007257D01*
X023540Y007334D01*
X023540Y006874D02*
X023079Y006874D01*
X023079Y007027D02*
X023079Y006720D01*
X023233Y006567D02*
X023079Y006413D01*
X023233Y006260D01*
X023540Y006260D01*
X023310Y006260D02*
X023310Y006567D01*
X023233Y006567D02*
X023540Y006567D01*
X023079Y007564D02*
X023003Y007564D01*
X023693Y008408D02*
X023693Y008485D01*
X023616Y008562D01*
X023233Y008562D01*
X023310Y015620D02*
X023079Y015620D01*
X023079Y015927D01*
X023233Y015851D02*
X023310Y015927D01*
X023233Y015851D02*
X023233Y015774D01*
X023310Y015620D01*
D11*
X021906Y015656D02*
X021906Y015849D01*
X021858Y015897D01*
X021713Y015897D01*
X021713Y015607D01*
X021858Y015607D01*
X021906Y015656D01*
X021612Y015607D02*
X021418Y015607D01*
X021418Y015897D01*
X021612Y015897D01*
X021515Y015752D02*
X021418Y015752D01*
X021317Y015607D02*
X021124Y015607D01*
X021124Y015897D01*
X020728Y015849D02*
X020728Y015656D01*
X020679Y015607D01*
X020583Y015607D01*
X020534Y015656D01*
X020728Y015849D01*
X020679Y015897D01*
X020583Y015897D01*
X020534Y015849D01*
X020534Y015656D01*
X020138Y015607D02*
X020138Y015752D01*
X020090Y015801D01*
X019945Y015801D01*
X019945Y015607D01*
X019845Y015607D02*
X019749Y015607D01*
X019797Y015607D02*
X019797Y015801D01*
X019749Y015801D01*
X019797Y015897D02*
X019797Y015946D01*
X019647Y015849D02*
X019647Y015752D01*
X019599Y015704D01*
X019454Y015704D01*
X019454Y015607D02*
X019454Y015897D01*
X019599Y015897D01*
X019647Y015849D01*
X017474Y015616D02*
X017474Y015519D01*
X017426Y015471D01*
X017329Y015471D02*
X017280Y015568D01*
X017280Y015616D01*
X017329Y015665D01*
X017426Y015665D01*
X017474Y015616D01*
X017329Y015471D02*
X017184Y015471D01*
X017184Y015665D01*
X017232Y015370D02*
X017184Y015322D01*
X017184Y015225D01*
X017232Y015176D01*
X017280Y015176D01*
X017329Y015225D01*
X017329Y015322D01*
X017377Y015370D01*
X017426Y015370D01*
X017474Y015322D01*
X017474Y015225D01*
X017426Y015176D01*
X017377Y015176D01*
X017329Y015225D01*
X017329Y015322D02*
X017280Y015370D01*
X017232Y015370D01*
X017184Y015075D02*
X017474Y014882D01*
X017426Y014781D02*
X017474Y014732D01*
X017474Y014636D01*
X017426Y014587D01*
X017329Y014587D02*
X017280Y014684D01*
X017280Y014732D01*
X017329Y014781D01*
X017426Y014781D01*
X017329Y014587D02*
X017184Y014587D01*
X017184Y014781D01*
X017329Y014486D02*
X017329Y014293D01*
X017184Y014438D01*
X017474Y014438D01*
X017474Y013897D02*
X017474Y013752D01*
X017426Y013703D01*
X017280Y013703D01*
X017329Y013602D02*
X017474Y013602D01*
X017329Y013602D02*
X017280Y013554D01*
X017280Y013409D01*
X017474Y013409D01*
X017474Y013309D02*
X017474Y013212D01*
X017474Y013261D02*
X017280Y013261D01*
X017280Y013212D01*
X017280Y013113D02*
X017280Y013016D01*
X017232Y013064D02*
X017426Y013064D01*
X017474Y013113D01*
X017474Y012818D02*
X017184Y012818D01*
X017184Y012721D02*
X017184Y012915D01*
X017280Y012620D02*
X017184Y012523D01*
X017280Y012426D01*
X017474Y012426D01*
X017329Y012426D02*
X017329Y012620D01*
X017280Y012620D02*
X017474Y012620D01*
X017184Y013261D02*
X017135Y013261D01*
X017571Y013800D02*
X017571Y013848D01*
X017522Y013897D01*
X017280Y013897D01*
X019696Y010120D02*
X019841Y010120D01*
X019890Y010072D01*
X019890Y009975D01*
X019841Y009926D01*
X019696Y009926D01*
X019696Y009830D02*
X019696Y010120D01*
X019991Y010023D02*
X020039Y010023D01*
X020039Y009830D01*
X019991Y009830D02*
X020088Y009830D01*
X020187Y009830D02*
X020187Y010023D01*
X020332Y010023D01*
X020381Y009975D01*
X020381Y009830D01*
X020777Y009878D02*
X020825Y009830D01*
X020922Y009830D01*
X020970Y009878D01*
X020970Y009926D01*
X020922Y009975D01*
X020777Y009975D01*
X020777Y009878D01*
X020777Y009975D02*
X020873Y010072D01*
X020970Y010120D01*
X021366Y010120D02*
X021366Y009830D01*
X021559Y009830D01*
X021661Y009830D02*
X021854Y009830D01*
X021955Y009830D02*
X022100Y009830D01*
X022149Y009878D01*
X022149Y010072D01*
X022100Y010120D01*
X021955Y010120D01*
X021955Y009830D01*
X021757Y009975D02*
X021661Y009975D01*
X021661Y010120D02*
X021661Y009830D01*
X021661Y010120D02*
X021854Y010120D01*
X020039Y010168D02*
X020039Y010120D01*
X019996Y008153D02*
X019996Y007906D01*
X019811Y008091D01*
X020181Y008091D01*
X020120Y007785D02*
X020181Y007723D01*
X020181Y007600D01*
X020120Y007538D01*
X020058Y007538D01*
X019996Y007600D01*
X019996Y007723D01*
X020058Y007785D01*
X020120Y007785D01*
X019996Y007723D02*
X019935Y007785D01*
X019873Y007785D01*
X019811Y007723D01*
X019811Y007600D01*
X019873Y007538D01*
X019935Y007538D01*
X019996Y007600D01*
X019811Y007417D02*
X020181Y007170D01*
X020181Y006987D02*
X019811Y006987D01*
X019996Y006801D01*
X019996Y007048D01*
X019996Y006680D02*
X019996Y006433D01*
X019811Y006618D01*
X020181Y006618D01*
X020181Y005943D02*
X020181Y005758D01*
X020120Y005696D01*
X019935Y005696D01*
X019996Y005575D02*
X020181Y005575D01*
X019996Y005575D02*
X019935Y005513D01*
X019935Y005328D01*
X020181Y005328D01*
X020181Y005206D02*
X020181Y005083D01*
X020181Y005144D02*
X019935Y005144D01*
X019935Y005083D01*
X019935Y004961D02*
X019935Y004837D01*
X019873Y004899D02*
X020120Y004899D01*
X020181Y004961D01*
X020181Y004592D02*
X019811Y004592D01*
X019811Y004469D02*
X019811Y004716D01*
X019935Y004347D02*
X020181Y004347D01*
X019996Y004347D02*
X019996Y004101D01*
X019935Y004101D02*
X019811Y004224D01*
X019935Y004347D01*
X019935Y004101D02*
X020181Y004101D01*
X019811Y005144D02*
X019749Y005144D01*
X020305Y005820D02*
X020305Y005882D01*
X020243Y005943D01*
X019935Y005943D01*
X017587Y018156D02*
X017442Y018156D01*
X017442Y018447D01*
X017587Y018447D01*
X017635Y018398D01*
X017635Y018205D01*
X017587Y018156D01*
X017341Y018156D02*
X017147Y018156D01*
X017147Y018447D01*
X017341Y018447D01*
X017244Y018301D02*
X017147Y018301D01*
X017046Y018156D02*
X016853Y018156D01*
X016853Y018447D01*
X016457Y018398D02*
X016457Y018350D01*
X016408Y018301D01*
X016457Y018253D01*
X016457Y018205D01*
X016408Y018156D01*
X016312Y018156D01*
X016263Y018205D01*
X016162Y018156D02*
X015969Y018156D01*
X016065Y018156D02*
X016065Y018447D01*
X015969Y018350D01*
X015573Y018301D02*
X015573Y018156D01*
X015573Y018301D02*
X015524Y018350D01*
X015379Y018350D01*
X015379Y018156D01*
X015280Y018156D02*
X015183Y018156D01*
X015231Y018156D02*
X015231Y018350D01*
X015183Y018350D01*
X015231Y018447D02*
X015231Y018495D01*
X015082Y018398D02*
X015082Y018301D01*
X015033Y018253D01*
X014888Y018253D01*
X014888Y018156D02*
X014888Y018447D01*
X015033Y018447D01*
X015082Y018398D01*
X016263Y018398D02*
X016312Y018447D01*
X016408Y018447D01*
X016457Y018398D01*
X016408Y018301D02*
X016360Y018301D01*
X016316Y024500D02*
X016316Y024694D01*
X016412Y024694D02*
X016461Y024694D01*
X016412Y024694D02*
X016316Y024597D01*
X016214Y024597D02*
X016021Y024597D01*
X016021Y024645D02*
X016069Y024694D01*
X016166Y024694D01*
X016214Y024645D01*
X016214Y024597D01*
X016166Y024500D02*
X016069Y024500D01*
X016021Y024549D01*
X016021Y024645D01*
X015920Y024694D02*
X015920Y024549D01*
X015871Y024500D01*
X015823Y024549D01*
X015775Y024500D01*
X015726Y024549D01*
X015726Y024694D01*
X015625Y024645D02*
X015577Y024694D01*
X015480Y024694D01*
X015432Y024645D01*
X015432Y024549D01*
X015480Y024500D01*
X015577Y024500D01*
X015625Y024549D01*
X015625Y024645D01*
X015330Y024645D02*
X015282Y024597D01*
X015137Y024597D01*
X015137Y024500D02*
X015137Y024790D01*
X015282Y024790D01*
X015330Y024742D01*
X015330Y024645D01*
X015342Y025599D02*
X015281Y025661D01*
X015281Y025784D01*
X015342Y025846D01*
X015466Y025846D01*
X015528Y025784D01*
X015528Y025723D01*
X015281Y025723D01*
X015159Y025661D02*
X015159Y025908D01*
X015098Y025969D01*
X014912Y025969D01*
X014912Y025599D01*
X015098Y025599D01*
X015159Y025661D01*
X015342Y025599D02*
X015466Y025599D01*
X015649Y025599D02*
X015834Y025599D01*
X015896Y025661D01*
X015834Y025723D01*
X015711Y025723D01*
X015649Y025784D01*
X015711Y025846D01*
X015896Y025846D01*
X016017Y025846D02*
X016079Y025846D01*
X016079Y025599D01*
X016017Y025599D02*
X016141Y025599D01*
X016263Y025661D02*
X016325Y025599D01*
X016510Y025599D01*
X016510Y025537D02*
X016448Y025476D01*
X016386Y025476D01*
X016510Y025537D02*
X016510Y025846D01*
X016325Y025846D01*
X016263Y025784D01*
X016263Y025661D01*
X016079Y025969D02*
X016079Y026031D01*
X016631Y025846D02*
X016631Y025599D01*
X016631Y025846D02*
X016816Y025846D01*
X016878Y025784D01*
X016878Y025599D01*
X017368Y025969D02*
X017615Y025969D01*
X017491Y025969D02*
X017491Y025599D01*
X017736Y025661D02*
X017736Y025784D01*
X017798Y025846D01*
X017921Y025846D01*
X017983Y025784D01*
X017983Y025723D01*
X017736Y025723D01*
X017736Y025661D02*
X017798Y025599D01*
X017921Y025599D01*
X018104Y025661D02*
X018166Y025599D01*
X018351Y025599D01*
X018473Y025599D02*
X018473Y025969D01*
X018534Y025846D02*
X018658Y025846D01*
X018720Y025784D01*
X018720Y025599D01*
X018473Y025784D02*
X018534Y025846D01*
X018351Y025846D02*
X018166Y025846D01*
X018104Y025784D01*
X018104Y025661D01*
X019209Y025599D02*
X019333Y025599D01*
X019271Y025599D02*
X019271Y025969D01*
X019209Y025969D02*
X019333Y025969D01*
X019455Y025846D02*
X019455Y025599D01*
X019702Y025599D02*
X019702Y025784D01*
X019640Y025846D01*
X019455Y025846D01*
X019823Y025784D02*
X019885Y025846D01*
X020070Y025846D01*
X020191Y025846D02*
X020191Y025661D01*
X020253Y025599D01*
X020438Y025599D01*
X020438Y025846D01*
X020560Y025784D02*
X020621Y025846D01*
X020807Y025846D01*
X020928Y025846D02*
X021051Y025846D01*
X020990Y025908D02*
X020990Y025661D01*
X021051Y025599D01*
X021174Y025599D02*
X021174Y025846D01*
X021297Y025846D02*
X021359Y025846D01*
X021297Y025846D02*
X021174Y025723D01*
X021480Y025846D02*
X021542Y025846D01*
X021542Y025599D01*
X021480Y025599D02*
X021604Y025599D01*
X021726Y025661D02*
X021726Y025784D01*
X021788Y025846D01*
X021911Y025846D01*
X021973Y025784D01*
X021973Y025723D01*
X021726Y025723D01*
X021726Y025661D02*
X021788Y025599D01*
X021911Y025599D01*
X022094Y025599D02*
X022279Y025599D01*
X022341Y025661D01*
X022279Y025723D01*
X022156Y025723D01*
X022094Y025784D01*
X022156Y025846D01*
X022341Y025846D01*
X021542Y025969D02*
X021542Y026031D01*
X020807Y025661D02*
X020745Y025723D01*
X020621Y025723D01*
X020560Y025784D01*
X020560Y025599D02*
X020745Y025599D01*
X020807Y025661D01*
X020070Y025599D02*
X019885Y025599D01*
X019823Y025661D01*
X019823Y025784D01*
X020070Y025969D02*
X020070Y025599D01*
X013492Y025568D02*
X013299Y025568D01*
X013299Y025278D01*
X013198Y025278D02*
X013198Y025472D01*
X013299Y025423D02*
X013396Y025423D01*
X013198Y025278D02*
X013053Y025278D01*
X013004Y025326D01*
X013004Y025472D01*
X012903Y025520D02*
X012710Y025326D01*
X012758Y025278D01*
X012855Y025278D01*
X012903Y025326D01*
X012903Y025520D01*
X012855Y025568D01*
X012758Y025568D01*
X012710Y025520D01*
X012710Y025326D01*
X012609Y025278D02*
X012415Y025278D01*
X012512Y025278D02*
X012512Y025568D01*
X012415Y025472D01*
X011067Y025545D02*
X010873Y025545D01*
X010873Y025255D01*
X010772Y025255D02*
X010772Y025448D01*
X010873Y025400D02*
X010970Y025400D01*
X010772Y025255D02*
X010627Y025255D01*
X010579Y025303D01*
X010579Y025448D01*
X010477Y025255D02*
X010284Y025255D01*
X010381Y025255D02*
X010381Y025545D01*
X010284Y025448D01*
X010185Y025303D02*
X010185Y025255D01*
X010137Y025255D01*
X010137Y025303D01*
X010185Y025303D01*
X010035Y025303D02*
X009987Y025255D01*
X009890Y025255D01*
X009842Y025303D01*
X010035Y025496D01*
X010035Y025303D01*
X009842Y025303D02*
X009842Y025496D01*
X009890Y025545D01*
X009987Y025545D01*
X010035Y025496D01*
X007568Y025576D02*
X007321Y025576D01*
X007444Y025576D02*
X007444Y025946D01*
X007321Y025822D01*
X007199Y025761D02*
X007138Y025822D01*
X006952Y025822D01*
X006952Y025946D02*
X006952Y025576D01*
X007138Y025576D01*
X007199Y025637D01*
X007199Y025761D01*
X006831Y025761D02*
X006584Y025761D01*
X006463Y025576D02*
X006216Y025576D01*
X006093Y025576D02*
X006032Y025576D01*
X006032Y025637D01*
X006093Y025637D01*
X006093Y025576D01*
X005910Y025637D02*
X005849Y025576D01*
X005725Y025576D01*
X005663Y025637D01*
X005910Y025884D01*
X005910Y025637D01*
X005663Y025637D02*
X005663Y025884D01*
X005725Y025946D01*
X005849Y025946D01*
X005910Y025884D01*
X006216Y025822D02*
X006339Y025946D01*
X006339Y025576D01*
X005174Y025576D02*
X005174Y025761D01*
X005112Y025822D01*
X004927Y025822D01*
X004927Y025576D01*
X004805Y025637D02*
X004805Y025761D01*
X004744Y025822D01*
X004620Y025822D01*
X004558Y025761D01*
X004558Y025637D01*
X004620Y025576D01*
X004744Y025576D01*
X004805Y025637D01*
X004436Y025576D02*
X004313Y025576D01*
X004375Y025576D02*
X004375Y025822D01*
X004313Y025822D01*
X004191Y025822D02*
X004006Y025822D01*
X003945Y025761D01*
X004006Y025699D01*
X004130Y025699D01*
X004191Y025637D01*
X004130Y025576D01*
X003945Y025576D01*
X003823Y025822D02*
X003761Y025822D01*
X003638Y025699D01*
X003516Y025699D02*
X003269Y025699D01*
X003269Y025761D02*
X003331Y025822D01*
X003455Y025822D01*
X003516Y025761D01*
X003516Y025699D01*
X003455Y025576D02*
X003331Y025576D01*
X003269Y025637D01*
X003269Y025761D01*
X003148Y025699D02*
X003148Y025946D01*
X002901Y025946D02*
X002901Y025699D01*
X003025Y025576D01*
X003148Y025699D01*
X003638Y025576D02*
X003638Y025822D01*
X004375Y025946D02*
X004375Y026008D01*
X007650Y022338D02*
X007588Y022277D01*
X007588Y022030D01*
X007650Y021968D01*
X007773Y021968D01*
X007835Y022030D01*
X007835Y022153D01*
X007711Y022153D01*
X007835Y022277D02*
X007773Y022338D01*
X007650Y022338D01*
X007956Y022338D02*
X007956Y021968D01*
X007956Y022091D02*
X008141Y022091D01*
X008203Y022153D01*
X008203Y022277D01*
X008141Y022338D01*
X007956Y022338D01*
X008080Y022091D02*
X008203Y021968D01*
X008325Y021968D02*
X008325Y022338D01*
X008571Y021968D01*
X008571Y022338D01*
X007944Y021135D02*
X008005Y021074D01*
X008005Y020950D01*
X007944Y020888D01*
X007697Y020888D01*
X007635Y020950D01*
X007635Y021074D01*
X007697Y021135D01*
X007635Y020766D02*
X007635Y020643D01*
X007635Y020705D02*
X008005Y020705D01*
X008005Y020766D02*
X008005Y020643D01*
X007944Y020521D02*
X008005Y020460D01*
X008005Y020336D01*
X007944Y020275D01*
X008005Y020153D02*
X007759Y020153D01*
X007635Y020030D01*
X007759Y019906D01*
X008005Y019906D01*
X007944Y019785D02*
X008005Y019723D01*
X008005Y019538D01*
X007635Y019538D01*
X007635Y019723D01*
X007697Y019785D01*
X007759Y019785D01*
X007820Y019723D01*
X007820Y019538D01*
X007820Y019723D02*
X007882Y019785D01*
X007944Y019785D01*
X007820Y019906D02*
X007820Y020153D01*
X007759Y020275D02*
X007820Y020336D01*
X007820Y020460D01*
X007882Y020521D01*
X007944Y020521D01*
X007697Y020521D02*
X007635Y020460D01*
X007635Y020336D01*
X007697Y020275D01*
X007759Y020275D01*
X008067Y019417D02*
X008067Y019170D01*
X008005Y019048D02*
X008005Y018924D01*
X008005Y018986D02*
X007635Y018986D01*
X007635Y018924D02*
X007635Y019048D01*
X007697Y018803D02*
X007635Y018741D01*
X007635Y018556D01*
X008005Y018556D01*
X008005Y018741D01*
X007944Y018803D01*
X007697Y018803D01*
X007635Y018434D02*
X007635Y018188D01*
X007635Y018066D02*
X007635Y017819D01*
X008005Y017819D01*
X007820Y017819D02*
X007820Y017943D01*
X008005Y018311D02*
X007635Y018311D01*
X007564Y017176D02*
X007750Y017176D01*
X007811Y017114D01*
X007811Y017053D01*
X007750Y016991D01*
X007564Y016991D01*
X007564Y016806D02*
X007564Y017176D01*
X007750Y016991D02*
X007811Y016929D01*
X007811Y016867D01*
X007750Y016806D01*
X007564Y016806D01*
X007933Y016806D02*
X008180Y016806D01*
X008301Y016806D02*
X008301Y017176D01*
X008363Y016991D02*
X008548Y016806D01*
X008301Y016929D02*
X008548Y017176D01*
X007933Y017176D02*
X007933Y016806D01*
X006881Y012156D02*
X006881Y011866D01*
X006780Y011866D02*
X006780Y012156D01*
X006683Y012059D01*
X006586Y012156D01*
X006586Y011866D01*
X006485Y011914D02*
X006485Y011962D01*
X006437Y012011D01*
X006292Y012011D01*
X006292Y011914D01*
X006340Y011866D01*
X006437Y011866D01*
X006485Y011914D01*
X006388Y012107D02*
X006292Y012011D01*
X006388Y012107D02*
X006485Y012156D01*
X006190Y011866D02*
X005997Y011866D01*
X006094Y011866D02*
X006094Y012156D01*
X005997Y012059D01*
X006881Y012011D02*
X006929Y012059D01*
X007026Y012059D01*
X007074Y012011D01*
X007074Y011866D01*
X007176Y011866D02*
X007369Y012059D01*
X007176Y012059D01*
X007176Y011866D02*
X007369Y011866D01*
D12*
X005729Y009574D02*
X005731Y009637D01*
X005737Y009699D01*
X005747Y009761D01*
X005760Y009823D01*
X005778Y009883D01*
X005799Y009942D01*
X005824Y010000D01*
X005853Y010056D01*
X005885Y010110D01*
X005920Y010162D01*
X005958Y010211D01*
X006000Y010259D01*
X006044Y010303D01*
X006092Y010345D01*
X006141Y010383D01*
X006193Y010418D01*
X006247Y010450D01*
X006303Y010479D01*
X006361Y010504D01*
X006420Y010525D01*
X006480Y010543D01*
X006542Y010556D01*
X006604Y010566D01*
X006666Y010572D01*
X006729Y010574D01*
X006792Y010572D01*
X006854Y010566D01*
X006916Y010556D01*
X006978Y010543D01*
X007038Y010525D01*
X007097Y010504D01*
X007155Y010479D01*
X007211Y010450D01*
X007265Y010418D01*
X007317Y010383D01*
X007366Y010345D01*
X007414Y010303D01*
X007458Y010259D01*
X007500Y010211D01*
X007538Y010162D01*
X007573Y010110D01*
X007605Y010056D01*
X007634Y010000D01*
X007659Y009942D01*
X007680Y009883D01*
X007698Y009823D01*
X007711Y009761D01*
X007721Y009699D01*
X007727Y009637D01*
X007729Y009574D01*
X007727Y009511D01*
X007721Y009449D01*
X007711Y009387D01*
X007698Y009325D01*
X007680Y009265D01*
X007659Y009206D01*
X007634Y009148D01*
X007605Y009092D01*
X007573Y009038D01*
X007538Y008986D01*
X007500Y008937D01*
X007458Y008889D01*
X007414Y008845D01*
X007366Y008803D01*
X007317Y008765D01*
X007265Y008730D01*
X007211Y008698D01*
X007155Y008669D01*
X007097Y008644D01*
X007038Y008623D01*
X006978Y008605D01*
X006916Y008592D01*
X006854Y008582D01*
X006792Y008576D01*
X006729Y008574D01*
X006666Y008576D01*
X006604Y008582D01*
X006542Y008592D01*
X006480Y008605D01*
X006420Y008623D01*
X006361Y008644D01*
X006303Y008669D01*
X006247Y008698D01*
X006193Y008730D01*
X006141Y008765D01*
X006092Y008803D01*
X006044Y008845D01*
X006000Y008889D01*
X005958Y008937D01*
X005920Y008986D01*
X005885Y009038D01*
X005853Y009092D01*
X005824Y009148D01*
X005799Y009206D01*
X005778Y009265D01*
X005760Y009325D01*
X005747Y009387D01*
X005737Y009449D01*
X005731Y009511D01*
X005729Y009574D01*
X005700Y006624D02*
X005702Y006687D01*
X005708Y006749D01*
X005718Y006811D01*
X005731Y006873D01*
X005749Y006933D01*
X005770Y006992D01*
X005795Y007050D01*
X005824Y007106D01*
X005856Y007160D01*
X005891Y007212D01*
X005929Y007261D01*
X005971Y007309D01*
X006015Y007353D01*
X006063Y007395D01*
X006112Y007433D01*
X006164Y007468D01*
X006218Y007500D01*
X006274Y007529D01*
X006332Y007554D01*
X006391Y007575D01*
X006451Y007593D01*
X006513Y007606D01*
X006575Y007616D01*
X006637Y007622D01*
X006700Y007624D01*
X006763Y007622D01*
X006825Y007616D01*
X006887Y007606D01*
X006949Y007593D01*
X007009Y007575D01*
X007068Y007554D01*
X007126Y007529D01*
X007182Y007500D01*
X007236Y007468D01*
X007288Y007433D01*
X007337Y007395D01*
X007385Y007353D01*
X007429Y007309D01*
X007471Y007261D01*
X007509Y007212D01*
X007544Y007160D01*
X007576Y007106D01*
X007605Y007050D01*
X007630Y006992D01*
X007651Y006933D01*
X007669Y006873D01*
X007682Y006811D01*
X007692Y006749D01*
X007698Y006687D01*
X007700Y006624D01*
X007698Y006561D01*
X007692Y006499D01*
X007682Y006437D01*
X007669Y006375D01*
X007651Y006315D01*
X007630Y006256D01*
X007605Y006198D01*
X007576Y006142D01*
X007544Y006088D01*
X007509Y006036D01*
X007471Y005987D01*
X007429Y005939D01*
X007385Y005895D01*
X007337Y005853D01*
X007288Y005815D01*
X007236Y005780D01*
X007182Y005748D01*
X007126Y005719D01*
X007068Y005694D01*
X007009Y005673D01*
X006949Y005655D01*
X006887Y005642D01*
X006825Y005632D01*
X006763Y005626D01*
X006700Y005624D01*
X006637Y005626D01*
X006575Y005632D01*
X006513Y005642D01*
X006451Y005655D01*
X006391Y005673D01*
X006332Y005694D01*
X006274Y005719D01*
X006218Y005748D01*
X006164Y005780D01*
X006112Y005815D01*
X006063Y005853D01*
X006015Y005895D01*
X005971Y005939D01*
X005929Y005987D01*
X005891Y006036D01*
X005856Y006088D01*
X005824Y006142D01*
X005795Y006198D01*
X005770Y006256D01*
X005749Y006315D01*
X005731Y006375D01*
X005718Y006437D01*
X005708Y006499D01*
X005702Y006561D01*
X005700Y006624D01*
X005813Y003737D02*
X005815Y003800D01*
X005821Y003862D01*
X005831Y003924D01*
X005844Y003986D01*
X005862Y004046D01*
X005883Y004105D01*
X005908Y004163D01*
X005937Y004219D01*
X005969Y004273D01*
X006004Y004325D01*
X006042Y004374D01*
X006084Y004422D01*
X006128Y004466D01*
X006176Y004508D01*
X006225Y004546D01*
X006277Y004581D01*
X006331Y004613D01*
X006387Y004642D01*
X006445Y004667D01*
X006504Y004688D01*
X006564Y004706D01*
X006626Y004719D01*
X006688Y004729D01*
X006750Y004735D01*
X006813Y004737D01*
X006876Y004735D01*
X006938Y004729D01*
X007000Y004719D01*
X007062Y004706D01*
X007122Y004688D01*
X007181Y004667D01*
X007239Y004642D01*
X007295Y004613D01*
X007349Y004581D01*
X007401Y004546D01*
X007450Y004508D01*
X007498Y004466D01*
X007542Y004422D01*
X007584Y004374D01*
X007622Y004325D01*
X007657Y004273D01*
X007689Y004219D01*
X007718Y004163D01*
X007743Y004105D01*
X007764Y004046D01*
X007782Y003986D01*
X007795Y003924D01*
X007805Y003862D01*
X007811Y003800D01*
X007813Y003737D01*
X007811Y003674D01*
X007805Y003612D01*
X007795Y003550D01*
X007782Y003488D01*
X007764Y003428D01*
X007743Y003369D01*
X007718Y003311D01*
X007689Y003255D01*
X007657Y003201D01*
X007622Y003149D01*
X007584Y003100D01*
X007542Y003052D01*
X007498Y003008D01*
X007450Y002966D01*
X007401Y002928D01*
X007349Y002893D01*
X007295Y002861D01*
X007239Y002832D01*
X007181Y002807D01*
X007122Y002786D01*
X007062Y002768D01*
X007000Y002755D01*
X006938Y002745D01*
X006876Y002739D01*
X006813Y002737D01*
X006750Y002739D01*
X006688Y002745D01*
X006626Y002755D01*
X006564Y002768D01*
X006504Y002786D01*
X006445Y002807D01*
X006387Y002832D01*
X006331Y002861D01*
X006277Y002893D01*
X006225Y002928D01*
X006176Y002966D01*
X006128Y003008D01*
X006084Y003052D01*
X006042Y003100D01*
X006004Y003149D01*
X005969Y003201D01*
X005937Y003255D01*
X005908Y003311D01*
X005883Y003369D01*
X005862Y003428D01*
X005844Y003488D01*
X005831Y003550D01*
X005821Y003612D01*
X005815Y003674D01*
X005813Y003737D01*
X010600Y008240D02*
X012800Y008240D01*
X012800Y022840D01*
X011950Y022840D01*
X011948Y022810D01*
X011943Y022780D01*
X011934Y022751D01*
X011921Y022724D01*
X011906Y022698D01*
X011887Y022674D01*
X011866Y022653D01*
X011842Y022634D01*
X011816Y022619D01*
X011789Y022606D01*
X011760Y022597D01*
X011730Y022592D01*
X011700Y022590D01*
X011670Y022592D01*
X011640Y022597D01*
X011611Y022606D01*
X011584Y022619D01*
X011558Y022634D01*
X011534Y022653D01*
X011513Y022674D01*
X011494Y022698D01*
X011479Y022724D01*
X011466Y022751D01*
X011457Y022780D01*
X011452Y022810D01*
X011450Y022840D01*
X010600Y022840D01*
X010600Y008240D01*
X017912Y009608D02*
X017912Y002608D01*
X018912Y002608D01*
X018912Y009608D01*
X019512Y009608D01*
X019514Y009569D01*
X019520Y009530D01*
X019529Y009492D01*
X019542Y009455D01*
X019559Y009419D01*
X019579Y009386D01*
X019603Y009354D01*
X019629Y009325D01*
X019658Y009299D01*
X019690Y009275D01*
X019723Y009255D01*
X019759Y009238D01*
X019796Y009225D01*
X019834Y009216D01*
X019873Y009210D01*
X019912Y009208D01*
X019951Y009210D01*
X019990Y009216D01*
X020028Y009225D01*
X020065Y009238D01*
X020101Y009255D01*
X020134Y009275D01*
X020166Y009299D01*
X020195Y009325D01*
X020221Y009354D01*
X020245Y009386D01*
X020265Y009419D01*
X020282Y009455D01*
X020295Y009492D01*
X020304Y009530D01*
X020310Y009569D01*
X020312Y009608D01*
X020912Y009608D01*
X020912Y002608D01*
X018912Y002608D01*
X020912Y002608D02*
X021912Y002608D01*
X021912Y009608D01*
X020912Y009608D01*
X019744Y011533D02*
X019746Y011596D01*
X019752Y011658D01*
X019762Y011720D01*
X019775Y011782D01*
X019793Y011842D01*
X019814Y011901D01*
X019839Y011959D01*
X019868Y012015D01*
X019900Y012069D01*
X019935Y012121D01*
X019973Y012170D01*
X020015Y012218D01*
X020059Y012262D01*
X020107Y012304D01*
X020156Y012342D01*
X020208Y012377D01*
X020262Y012409D01*
X020318Y012438D01*
X020376Y012463D01*
X020435Y012484D01*
X020495Y012502D01*
X020557Y012515D01*
X020619Y012525D01*
X020681Y012531D01*
X020744Y012533D01*
X020807Y012531D01*
X020869Y012525D01*
X020931Y012515D01*
X020993Y012502D01*
X021053Y012484D01*
X021112Y012463D01*
X021170Y012438D01*
X021226Y012409D01*
X021280Y012377D01*
X021332Y012342D01*
X021381Y012304D01*
X021429Y012262D01*
X021473Y012218D01*
X021515Y012170D01*
X021553Y012121D01*
X021588Y012069D01*
X021620Y012015D01*
X021649Y011959D01*
X021674Y011901D01*
X021695Y011842D01*
X021713Y011782D01*
X021726Y011720D01*
X021736Y011658D01*
X021742Y011596D01*
X021744Y011533D01*
X021742Y011470D01*
X021736Y011408D01*
X021726Y011346D01*
X021713Y011284D01*
X021695Y011224D01*
X021674Y011165D01*
X021649Y011107D01*
X021620Y011051D01*
X021588Y010997D01*
X021553Y010945D01*
X021515Y010896D01*
X021473Y010848D01*
X021429Y010804D01*
X021381Y010762D01*
X021332Y010724D01*
X021280Y010689D01*
X021226Y010657D01*
X021170Y010628D01*
X021112Y010603D01*
X021053Y010582D01*
X020993Y010564D01*
X020931Y010551D01*
X020869Y010541D01*
X020807Y010535D01*
X020744Y010533D01*
X020681Y010535D01*
X020619Y010541D01*
X020557Y010551D01*
X020495Y010564D01*
X020435Y010582D01*
X020376Y010603D01*
X020318Y010628D01*
X020262Y010657D01*
X020208Y010689D01*
X020156Y010724D01*
X020107Y010762D01*
X020059Y010804D01*
X020015Y010848D01*
X019973Y010896D01*
X019935Y010945D01*
X019900Y010997D01*
X019868Y011051D01*
X019839Y011107D01*
X019814Y011165D01*
X019793Y011224D01*
X019775Y011284D01*
X019762Y011346D01*
X019752Y011408D01*
X019746Y011470D01*
X019744Y011533D01*
X018912Y009608D02*
X017912Y009608D01*
X019635Y014395D02*
X019637Y014458D01*
X019643Y014520D01*
X019653Y014582D01*
X019666Y014644D01*
X019684Y014704D01*
X019705Y014763D01*
X019730Y014821D01*
X019759Y014877D01*
X019791Y014931D01*
X019826Y014983D01*
X019864Y015032D01*
X019906Y015080D01*
X019950Y015124D01*
X019998Y015166D01*
X020047Y015204D01*
X020099Y015239D01*
X020153Y015271D01*
X020209Y015300D01*
X020267Y015325D01*
X020326Y015346D01*
X020386Y015364D01*
X020448Y015377D01*
X020510Y015387D01*
X020572Y015393D01*
X020635Y015395D01*
X020698Y015393D01*
X020760Y015387D01*
X020822Y015377D01*
X020884Y015364D01*
X020944Y015346D01*
X021003Y015325D01*
X021061Y015300D01*
X021117Y015271D01*
X021171Y015239D01*
X021223Y015204D01*
X021272Y015166D01*
X021320Y015124D01*
X021364Y015080D01*
X021406Y015032D01*
X021444Y014983D01*
X021479Y014931D01*
X021511Y014877D01*
X021540Y014821D01*
X021565Y014763D01*
X021586Y014704D01*
X021604Y014644D01*
X021617Y014582D01*
X021627Y014520D01*
X021633Y014458D01*
X021635Y014395D01*
X021633Y014332D01*
X021627Y014270D01*
X021617Y014208D01*
X021604Y014146D01*
X021586Y014086D01*
X021565Y014027D01*
X021540Y013969D01*
X021511Y013913D01*
X021479Y013859D01*
X021444Y013807D01*
X021406Y013758D01*
X021364Y013710D01*
X021320Y013666D01*
X021272Y013624D01*
X021223Y013586D01*
X021171Y013551D01*
X021117Y013519D01*
X021061Y013490D01*
X021003Y013465D01*
X020944Y013444D01*
X020884Y013426D01*
X020822Y013413D01*
X020760Y013403D01*
X020698Y013397D01*
X020635Y013395D01*
X020572Y013397D01*
X020510Y013403D01*
X020448Y013413D01*
X020386Y013426D01*
X020326Y013444D01*
X020267Y013465D01*
X020209Y013490D01*
X020153Y013519D01*
X020099Y013551D01*
X020047Y013586D01*
X019998Y013624D01*
X019950Y013666D01*
X019906Y013710D01*
X019864Y013758D01*
X019826Y013807D01*
X019791Y013859D01*
X019759Y013913D01*
X019730Y013969D01*
X019705Y014027D01*
X019684Y014086D01*
X019666Y014146D01*
X019653Y014208D01*
X019643Y014270D01*
X019637Y014332D01*
X019635Y014395D01*
X015351Y019699D02*
X015353Y019762D01*
X015359Y019824D01*
X015369Y019886D01*
X015382Y019948D01*
X015400Y020008D01*
X015421Y020067D01*
X015446Y020125D01*
X015475Y020181D01*
X015507Y020235D01*
X015542Y020287D01*
X015580Y020336D01*
X015622Y020384D01*
X015666Y020428D01*
X015714Y020470D01*
X015763Y020508D01*
X015815Y020543D01*
X015869Y020575D01*
X015925Y020604D01*
X015983Y020629D01*
X016042Y020650D01*
X016102Y020668D01*
X016164Y020681D01*
X016226Y020691D01*
X016288Y020697D01*
X016351Y020699D01*
X016414Y020697D01*
X016476Y020691D01*
X016538Y020681D01*
X016600Y020668D01*
X016660Y020650D01*
X016719Y020629D01*
X016777Y020604D01*
X016833Y020575D01*
X016887Y020543D01*
X016939Y020508D01*
X016988Y020470D01*
X017036Y020428D01*
X017080Y020384D01*
X017122Y020336D01*
X017160Y020287D01*
X017195Y020235D01*
X017227Y020181D01*
X017256Y020125D01*
X017281Y020067D01*
X017302Y020008D01*
X017320Y019948D01*
X017333Y019886D01*
X017343Y019824D01*
X017349Y019762D01*
X017351Y019699D01*
X017349Y019636D01*
X017343Y019574D01*
X017333Y019512D01*
X017320Y019450D01*
X017302Y019390D01*
X017281Y019331D01*
X017256Y019273D01*
X017227Y019217D01*
X017195Y019163D01*
X017160Y019111D01*
X017122Y019062D01*
X017080Y019014D01*
X017036Y018970D01*
X016988Y018928D01*
X016939Y018890D01*
X016887Y018855D01*
X016833Y018823D01*
X016777Y018794D01*
X016719Y018769D01*
X016660Y018748D01*
X016600Y018730D01*
X016538Y018717D01*
X016476Y018707D01*
X016414Y018701D01*
X016351Y018699D01*
X016288Y018701D01*
X016226Y018707D01*
X016164Y018717D01*
X016102Y018730D01*
X016042Y018748D01*
X015983Y018769D01*
X015925Y018794D01*
X015869Y018823D01*
X015815Y018855D01*
X015763Y018890D01*
X015714Y018928D01*
X015666Y018970D01*
X015622Y019014D01*
X015580Y019062D01*
X015542Y019111D01*
X015507Y019163D01*
X015475Y019217D01*
X015446Y019273D01*
X015421Y019331D01*
X015400Y019390D01*
X015382Y019450D01*
X015369Y019512D01*
X015359Y019574D01*
X015353Y019636D01*
X015351Y019699D01*
X014790Y022978D02*
X014792Y023041D01*
X014798Y023103D01*
X014808Y023165D01*
X014821Y023227D01*
X014839Y023287D01*
X014860Y023346D01*
X014885Y023404D01*
X014914Y023460D01*
X014946Y023514D01*
X014981Y023566D01*
X015019Y023615D01*
X015061Y023663D01*
X015105Y023707D01*
X015153Y023749D01*
X015202Y023787D01*
X015254Y023822D01*
X015308Y023854D01*
X015364Y023883D01*
X015422Y023908D01*
X015481Y023929D01*
X015541Y023947D01*
X015603Y023960D01*
X015665Y023970D01*
X015727Y023976D01*
X015790Y023978D01*
X015853Y023976D01*
X015915Y023970D01*
X015977Y023960D01*
X016039Y023947D01*
X016099Y023929D01*
X016158Y023908D01*
X016216Y023883D01*
X016272Y023854D01*
X016326Y023822D01*
X016378Y023787D01*
X016427Y023749D01*
X016475Y023707D01*
X016519Y023663D01*
X016561Y023615D01*
X016599Y023566D01*
X016634Y023514D01*
X016666Y023460D01*
X016695Y023404D01*
X016720Y023346D01*
X016741Y023287D01*
X016759Y023227D01*
X016772Y023165D01*
X016782Y023103D01*
X016788Y023041D01*
X016790Y022978D01*
X016788Y022915D01*
X016782Y022853D01*
X016772Y022791D01*
X016759Y022729D01*
X016741Y022669D01*
X016720Y022610D01*
X016695Y022552D01*
X016666Y022496D01*
X016634Y022442D01*
X016599Y022390D01*
X016561Y022341D01*
X016519Y022293D01*
X016475Y022249D01*
X016427Y022207D01*
X016378Y022169D01*
X016326Y022134D01*
X016272Y022102D01*
X016216Y022073D01*
X016158Y022048D01*
X016099Y022027D01*
X016039Y022009D01*
X015977Y021996D01*
X015915Y021986D01*
X015853Y021980D01*
X015790Y021978D01*
X015727Y021980D01*
X015665Y021986D01*
X015603Y021996D01*
X015541Y022009D01*
X015481Y022027D01*
X015422Y022048D01*
X015364Y022073D01*
X015308Y022102D01*
X015254Y022134D01*
X015202Y022169D01*
X015153Y022207D01*
X015105Y022249D01*
X015061Y022293D01*
X015019Y022341D01*
X014981Y022390D01*
X014946Y022442D01*
X014914Y022496D01*
X014885Y022552D01*
X014860Y022610D01*
X014839Y022669D01*
X014821Y022729D01*
X014808Y022791D01*
X014798Y022853D01*
X014792Y022915D01*
X014790Y022978D01*
D13*
X016790Y022228D02*
X016790Y023728D01*
X018177Y021008D02*
X018177Y018528D01*
X019122Y018528D01*
X019122Y021008D01*
X018177Y021008D01*
X019421Y021007D02*
X019421Y018527D01*
X020366Y018527D01*
X020366Y021007D01*
X019421Y021007D01*
X020584Y020997D02*
X021529Y020997D01*
X021529Y018517D01*
X020584Y018517D01*
X020584Y020997D01*
X017101Y018699D02*
X015601Y018699D01*
X016107Y016033D02*
X016507Y016033D01*
X016707Y016033D01*
X016507Y016033D02*
X018107Y016033D01*
X018107Y012033D01*
X016107Y012033D01*
X016107Y016033D01*
X019885Y015395D02*
X021385Y015395D01*
X021744Y012283D02*
X021744Y010783D01*
X012918Y007572D02*
X012918Y006627D01*
X010438Y006627D01*
X010438Y007572D01*
X012918Y007572D01*
X012946Y006419D02*
X010466Y006419D01*
X010466Y005474D01*
X012946Y005474D01*
X012946Y006419D01*
X012946Y005270D02*
X010466Y005270D01*
X010466Y004325D01*
X012946Y004325D01*
X012946Y005270D01*
X012918Y003976D02*
X010438Y003976D01*
X010438Y003031D01*
X012918Y003031D01*
X012918Y003976D01*
X012906Y002787D02*
X010426Y002787D01*
X010426Y001842D01*
X012906Y001842D01*
X012906Y002787D01*
X005813Y002987D02*
X005813Y004487D01*
X005700Y005874D02*
X005700Y007374D01*
X005729Y008824D02*
X005729Y010324D01*
X005350Y011640D02*
X008050Y011640D01*
X008109Y011642D01*
X008167Y011648D01*
X008226Y011657D01*
X008283Y011671D01*
X008339Y011688D01*
X008394Y011709D01*
X008448Y011733D01*
X008500Y011761D01*
X008550Y011792D01*
X008598Y011826D01*
X008643Y011863D01*
X008686Y011904D01*
X008727Y011947D01*
X008764Y011992D01*
X008798Y012040D01*
X008829Y012090D01*
X008857Y012142D01*
X008881Y012196D01*
X008902Y012251D01*
X008919Y012307D01*
X008933Y012364D01*
X008942Y012423D01*
X008948Y012481D01*
X008950Y012540D01*
X008948Y012599D01*
X008942Y012657D01*
X008933Y012716D01*
X008919Y012773D01*
X008902Y012829D01*
X008881Y012884D01*
X008857Y012938D01*
X008829Y012990D01*
X008798Y013040D01*
X008764Y013088D01*
X008727Y013133D01*
X008686Y013176D01*
X008643Y013217D01*
X008598Y013254D01*
X008550Y013288D01*
X008500Y013319D01*
X008448Y013347D01*
X008394Y013371D01*
X008339Y013392D01*
X008283Y013409D01*
X008226Y013423D01*
X008167Y013432D01*
X008109Y013438D01*
X008050Y013440D01*
X005350Y013440D01*
X005291Y013438D01*
X005233Y013432D01*
X005174Y013423D01*
X005117Y013409D01*
X005061Y013392D01*
X005006Y013371D01*
X004952Y013347D01*
X004900Y013319D01*
X004850Y013288D01*
X004802Y013254D01*
X004757Y013217D01*
X004714Y013176D01*
X004673Y013133D01*
X004636Y013088D01*
X004602Y013040D01*
X004571Y012990D01*
X004543Y012938D01*
X004519Y012884D01*
X004498Y012829D01*
X004481Y012773D01*
X004467Y012716D01*
X004458Y012657D01*
X004452Y012599D01*
X004450Y012540D01*
X004452Y012481D01*
X004458Y012423D01*
X004467Y012364D01*
X004481Y012307D01*
X004498Y012251D01*
X004519Y012196D01*
X004543Y012142D01*
X004571Y012090D01*
X004602Y012040D01*
X004636Y011992D01*
X004673Y011947D01*
X004714Y011904D01*
X004757Y011863D01*
X004802Y011826D01*
X004850Y011792D01*
X004900Y011761D01*
X004952Y011733D01*
X005006Y011709D01*
X005061Y011688D01*
X005117Y011671D01*
X005174Y011657D01*
X005233Y011648D01*
X005291Y011642D01*
X005350Y011640D01*
X005450Y014540D02*
X005950Y014540D01*
X007450Y014540D02*
X007950Y014540D01*
X007012Y016512D02*
X006512Y016512D01*
X006262Y016762D01*
X006262Y017262D01*
X006512Y017512D01*
X006262Y017762D01*
X006262Y018262D01*
X006512Y018512D01*
X006262Y018762D01*
X006262Y019262D01*
X006512Y019512D01*
X006262Y019762D01*
X006262Y020262D01*
X006512Y020512D01*
X006262Y020762D01*
X006262Y021262D01*
X006512Y021512D01*
X006262Y021762D01*
X006262Y022262D01*
X006512Y022512D01*
X007012Y022512D01*
X007262Y022262D01*
X007262Y021762D01*
X007012Y021512D01*
X007262Y021262D01*
X007262Y020762D01*
X007012Y020512D01*
X007262Y020262D01*
X007262Y019762D01*
X007012Y019512D01*
X007262Y019262D01*
X007262Y018762D01*
X007012Y018512D01*
X007262Y018262D01*
X007262Y017762D01*
X007012Y017512D01*
X007262Y017262D01*
X007262Y016762D01*
X007012Y016512D01*
X010711Y023552D02*
X011111Y023552D01*
X009427Y024102D02*
X009429Y024164D01*
X009435Y024227D01*
X009445Y024288D01*
X009459Y024349D01*
X009476Y024409D01*
X009497Y024468D01*
X009523Y024525D01*
X009551Y024580D01*
X009583Y024634D01*
X009619Y024685D01*
X009657Y024735D01*
X009699Y024781D01*
X009743Y024825D01*
X009791Y024866D01*
X009840Y024904D01*
X009892Y024938D01*
X009946Y024969D01*
X010002Y024997D01*
X010060Y025021D01*
X010119Y025042D01*
X010179Y025058D01*
X010240Y025071D01*
X010302Y025080D01*
X010364Y025085D01*
X010427Y025086D01*
X010489Y025083D01*
X010551Y025076D01*
X010613Y025065D01*
X010673Y025050D01*
X010733Y025032D01*
X010791Y025010D01*
X010848Y024984D01*
X010903Y024954D01*
X010956Y024921D01*
X011007Y024885D01*
X011055Y024846D01*
X011101Y024803D01*
X011144Y024758D01*
X011184Y024710D01*
X011221Y024660D01*
X011255Y024607D01*
X011286Y024553D01*
X011312Y024497D01*
X011336Y024439D01*
X011355Y024379D01*
X011371Y024319D01*
X011383Y024257D01*
X011391Y024196D01*
X011395Y024133D01*
X011395Y024071D01*
X011391Y024008D01*
X011383Y023947D01*
X011371Y023885D01*
X011355Y023825D01*
X011336Y023765D01*
X011312Y023707D01*
X011286Y023651D01*
X011255Y023597D01*
X011221Y023544D01*
X011184Y023494D01*
X011144Y023446D01*
X011101Y023401D01*
X011055Y023358D01*
X011007Y023319D01*
X010956Y023283D01*
X010903Y023250D01*
X010848Y023220D01*
X010791Y023194D01*
X010733Y023172D01*
X010673Y023154D01*
X010613Y023139D01*
X010551Y023128D01*
X010489Y023121D01*
X010427Y023118D01*
X010364Y023119D01*
X010302Y023124D01*
X010240Y023133D01*
X010179Y023146D01*
X010119Y023162D01*
X010060Y023183D01*
X010002Y023207D01*
X009946Y023235D01*
X009892Y023266D01*
X009840Y023300D01*
X009791Y023338D01*
X009743Y023379D01*
X009699Y023423D01*
X009657Y023469D01*
X009619Y023519D01*
X009583Y023570D01*
X009551Y023624D01*
X009523Y023679D01*
X009497Y023736D01*
X009476Y023795D01*
X009459Y023855D01*
X009445Y023916D01*
X009435Y023977D01*
X009429Y024040D01*
X009427Y024102D01*
X012291Y023852D02*
X012291Y023452D01*
X011857Y024152D02*
X011859Y024214D01*
X011865Y024277D01*
X011875Y024338D01*
X011889Y024399D01*
X011906Y024459D01*
X011927Y024518D01*
X011953Y024575D01*
X011981Y024630D01*
X012013Y024684D01*
X012049Y024735D01*
X012087Y024785D01*
X012129Y024831D01*
X012173Y024875D01*
X012221Y024916D01*
X012270Y024954D01*
X012322Y024988D01*
X012376Y025019D01*
X012432Y025047D01*
X012490Y025071D01*
X012549Y025092D01*
X012609Y025108D01*
X012670Y025121D01*
X012732Y025130D01*
X012794Y025135D01*
X012857Y025136D01*
X012919Y025133D01*
X012981Y025126D01*
X013043Y025115D01*
X013103Y025100D01*
X013163Y025082D01*
X013221Y025060D01*
X013278Y025034D01*
X013333Y025004D01*
X013386Y024971D01*
X013437Y024935D01*
X013485Y024896D01*
X013531Y024853D01*
X013574Y024808D01*
X013614Y024760D01*
X013651Y024710D01*
X013685Y024657D01*
X013716Y024603D01*
X013742Y024547D01*
X013766Y024489D01*
X013785Y024429D01*
X013801Y024369D01*
X013813Y024307D01*
X013821Y024246D01*
X013825Y024183D01*
X013825Y024121D01*
X013821Y024058D01*
X013813Y023997D01*
X013801Y023935D01*
X013785Y023875D01*
X013766Y023815D01*
X013742Y023757D01*
X013716Y023701D01*
X013685Y023647D01*
X013651Y023594D01*
X013614Y023544D01*
X013574Y023496D01*
X013531Y023451D01*
X013485Y023408D01*
X013437Y023369D01*
X013386Y023333D01*
X013333Y023300D01*
X013278Y023270D01*
X013221Y023244D01*
X013163Y023222D01*
X013103Y023204D01*
X013043Y023189D01*
X012981Y023178D01*
X012919Y023171D01*
X012857Y023168D01*
X012794Y023169D01*
X012732Y023174D01*
X012670Y023183D01*
X012609Y023196D01*
X012549Y023212D01*
X012490Y023233D01*
X012432Y023257D01*
X012376Y023285D01*
X012322Y023316D01*
X012270Y023350D01*
X012221Y023388D01*
X012173Y023429D01*
X012129Y023473D01*
X012087Y023519D01*
X012049Y023569D01*
X012013Y023620D01*
X011981Y023674D01*
X011953Y023729D01*
X011927Y023786D01*
X011906Y023845D01*
X011889Y023905D01*
X011875Y023966D01*
X011865Y024027D01*
X011859Y024090D01*
X011857Y024152D01*
D14*
X016324Y015533D02*
X016326Y015566D01*
X016332Y015599D01*
X016342Y015632D01*
X016355Y015662D01*
X016372Y015691D01*
X016393Y015718D01*
X016416Y015742D01*
X016442Y015763D01*
X016470Y015781D01*
X016501Y015795D01*
X016532Y015806D01*
X016565Y015813D01*
X016599Y015816D01*
X016632Y015815D01*
X016665Y015810D01*
X016698Y015801D01*
X016729Y015788D01*
X016758Y015772D01*
X016785Y015753D01*
X016810Y015730D01*
X016832Y015705D01*
X016851Y015677D01*
X016866Y015647D01*
X016878Y015616D01*
X016886Y015583D01*
X016890Y015550D01*
X016890Y015516D01*
X016886Y015483D01*
X016878Y015450D01*
X016866Y015419D01*
X016851Y015389D01*
X016832Y015361D01*
X016810Y015336D01*
X016785Y015313D01*
X016758Y015294D01*
X016729Y015278D01*
X016698Y015265D01*
X016665Y015256D01*
X016632Y015251D01*
X016599Y015250D01*
X016565Y015253D01*
X016532Y015260D01*
X016501Y015271D01*
X016470Y015285D01*
X016442Y015303D01*
X016416Y015324D01*
X016393Y015348D01*
X016372Y015375D01*
X016355Y015404D01*
X016342Y015434D01*
X016332Y015467D01*
X016326Y015500D01*
X016324Y015533D01*
D15*
X017131Y018667D02*
X017077Y018739D01*
X017078Y018738D02*
X017131Y018781D01*
X017182Y018826D01*
X017230Y018875D01*
X017275Y018926D01*
X017318Y018980D01*
X017357Y019036D01*
X017393Y019094D01*
X017426Y019154D01*
X017455Y019215D01*
X017480Y019279D01*
X017502Y019343D01*
X017521Y019409D01*
X017535Y019476D01*
X017546Y019543D01*
X017553Y019611D01*
X017556Y019679D01*
X017555Y019748D01*
X017550Y019816D01*
X017542Y019884D01*
X017529Y019951D01*
X017513Y020017D01*
X017493Y020082D01*
X017470Y020147D01*
X017443Y020209D01*
X017412Y020270D01*
X017378Y020329D01*
X017341Y020387D01*
X017300Y020442D01*
X017256Y020494D01*
X017210Y020544D01*
X017161Y020591D01*
X017109Y020636D01*
X017055Y020677D01*
X016998Y020716D01*
X016939Y020751D01*
X016879Y020782D01*
X016817Y020810D01*
X016753Y020835D01*
X016688Y020856D01*
X016622Y020873D01*
X016555Y020887D01*
X016487Y020896D01*
X016419Y020902D01*
X016351Y020904D01*
X016283Y020902D01*
X016215Y020896D01*
X016147Y020887D01*
X016080Y020873D01*
X016014Y020856D01*
X015949Y020835D01*
X015885Y020810D01*
X015823Y020782D01*
X015763Y020751D01*
X015704Y020716D01*
X015647Y020677D01*
X015593Y020636D01*
X015541Y020591D01*
X015492Y020544D01*
X015446Y020494D01*
X015402Y020442D01*
X015361Y020387D01*
X015324Y020329D01*
X015290Y020270D01*
X015259Y020209D01*
X015232Y020147D01*
X015209Y020082D01*
X015189Y020017D01*
X015173Y019951D01*
X015160Y019884D01*
X015152Y019816D01*
X015147Y019748D01*
X015146Y019679D01*
X015149Y019611D01*
X015156Y019543D01*
X015167Y019476D01*
X015181Y019409D01*
X015200Y019343D01*
X015222Y019279D01*
X015247Y019215D01*
X015276Y019154D01*
X015309Y019094D01*
X015345Y019036D01*
X015384Y018980D01*
X015427Y018926D01*
X015472Y018875D01*
X015520Y018826D01*
X015571Y018781D01*
X015624Y018738D01*
X015571Y018667D01*
X015570Y018666D01*
X015515Y018710D01*
X015462Y018758D01*
X015411Y018808D01*
X015364Y018861D01*
X015320Y018916D01*
X015278Y018974D01*
X015240Y019034D01*
X015205Y019095D01*
X015174Y019159D01*
X015146Y019224D01*
X015122Y019291D01*
X015101Y019359D01*
X015085Y019428D01*
X015072Y019498D01*
X015063Y019568D01*
X015057Y019639D01*
X015056Y019710D01*
X015059Y019781D01*
X015065Y019852D01*
X015075Y019922D01*
X015089Y019991D01*
X015107Y020060D01*
X015129Y020128D01*
X015154Y020194D01*
X015183Y020259D01*
X015216Y020322D01*
X015252Y020383D01*
X015291Y020442D01*
X015333Y020499D01*
X015378Y020554D01*
X015427Y020606D01*
X015478Y020655D01*
X015531Y020702D01*
X015588Y020745D01*
X015646Y020785D01*
X015707Y020822D01*
X015769Y020856D01*
X015833Y020886D01*
X015899Y020913D01*
X015966Y020936D01*
X016035Y020955D01*
X016104Y020970D01*
X016174Y020982D01*
X016245Y020990D01*
X016316Y020994D01*
X016386Y020994D01*
X016457Y020990D01*
X016528Y020982D01*
X016598Y020970D01*
X016667Y020955D01*
X016736Y020936D01*
X016803Y020913D01*
X016869Y020886D01*
X016933Y020856D01*
X016995Y020822D01*
X017056Y020785D01*
X017114Y020745D01*
X017171Y020702D01*
X017224Y020655D01*
X017275Y020606D01*
X017324Y020554D01*
X017369Y020499D01*
X017411Y020442D01*
X017450Y020383D01*
X017486Y020322D01*
X017519Y020259D01*
X017548Y020194D01*
X017573Y020128D01*
X017595Y020060D01*
X017613Y019991D01*
X017627Y019922D01*
X017637Y019852D01*
X017643Y019781D01*
X017646Y019710D01*
X017645Y019639D01*
X017639Y019568D01*
X017630Y019498D01*
X017617Y019428D01*
X017601Y019359D01*
X017580Y019291D01*
X017556Y019224D01*
X017528Y019159D01*
X017497Y019095D01*
X017462Y019034D01*
X017424Y018974D01*
X017382Y018916D01*
X017338Y018861D01*
X017291Y018808D01*
X017240Y018758D01*
X017187Y018710D01*
X017132Y018666D01*
X017127Y018673D01*
X017182Y018718D01*
X017235Y018765D01*
X017286Y018816D01*
X017333Y018869D01*
X017378Y018925D01*
X017419Y018983D01*
X017457Y019043D01*
X017492Y019105D01*
X017523Y019169D01*
X017550Y019235D01*
X017574Y019302D01*
X017594Y019371D01*
X017611Y019440D01*
X017623Y019510D01*
X017632Y019581D01*
X017636Y019652D01*
X017637Y019723D01*
X017633Y019794D01*
X017626Y019865D01*
X017615Y019936D01*
X017600Y020005D01*
X017581Y020074D01*
X017558Y020142D01*
X017532Y020208D01*
X017502Y020273D01*
X017468Y020335D01*
X017432Y020396D01*
X017391Y020455D01*
X017348Y020512D01*
X017301Y020566D01*
X017252Y020617D01*
X017199Y020665D01*
X017145Y020711D01*
X017087Y020753D01*
X017028Y020792D01*
X016966Y020828D01*
X016903Y020861D01*
X016838Y020889D01*
X016771Y020915D01*
X016703Y020936D01*
X016634Y020954D01*
X016564Y020967D01*
X016493Y020977D01*
X016422Y020983D01*
X016351Y020985D01*
X016280Y020983D01*
X016209Y020977D01*
X016138Y020967D01*
X016068Y020954D01*
X015999Y020936D01*
X015931Y020915D01*
X015864Y020889D01*
X015799Y020861D01*
X015736Y020828D01*
X015674Y020792D01*
X015615Y020753D01*
X015557Y020711D01*
X015503Y020665D01*
X015450Y020617D01*
X015401Y020566D01*
X015354Y020512D01*
X015311Y020455D01*
X015270Y020396D01*
X015234Y020335D01*
X015200Y020273D01*
X015170Y020208D01*
X015144Y020142D01*
X015121Y020074D01*
X015102Y020005D01*
X015087Y019936D01*
X015076Y019865D01*
X015069Y019794D01*
X015065Y019723D01*
X015066Y019652D01*
X015070Y019581D01*
X015079Y019510D01*
X015091Y019440D01*
X015108Y019371D01*
X015128Y019302D01*
X015152Y019235D01*
X015179Y019169D01*
X015210Y019105D01*
X015245Y019043D01*
X015283Y018983D01*
X015324Y018925D01*
X015369Y018869D01*
X015416Y018816D01*
X015467Y018765D01*
X015520Y018718D01*
X015575Y018673D01*
X015581Y018680D01*
X015526Y018725D01*
X015473Y018772D01*
X015423Y018822D01*
X015376Y018875D01*
X015332Y018930D01*
X015290Y018988D01*
X015253Y019047D01*
X015218Y019109D01*
X015187Y019173D01*
X015160Y019238D01*
X015136Y019305D01*
X015116Y019373D01*
X015100Y019442D01*
X015088Y019511D01*
X015079Y019582D01*
X015075Y019652D01*
X015074Y019723D01*
X015078Y019794D01*
X015085Y019864D01*
X015096Y019934D01*
X015111Y020003D01*
X015130Y020071D01*
X015152Y020139D01*
X015178Y020204D01*
X015208Y020269D01*
X015241Y020331D01*
X015278Y020391D01*
X015318Y020450D01*
X015361Y020506D01*
X015407Y020560D01*
X015457Y020610D01*
X015508Y020659D01*
X015563Y020704D01*
X015620Y020746D01*
X015679Y020785D01*
X015740Y020820D01*
X015803Y020853D01*
X015868Y020881D01*
X015934Y020906D01*
X016002Y020927D01*
X016070Y020945D01*
X016140Y020958D01*
X016210Y020968D01*
X016280Y020974D01*
X016351Y020976D01*
X016422Y020974D01*
X016492Y020968D01*
X016562Y020958D01*
X016632Y020945D01*
X016700Y020927D01*
X016768Y020906D01*
X016834Y020881D01*
X016899Y020853D01*
X016962Y020820D01*
X017023Y020785D01*
X017082Y020746D01*
X017139Y020704D01*
X017194Y020659D01*
X017245Y020610D01*
X017295Y020560D01*
X017341Y020506D01*
X017384Y020450D01*
X017424Y020391D01*
X017461Y020331D01*
X017494Y020269D01*
X017524Y020204D01*
X017550Y020139D01*
X017572Y020071D01*
X017591Y020003D01*
X017606Y019934D01*
X017617Y019864D01*
X017624Y019794D01*
X017628Y019723D01*
X017627Y019652D01*
X017623Y019582D01*
X017614Y019511D01*
X017602Y019442D01*
X017586Y019373D01*
X017566Y019305D01*
X017542Y019238D01*
X017515Y019173D01*
X017484Y019109D01*
X017449Y019047D01*
X017412Y018988D01*
X017370Y018930D01*
X017326Y018875D01*
X017279Y018822D01*
X017229Y018772D01*
X017176Y018725D01*
X017121Y018680D01*
X017116Y018688D01*
X017171Y018732D01*
X017224Y018780D01*
X017274Y018830D01*
X017322Y018883D01*
X017366Y018939D01*
X017407Y018997D01*
X017444Y019057D01*
X017479Y019119D01*
X017509Y019183D01*
X017536Y019249D01*
X017560Y019316D01*
X017579Y019384D01*
X017595Y019454D01*
X017607Y019524D01*
X017615Y019594D01*
X017619Y019665D01*
X017618Y019736D01*
X017614Y019807D01*
X017606Y019878D01*
X017594Y019948D01*
X017578Y020017D01*
X017559Y020085D01*
X017535Y020153D01*
X017508Y020218D01*
X017477Y020282D01*
X017443Y020344D01*
X017405Y020404D01*
X017363Y020462D01*
X017319Y020518D01*
X017272Y020571D01*
X017221Y020621D01*
X017168Y020668D01*
X017113Y020713D01*
X017055Y020754D01*
X016995Y020791D01*
X016932Y020826D01*
X016868Y020857D01*
X016803Y020884D01*
X016736Y020907D01*
X016667Y020927D01*
X016598Y020943D01*
X016528Y020955D01*
X016457Y020963D01*
X016387Y020967D01*
X016315Y020967D01*
X016245Y020963D01*
X016174Y020955D01*
X016104Y020943D01*
X016035Y020927D01*
X015966Y020907D01*
X015899Y020884D01*
X015834Y020857D01*
X015770Y020826D01*
X015707Y020791D01*
X015647Y020754D01*
X015589Y020713D01*
X015534Y020668D01*
X015481Y020621D01*
X015430Y020571D01*
X015383Y020518D01*
X015339Y020462D01*
X015297Y020404D01*
X015259Y020344D01*
X015225Y020282D01*
X015194Y020218D01*
X015167Y020153D01*
X015143Y020085D01*
X015124Y020017D01*
X015108Y019948D01*
X015096Y019878D01*
X015088Y019807D01*
X015084Y019736D01*
X015083Y019665D01*
X015087Y019594D01*
X015095Y019524D01*
X015107Y019454D01*
X015123Y019384D01*
X015142Y019316D01*
X015166Y019249D01*
X015193Y019183D01*
X015223Y019119D01*
X015258Y019057D01*
X015295Y018997D01*
X015336Y018939D01*
X015380Y018883D01*
X015428Y018830D01*
X015478Y018780D01*
X015531Y018732D01*
X015586Y018688D01*
X015592Y018695D01*
X015537Y018739D01*
X015484Y018786D01*
X015434Y018836D01*
X015387Y018889D01*
X015343Y018944D01*
X015303Y019002D01*
X015265Y019061D01*
X015231Y019123D01*
X015201Y019187D01*
X015174Y019252D01*
X015151Y019319D01*
X015131Y019387D01*
X015116Y019455D01*
X015104Y019525D01*
X015096Y019595D01*
X015092Y019666D01*
X015093Y019736D01*
X015097Y019807D01*
X015105Y019877D01*
X015117Y019946D01*
X015132Y020015D01*
X015152Y020083D01*
X015175Y020149D01*
X015202Y020214D01*
X015233Y020278D01*
X015267Y020340D01*
X015305Y020399D01*
X015346Y020457D01*
X015390Y020512D01*
X015437Y020565D01*
X015487Y020614D01*
X015539Y020661D01*
X015595Y020705D01*
X015652Y020746D01*
X015712Y020784D01*
X015774Y020818D01*
X015837Y020848D01*
X015902Y020875D01*
X015969Y020899D01*
X016037Y020918D01*
X016106Y020934D01*
X016175Y020946D01*
X016245Y020954D01*
X016316Y020958D01*
X016386Y020958D01*
X016457Y020954D01*
X016527Y020946D01*
X016596Y020934D01*
X016665Y020918D01*
X016733Y020899D01*
X016800Y020875D01*
X016865Y020848D01*
X016928Y020818D01*
X016990Y020784D01*
X017050Y020746D01*
X017107Y020705D01*
X017163Y020661D01*
X017215Y020614D01*
X017265Y020565D01*
X017312Y020512D01*
X017356Y020457D01*
X017397Y020399D01*
X017435Y020340D01*
X017469Y020278D01*
X017500Y020214D01*
X017527Y020149D01*
X017550Y020083D01*
X017570Y020015D01*
X017585Y019946D01*
X017597Y019877D01*
X017605Y019807D01*
X017609Y019736D01*
X017610Y019666D01*
X017606Y019595D01*
X017598Y019525D01*
X017586Y019455D01*
X017571Y019387D01*
X017551Y019319D01*
X017528Y019252D01*
X017501Y019187D01*
X017471Y019123D01*
X017437Y019061D01*
X017399Y019002D01*
X017359Y018944D01*
X017315Y018889D01*
X017268Y018836D01*
X017218Y018786D01*
X017165Y018739D01*
X017110Y018695D01*
X017105Y018702D01*
X017160Y018746D01*
X017212Y018793D01*
X017261Y018842D01*
X017308Y018895D01*
X017351Y018949D01*
X017392Y019007D01*
X017429Y019066D01*
X017463Y019127D01*
X017493Y019191D01*
X017520Y019255D01*
X017543Y019322D01*
X017562Y019389D01*
X017577Y019457D01*
X017589Y019526D01*
X017597Y019596D01*
X017601Y019666D01*
X017600Y019736D01*
X017596Y019806D01*
X017588Y019875D01*
X017577Y019944D01*
X017561Y020013D01*
X017542Y020080D01*
X017518Y020146D01*
X017491Y020211D01*
X017461Y020274D01*
X017427Y020335D01*
X017390Y020394D01*
X017349Y020452D01*
X017305Y020506D01*
X017259Y020558D01*
X017209Y020608D01*
X017157Y020655D01*
X017102Y020698D01*
X017045Y020739D01*
X016986Y020776D01*
X016924Y020810D01*
X016861Y020840D01*
X016796Y020867D01*
X016730Y020890D01*
X016663Y020909D01*
X016595Y020925D01*
X016526Y020937D01*
X016456Y020945D01*
X016386Y020949D01*
X016316Y020949D01*
X016246Y020945D01*
X016176Y020937D01*
X016107Y020925D01*
X016039Y020909D01*
X015972Y020890D01*
X015906Y020867D01*
X015841Y020840D01*
X015778Y020810D01*
X015716Y020776D01*
X015657Y020739D01*
X015600Y020698D01*
X015545Y020655D01*
X015493Y020608D01*
X015443Y020558D01*
X015397Y020506D01*
X015353Y020452D01*
X015312Y020394D01*
X015275Y020335D01*
X015241Y020274D01*
X015211Y020211D01*
X015184Y020146D01*
X015160Y020080D01*
X015141Y020013D01*
X015125Y019944D01*
X015114Y019875D01*
X015106Y019806D01*
X015102Y019736D01*
X015101Y019666D01*
X015105Y019596D01*
X015113Y019526D01*
X015125Y019457D01*
X015140Y019389D01*
X015159Y019322D01*
X015182Y019255D01*
X015209Y019191D01*
X015239Y019127D01*
X015273Y019066D01*
X015310Y019007D01*
X015351Y018949D01*
X015394Y018895D01*
X015441Y018842D01*
X015490Y018793D01*
X015542Y018746D01*
X015597Y018702D01*
X015602Y018709D01*
X015548Y018753D01*
X015496Y018799D01*
X015447Y018848D01*
X015401Y018900D01*
X015358Y018955D01*
X015318Y019012D01*
X015281Y019071D01*
X015247Y019132D01*
X015217Y019194D01*
X015191Y019259D01*
X015168Y019324D01*
X015149Y019391D01*
X015133Y019459D01*
X015122Y019528D01*
X015114Y019597D01*
X015110Y019666D01*
X015111Y019736D01*
X015115Y019805D01*
X015122Y019874D01*
X015134Y019943D01*
X015150Y020010D01*
X015169Y020077D01*
X015192Y020143D01*
X015219Y020207D01*
X015249Y020270D01*
X015283Y020331D01*
X015320Y020389D01*
X015360Y020446D01*
X015403Y020500D01*
X015450Y020552D01*
X015499Y020601D01*
X015551Y020648D01*
X015605Y020691D01*
X015662Y020731D01*
X015721Y020768D01*
X015782Y020802D01*
X015845Y020832D01*
X015909Y020859D01*
X015974Y020882D01*
X016041Y020901D01*
X016109Y020916D01*
X016178Y020928D01*
X016247Y020936D01*
X016316Y020940D01*
X016386Y020940D01*
X016455Y020936D01*
X016524Y020928D01*
X016593Y020916D01*
X016661Y020901D01*
X016728Y020882D01*
X016793Y020859D01*
X016857Y020832D01*
X016920Y020802D01*
X016981Y020768D01*
X017040Y020731D01*
X017097Y020691D01*
X017151Y020648D01*
X017203Y020601D01*
X017252Y020552D01*
X017299Y020500D01*
X017342Y020446D01*
X017382Y020389D01*
X017419Y020331D01*
X017453Y020270D01*
X017483Y020207D01*
X017510Y020143D01*
X017533Y020077D01*
X017552Y020010D01*
X017568Y019943D01*
X017580Y019874D01*
X017587Y019805D01*
X017591Y019736D01*
X017592Y019666D01*
X017588Y019597D01*
X017580Y019528D01*
X017569Y019459D01*
X017553Y019391D01*
X017534Y019324D01*
X017511Y019259D01*
X017485Y019194D01*
X017455Y019132D01*
X017421Y019071D01*
X017384Y019012D01*
X017344Y018955D01*
X017301Y018900D01*
X017255Y018848D01*
X017206Y018799D01*
X017154Y018753D01*
X017100Y018709D01*
X017094Y018716D01*
X017148Y018760D01*
X017199Y018806D01*
X017248Y018855D01*
X017294Y018906D01*
X017337Y018960D01*
X017377Y019017D01*
X017413Y019075D01*
X017447Y019136D01*
X017477Y019198D01*
X017503Y019262D01*
X017525Y019327D01*
X017544Y019393D01*
X017560Y019461D01*
X017571Y019529D01*
X017579Y019597D01*
X017583Y019666D01*
X017582Y019735D01*
X017578Y019804D01*
X017571Y019873D01*
X017559Y019941D01*
X017544Y020008D01*
X017524Y020075D01*
X017501Y020140D01*
X017475Y020203D01*
X017445Y020266D01*
X017412Y020326D01*
X017375Y020384D01*
X017335Y020441D01*
X017292Y020495D01*
X017246Y020546D01*
X017197Y020595D01*
X017145Y020641D01*
X017091Y020684D01*
X017035Y020724D01*
X016976Y020760D01*
X016916Y020794D01*
X016854Y020824D01*
X016790Y020850D01*
X016725Y020873D01*
X016658Y020892D01*
X016591Y020907D01*
X016523Y020919D01*
X016454Y020927D01*
X016386Y020931D01*
X016316Y020931D01*
X016248Y020927D01*
X016179Y020919D01*
X016111Y020907D01*
X016044Y020892D01*
X015977Y020873D01*
X015912Y020850D01*
X015848Y020824D01*
X015786Y020794D01*
X015726Y020760D01*
X015667Y020724D01*
X015611Y020684D01*
X015557Y020641D01*
X015505Y020595D01*
X015456Y020546D01*
X015410Y020495D01*
X015367Y020441D01*
X015327Y020384D01*
X015290Y020326D01*
X015257Y020266D01*
X015227Y020203D01*
X015201Y020140D01*
X015178Y020075D01*
X015158Y020008D01*
X015143Y019941D01*
X015131Y019873D01*
X015124Y019804D01*
X015120Y019735D01*
X015119Y019666D01*
X015123Y019597D01*
X015131Y019529D01*
X015142Y019461D01*
X015158Y019393D01*
X015177Y019327D01*
X015199Y019262D01*
X015225Y019198D01*
X015255Y019136D01*
X015289Y019075D01*
X015325Y019017D01*
X015365Y018960D01*
X015408Y018906D01*
X015454Y018855D01*
X015503Y018806D01*
X015554Y018760D01*
X015608Y018716D01*
X015613Y018724D01*
X015559Y018767D01*
X015508Y018813D01*
X015459Y018863D01*
X015413Y018914D01*
X015370Y018969D01*
X015330Y019026D01*
X015294Y019084D01*
X015260Y019145D01*
X015231Y019208D01*
X015205Y019272D01*
X015183Y019338D01*
X015164Y019405D01*
X015149Y019472D01*
X015138Y019541D01*
X015131Y019610D01*
X015128Y019679D01*
X015129Y019748D01*
X015134Y019818D01*
X015142Y019886D01*
X015155Y019954D01*
X015171Y020022D01*
X015192Y020088D01*
X015215Y020153D01*
X015243Y020217D01*
X015274Y020279D01*
X015309Y020339D01*
X015347Y020397D01*
X015388Y020453D01*
X015432Y020506D01*
X015479Y020557D01*
X015529Y020605D01*
X015582Y020650D01*
X015637Y020692D01*
X015694Y020731D01*
X015754Y020766D01*
X015815Y020798D01*
X015878Y020827D01*
X015943Y020852D01*
X016009Y020873D01*
X016076Y020891D01*
X016144Y020904D01*
X016213Y020914D01*
X016282Y020920D01*
X016351Y020922D01*
X016420Y020920D01*
X016489Y020914D01*
X016558Y020904D01*
X016626Y020891D01*
X016693Y020873D01*
X016759Y020852D01*
X016824Y020827D01*
X016887Y020798D01*
X016948Y020766D01*
X017008Y020731D01*
X017065Y020692D01*
X017120Y020650D01*
X017173Y020605D01*
X017223Y020557D01*
X017270Y020506D01*
X017314Y020453D01*
X017355Y020397D01*
X017393Y020339D01*
X017428Y020279D01*
X017459Y020217D01*
X017487Y020153D01*
X017510Y020088D01*
X017531Y020022D01*
X017547Y019954D01*
X017560Y019886D01*
X017568Y019818D01*
X017573Y019748D01*
X017574Y019679D01*
X017571Y019610D01*
X017564Y019541D01*
X017553Y019472D01*
X017538Y019405D01*
X017519Y019338D01*
X017497Y019272D01*
X017471Y019208D01*
X017442Y019145D01*
X017408Y019084D01*
X017372Y019026D01*
X017332Y018969D01*
X017289Y018914D01*
X017243Y018863D01*
X017194Y018813D01*
X017143Y018767D01*
X017089Y018724D01*
X017083Y018731D01*
X017137Y018774D01*
X017188Y018820D01*
X017237Y018869D01*
X017282Y018920D01*
X017325Y018974D01*
X017364Y019031D01*
X017401Y019089D01*
X017434Y019149D01*
X017463Y019212D01*
X017489Y019275D01*
X017511Y019341D01*
X017529Y019407D01*
X017544Y019474D01*
X017555Y019542D01*
X017562Y019611D01*
X017565Y019679D01*
X017564Y019748D01*
X017559Y019817D01*
X017551Y019885D01*
X017538Y019953D01*
X017522Y020019D01*
X017502Y020085D01*
X017478Y020150D01*
X017451Y020213D01*
X017420Y020274D01*
X017386Y020334D01*
X017348Y020392D01*
X017307Y020447D01*
X017263Y020500D01*
X017216Y020550D01*
X017167Y020598D01*
X017115Y020643D01*
X017060Y020685D01*
X017003Y020723D01*
X016944Y020758D01*
X016883Y020790D01*
X016820Y020819D01*
X016756Y020843D01*
X016690Y020865D01*
X016624Y020882D01*
X016556Y020895D01*
X016488Y020905D01*
X016420Y020911D01*
X016351Y020913D01*
X016282Y020911D01*
X016214Y020905D01*
X016146Y020895D01*
X016078Y020882D01*
X016012Y020865D01*
X015946Y020843D01*
X015882Y020819D01*
X015819Y020790D01*
X015758Y020758D01*
X015699Y020723D01*
X015642Y020685D01*
X015587Y020643D01*
X015535Y020598D01*
X015486Y020550D01*
X015439Y020500D01*
X015395Y020447D01*
X015354Y020392D01*
X015316Y020334D01*
X015282Y020274D01*
X015251Y020213D01*
X015224Y020150D01*
X015200Y020085D01*
X015180Y020019D01*
X015164Y019953D01*
X015151Y019885D01*
X015143Y019817D01*
X015138Y019748D01*
X015137Y019679D01*
X015140Y019611D01*
X015147Y019542D01*
X015158Y019474D01*
X015173Y019407D01*
X015191Y019341D01*
X015213Y019275D01*
X015239Y019212D01*
X015268Y019149D01*
X015301Y019089D01*
X015338Y019031D01*
X015377Y018974D01*
X015420Y018920D01*
X015465Y018869D01*
X015514Y018820D01*
X015565Y018774D01*
X015619Y018731D01*
X016822Y023758D02*
X016750Y023704D01*
X016751Y023705D02*
X016708Y023758D01*
X016663Y023809D01*
X016614Y023857D01*
X016563Y023902D01*
X016509Y023945D01*
X016453Y023984D01*
X016395Y024020D01*
X016335Y024053D01*
X016274Y024082D01*
X016210Y024107D01*
X016146Y024129D01*
X016080Y024148D01*
X016013Y024162D01*
X015946Y024173D01*
X015878Y024180D01*
X015810Y024183D01*
X015741Y024182D01*
X015673Y024177D01*
X015605Y024169D01*
X015538Y024156D01*
X015472Y024140D01*
X015407Y024120D01*
X015342Y024097D01*
X015280Y024070D01*
X015219Y024039D01*
X015160Y024005D01*
X015102Y023968D01*
X015047Y023927D01*
X014995Y023883D01*
X014945Y023837D01*
X014898Y023788D01*
X014853Y023736D01*
X014812Y023682D01*
X014773Y023625D01*
X014738Y023566D01*
X014707Y023506D01*
X014679Y023444D01*
X014654Y023380D01*
X014633Y023315D01*
X014616Y023249D01*
X014602Y023182D01*
X014593Y023114D01*
X014587Y023046D01*
X014585Y022978D01*
X014587Y022910D01*
X014593Y022842D01*
X014602Y022774D01*
X014616Y022707D01*
X014633Y022641D01*
X014654Y022576D01*
X014679Y022512D01*
X014707Y022450D01*
X014738Y022390D01*
X014773Y022331D01*
X014812Y022274D01*
X014853Y022220D01*
X014898Y022168D01*
X014945Y022119D01*
X014995Y022073D01*
X015047Y022029D01*
X015102Y021988D01*
X015160Y021951D01*
X015219Y021917D01*
X015280Y021886D01*
X015342Y021859D01*
X015407Y021836D01*
X015472Y021816D01*
X015538Y021800D01*
X015605Y021787D01*
X015673Y021779D01*
X015741Y021774D01*
X015810Y021773D01*
X015878Y021776D01*
X015946Y021783D01*
X016013Y021794D01*
X016080Y021808D01*
X016146Y021827D01*
X016210Y021849D01*
X016274Y021874D01*
X016335Y021903D01*
X016395Y021936D01*
X016453Y021972D01*
X016509Y022011D01*
X016563Y022054D01*
X016614Y022099D01*
X016663Y022147D01*
X016708Y022198D01*
X016751Y022251D01*
X016822Y022198D01*
X016823Y022197D01*
X016779Y022142D01*
X016731Y022089D01*
X016681Y022038D01*
X016628Y021991D01*
X016573Y021947D01*
X016515Y021905D01*
X016455Y021867D01*
X016394Y021832D01*
X016330Y021801D01*
X016265Y021773D01*
X016198Y021749D01*
X016130Y021728D01*
X016061Y021712D01*
X015991Y021699D01*
X015921Y021690D01*
X015850Y021684D01*
X015779Y021683D01*
X015708Y021686D01*
X015637Y021692D01*
X015567Y021702D01*
X015498Y021716D01*
X015429Y021734D01*
X015361Y021756D01*
X015295Y021781D01*
X015230Y021810D01*
X015167Y021843D01*
X015106Y021879D01*
X015047Y021918D01*
X014990Y021960D01*
X014935Y022005D01*
X014883Y022054D01*
X014834Y022105D01*
X014787Y022158D01*
X014744Y022215D01*
X014704Y022273D01*
X014667Y022334D01*
X014633Y022396D01*
X014603Y022460D01*
X014576Y022526D01*
X014553Y022593D01*
X014534Y022662D01*
X014519Y022731D01*
X014507Y022801D01*
X014499Y022872D01*
X014495Y022943D01*
X014495Y023013D01*
X014499Y023084D01*
X014507Y023155D01*
X014519Y023225D01*
X014534Y023294D01*
X014553Y023363D01*
X014576Y023430D01*
X014603Y023496D01*
X014633Y023560D01*
X014667Y023622D01*
X014704Y023683D01*
X014744Y023741D01*
X014787Y023798D01*
X014834Y023851D01*
X014883Y023902D01*
X014935Y023951D01*
X014990Y023996D01*
X015047Y024038D01*
X015106Y024077D01*
X015167Y024113D01*
X015230Y024146D01*
X015295Y024175D01*
X015361Y024200D01*
X015429Y024222D01*
X015498Y024240D01*
X015567Y024254D01*
X015637Y024264D01*
X015708Y024270D01*
X015779Y024273D01*
X015850Y024272D01*
X015921Y024266D01*
X015991Y024257D01*
X016061Y024244D01*
X016130Y024228D01*
X016198Y024207D01*
X016265Y024183D01*
X016330Y024155D01*
X016394Y024124D01*
X016455Y024089D01*
X016515Y024051D01*
X016573Y024009D01*
X016628Y023965D01*
X016681Y023918D01*
X016731Y023867D01*
X016779Y023814D01*
X016823Y023759D01*
X016816Y023754D01*
X016771Y023809D01*
X016724Y023862D01*
X016673Y023913D01*
X016620Y023960D01*
X016564Y024005D01*
X016506Y024046D01*
X016446Y024084D01*
X016384Y024119D01*
X016320Y024150D01*
X016254Y024177D01*
X016187Y024201D01*
X016118Y024221D01*
X016049Y024238D01*
X015979Y024250D01*
X015908Y024259D01*
X015837Y024263D01*
X015766Y024264D01*
X015695Y024260D01*
X015624Y024253D01*
X015553Y024242D01*
X015484Y024227D01*
X015415Y024208D01*
X015347Y024185D01*
X015281Y024159D01*
X015216Y024129D01*
X015154Y024095D01*
X015093Y024059D01*
X015034Y024018D01*
X014977Y023975D01*
X014923Y023928D01*
X014872Y023879D01*
X014824Y023826D01*
X014778Y023772D01*
X014736Y023714D01*
X014697Y023655D01*
X014661Y023593D01*
X014628Y023530D01*
X014600Y023465D01*
X014574Y023398D01*
X014553Y023330D01*
X014535Y023261D01*
X014522Y023191D01*
X014512Y023120D01*
X014506Y023049D01*
X014504Y022978D01*
X014506Y022907D01*
X014512Y022836D01*
X014522Y022765D01*
X014535Y022695D01*
X014553Y022626D01*
X014574Y022558D01*
X014600Y022491D01*
X014628Y022426D01*
X014661Y022363D01*
X014697Y022301D01*
X014736Y022242D01*
X014778Y022184D01*
X014824Y022130D01*
X014872Y022077D01*
X014923Y022028D01*
X014977Y021981D01*
X015034Y021938D01*
X015093Y021897D01*
X015154Y021861D01*
X015216Y021827D01*
X015281Y021797D01*
X015347Y021771D01*
X015415Y021748D01*
X015484Y021729D01*
X015553Y021714D01*
X015624Y021703D01*
X015695Y021696D01*
X015766Y021692D01*
X015837Y021693D01*
X015908Y021697D01*
X015979Y021706D01*
X016049Y021718D01*
X016118Y021735D01*
X016187Y021755D01*
X016254Y021779D01*
X016320Y021806D01*
X016384Y021837D01*
X016446Y021872D01*
X016506Y021910D01*
X016564Y021951D01*
X016620Y021996D01*
X016673Y022043D01*
X016724Y022094D01*
X016771Y022147D01*
X016816Y022202D01*
X016809Y022208D01*
X016764Y022153D01*
X016717Y022100D01*
X016667Y022050D01*
X016614Y022003D01*
X016559Y021959D01*
X016501Y021917D01*
X016442Y021880D01*
X016380Y021845D01*
X016316Y021814D01*
X016251Y021787D01*
X016184Y021763D01*
X016116Y021743D01*
X016047Y021727D01*
X015978Y021715D01*
X015907Y021706D01*
X015837Y021702D01*
X015766Y021701D01*
X015695Y021705D01*
X015625Y021712D01*
X015555Y021723D01*
X015486Y021738D01*
X015418Y021757D01*
X015350Y021779D01*
X015285Y021805D01*
X015220Y021835D01*
X015158Y021868D01*
X015098Y021905D01*
X015039Y021945D01*
X014983Y021988D01*
X014929Y022034D01*
X014879Y022084D01*
X014830Y022135D01*
X014785Y022190D01*
X014743Y022247D01*
X014704Y022306D01*
X014669Y022367D01*
X014636Y022430D01*
X014608Y022495D01*
X014583Y022561D01*
X014562Y022629D01*
X014544Y022697D01*
X014531Y022767D01*
X014521Y022837D01*
X014515Y022907D01*
X014513Y022978D01*
X014515Y023049D01*
X014521Y023119D01*
X014531Y023189D01*
X014544Y023259D01*
X014562Y023327D01*
X014583Y023395D01*
X014608Y023461D01*
X014636Y023526D01*
X014669Y023589D01*
X014704Y023650D01*
X014743Y023709D01*
X014785Y023766D01*
X014830Y023821D01*
X014879Y023872D01*
X014929Y023922D01*
X014983Y023968D01*
X015039Y024011D01*
X015098Y024051D01*
X015158Y024088D01*
X015220Y024121D01*
X015285Y024151D01*
X015350Y024177D01*
X015418Y024199D01*
X015486Y024218D01*
X015555Y024233D01*
X015625Y024244D01*
X015695Y024251D01*
X015766Y024255D01*
X015837Y024254D01*
X015907Y024250D01*
X015978Y024241D01*
X016047Y024229D01*
X016116Y024213D01*
X016184Y024193D01*
X016251Y024169D01*
X016316Y024142D01*
X016380Y024111D01*
X016442Y024076D01*
X016501Y024039D01*
X016559Y023997D01*
X016614Y023953D01*
X016667Y023906D01*
X016717Y023856D01*
X016764Y023803D01*
X016809Y023748D01*
X016801Y023743D01*
X016757Y023798D01*
X016709Y023851D01*
X016659Y023901D01*
X016606Y023949D01*
X016550Y023993D01*
X016492Y024034D01*
X016432Y024071D01*
X016370Y024106D01*
X016306Y024136D01*
X016240Y024163D01*
X016173Y024187D01*
X016105Y024206D01*
X016035Y024222D01*
X015965Y024234D01*
X015895Y024242D01*
X015824Y024246D01*
X015753Y024245D01*
X015682Y024241D01*
X015611Y024233D01*
X015541Y024221D01*
X015472Y024205D01*
X015404Y024186D01*
X015336Y024162D01*
X015271Y024135D01*
X015207Y024104D01*
X015145Y024070D01*
X015085Y024032D01*
X015027Y023990D01*
X014971Y023946D01*
X014918Y023899D01*
X014868Y023848D01*
X014821Y023795D01*
X014776Y023740D01*
X014735Y023682D01*
X014698Y023622D01*
X014663Y023559D01*
X014632Y023495D01*
X014605Y023430D01*
X014582Y023363D01*
X014562Y023294D01*
X014546Y023225D01*
X014534Y023155D01*
X014526Y023084D01*
X014522Y023014D01*
X014522Y022942D01*
X014526Y022872D01*
X014534Y022801D01*
X014546Y022731D01*
X014562Y022662D01*
X014582Y022593D01*
X014605Y022526D01*
X014632Y022461D01*
X014663Y022397D01*
X014698Y022334D01*
X014735Y022274D01*
X014776Y022216D01*
X014821Y022161D01*
X014868Y022108D01*
X014918Y022057D01*
X014971Y022010D01*
X015027Y021966D01*
X015085Y021924D01*
X015145Y021886D01*
X015207Y021852D01*
X015271Y021821D01*
X015336Y021794D01*
X015404Y021770D01*
X015472Y021751D01*
X015541Y021735D01*
X015611Y021723D01*
X015682Y021715D01*
X015753Y021711D01*
X015824Y021710D01*
X015895Y021714D01*
X015965Y021722D01*
X016035Y021734D01*
X016105Y021750D01*
X016173Y021769D01*
X016240Y021793D01*
X016306Y021820D01*
X016370Y021850D01*
X016432Y021885D01*
X016492Y021922D01*
X016550Y021963D01*
X016606Y022007D01*
X016659Y022055D01*
X016709Y022105D01*
X016757Y022158D01*
X016801Y022213D01*
X016794Y022219D01*
X016750Y022164D01*
X016703Y022111D01*
X016653Y022061D01*
X016600Y022014D01*
X016545Y021970D01*
X016487Y021930D01*
X016428Y021892D01*
X016366Y021858D01*
X016302Y021828D01*
X016237Y021801D01*
X016170Y021778D01*
X016102Y021758D01*
X016034Y021743D01*
X015964Y021731D01*
X015894Y021723D01*
X015823Y021719D01*
X015753Y021720D01*
X015682Y021724D01*
X015612Y021732D01*
X015543Y021744D01*
X015474Y021759D01*
X015406Y021779D01*
X015340Y021802D01*
X015275Y021829D01*
X015211Y021860D01*
X015149Y021894D01*
X015090Y021932D01*
X015032Y021973D01*
X014977Y022017D01*
X014924Y022064D01*
X014875Y022114D01*
X014828Y022166D01*
X014784Y022222D01*
X014743Y022279D01*
X014705Y022339D01*
X014671Y022401D01*
X014641Y022464D01*
X014614Y022529D01*
X014590Y022596D01*
X014571Y022664D01*
X014555Y022733D01*
X014543Y022802D01*
X014535Y022872D01*
X014531Y022943D01*
X014531Y023013D01*
X014535Y023084D01*
X014543Y023154D01*
X014555Y023223D01*
X014571Y023292D01*
X014590Y023360D01*
X014614Y023427D01*
X014641Y023492D01*
X014671Y023555D01*
X014705Y023617D01*
X014743Y023677D01*
X014784Y023734D01*
X014828Y023790D01*
X014875Y023842D01*
X014924Y023892D01*
X014977Y023939D01*
X015032Y023983D01*
X015090Y024024D01*
X015149Y024062D01*
X015211Y024096D01*
X015275Y024127D01*
X015340Y024154D01*
X015406Y024177D01*
X015474Y024197D01*
X015543Y024212D01*
X015612Y024224D01*
X015682Y024232D01*
X015753Y024236D01*
X015823Y024237D01*
X015894Y024233D01*
X015964Y024225D01*
X016034Y024213D01*
X016102Y024198D01*
X016170Y024178D01*
X016237Y024155D01*
X016302Y024128D01*
X016366Y024098D01*
X016428Y024064D01*
X016487Y024026D01*
X016545Y023986D01*
X016600Y023942D01*
X016653Y023895D01*
X016703Y023845D01*
X016750Y023792D01*
X016794Y023737D01*
X016787Y023732D01*
X016743Y023787D01*
X016696Y023839D01*
X016647Y023888D01*
X016594Y023935D01*
X016540Y023978D01*
X016482Y024019D01*
X016423Y024056D01*
X016362Y024090D01*
X016298Y024120D01*
X016234Y024147D01*
X016167Y024170D01*
X016100Y024189D01*
X016032Y024204D01*
X015963Y024216D01*
X015893Y024224D01*
X015823Y024228D01*
X015753Y024227D01*
X015683Y024223D01*
X015614Y024215D01*
X015545Y024204D01*
X015476Y024188D01*
X015409Y024169D01*
X015343Y024145D01*
X015278Y024118D01*
X015215Y024088D01*
X015154Y024054D01*
X015095Y024017D01*
X015037Y023976D01*
X014983Y023932D01*
X014931Y023886D01*
X014881Y023836D01*
X014834Y023784D01*
X014791Y023729D01*
X014750Y023672D01*
X014713Y023613D01*
X014679Y023551D01*
X014649Y023488D01*
X014622Y023423D01*
X014599Y023357D01*
X014580Y023290D01*
X014564Y023222D01*
X014552Y023153D01*
X014544Y023083D01*
X014540Y023013D01*
X014540Y022943D01*
X014544Y022873D01*
X014552Y022803D01*
X014564Y022734D01*
X014580Y022666D01*
X014599Y022599D01*
X014622Y022533D01*
X014649Y022468D01*
X014679Y022405D01*
X014713Y022343D01*
X014750Y022284D01*
X014791Y022227D01*
X014834Y022172D01*
X014881Y022120D01*
X014931Y022070D01*
X014983Y022024D01*
X015037Y021980D01*
X015095Y021939D01*
X015154Y021902D01*
X015215Y021868D01*
X015278Y021838D01*
X015343Y021811D01*
X015409Y021787D01*
X015476Y021768D01*
X015545Y021752D01*
X015614Y021741D01*
X015683Y021733D01*
X015753Y021729D01*
X015823Y021728D01*
X015893Y021732D01*
X015963Y021740D01*
X016032Y021752D01*
X016100Y021767D01*
X016167Y021786D01*
X016234Y021809D01*
X016298Y021836D01*
X016362Y021866D01*
X016423Y021900D01*
X016482Y021937D01*
X016540Y021978D01*
X016594Y022021D01*
X016647Y022068D01*
X016696Y022117D01*
X016743Y022169D01*
X016787Y022224D01*
X016780Y022229D01*
X016736Y022175D01*
X016690Y022123D01*
X016641Y022074D01*
X016589Y022028D01*
X016534Y021985D01*
X016477Y021945D01*
X016418Y021908D01*
X016357Y021874D01*
X016295Y021844D01*
X016230Y021818D01*
X016165Y021795D01*
X016098Y021776D01*
X016030Y021760D01*
X015961Y021749D01*
X015892Y021741D01*
X015823Y021737D01*
X015753Y021738D01*
X015684Y021742D01*
X015615Y021749D01*
X015546Y021761D01*
X015479Y021777D01*
X015412Y021796D01*
X015346Y021819D01*
X015282Y021846D01*
X015219Y021876D01*
X015158Y021910D01*
X015100Y021947D01*
X015043Y021987D01*
X014989Y022030D01*
X014937Y022077D01*
X014888Y022126D01*
X014841Y022178D01*
X014798Y022232D01*
X014758Y022289D01*
X014721Y022348D01*
X014687Y022409D01*
X014657Y022472D01*
X014630Y022536D01*
X014607Y022601D01*
X014588Y022668D01*
X014573Y022736D01*
X014561Y022805D01*
X014553Y022874D01*
X014549Y022943D01*
X014549Y023013D01*
X014553Y023082D01*
X014561Y023151D01*
X014573Y023220D01*
X014588Y023288D01*
X014607Y023355D01*
X014630Y023420D01*
X014657Y023484D01*
X014687Y023547D01*
X014721Y023608D01*
X014758Y023667D01*
X014798Y023724D01*
X014841Y023778D01*
X014888Y023830D01*
X014937Y023879D01*
X014989Y023926D01*
X015043Y023969D01*
X015100Y024009D01*
X015158Y024046D01*
X015219Y024080D01*
X015282Y024110D01*
X015346Y024137D01*
X015412Y024160D01*
X015479Y024179D01*
X015546Y024195D01*
X015615Y024207D01*
X015684Y024214D01*
X015753Y024218D01*
X015823Y024219D01*
X015892Y024215D01*
X015961Y024207D01*
X016030Y024196D01*
X016098Y024180D01*
X016165Y024161D01*
X016230Y024138D01*
X016295Y024112D01*
X016357Y024082D01*
X016418Y024048D01*
X016477Y024011D01*
X016534Y023971D01*
X016589Y023928D01*
X016641Y023882D01*
X016690Y023833D01*
X016736Y023781D01*
X016780Y023727D01*
X016773Y023721D01*
X016729Y023775D01*
X016683Y023826D01*
X016634Y023875D01*
X016583Y023921D01*
X016529Y023964D01*
X016472Y024004D01*
X016414Y024040D01*
X016353Y024074D01*
X016291Y024104D01*
X016227Y024130D01*
X016162Y024152D01*
X016096Y024171D01*
X016028Y024187D01*
X015960Y024198D01*
X015892Y024206D01*
X015823Y024210D01*
X015754Y024209D01*
X015685Y024205D01*
X015616Y024198D01*
X015548Y024186D01*
X015481Y024171D01*
X015414Y024151D01*
X015349Y024128D01*
X015286Y024102D01*
X015223Y024072D01*
X015163Y024039D01*
X015105Y024002D01*
X015048Y023962D01*
X014994Y023919D01*
X014943Y023873D01*
X014894Y023824D01*
X014848Y023772D01*
X014805Y023718D01*
X014765Y023662D01*
X014729Y023603D01*
X014695Y023543D01*
X014665Y023481D01*
X014639Y023417D01*
X014616Y023352D01*
X014597Y023285D01*
X014582Y023218D01*
X014570Y023150D01*
X014562Y023081D01*
X014558Y023013D01*
X014558Y022943D01*
X014562Y022875D01*
X014570Y022806D01*
X014582Y022738D01*
X014597Y022671D01*
X014616Y022604D01*
X014639Y022539D01*
X014665Y022475D01*
X014695Y022413D01*
X014729Y022353D01*
X014765Y022294D01*
X014805Y022238D01*
X014848Y022184D01*
X014894Y022132D01*
X014943Y022083D01*
X014994Y022037D01*
X015048Y021994D01*
X015105Y021954D01*
X015163Y021917D01*
X015223Y021884D01*
X015286Y021854D01*
X015349Y021828D01*
X015414Y021805D01*
X015481Y021785D01*
X015548Y021770D01*
X015616Y021758D01*
X015685Y021751D01*
X015754Y021747D01*
X015823Y021746D01*
X015892Y021750D01*
X015960Y021758D01*
X016028Y021769D01*
X016096Y021785D01*
X016162Y021804D01*
X016227Y021826D01*
X016291Y021852D01*
X016353Y021882D01*
X016414Y021916D01*
X016472Y021952D01*
X016529Y021992D01*
X016583Y022035D01*
X016634Y022081D01*
X016683Y022130D01*
X016729Y022181D01*
X016773Y022235D01*
X016765Y022240D01*
X016722Y022186D01*
X016676Y022135D01*
X016626Y022086D01*
X016575Y022040D01*
X016520Y021997D01*
X016463Y021957D01*
X016405Y021921D01*
X016344Y021887D01*
X016281Y021858D01*
X016217Y021832D01*
X016151Y021810D01*
X016084Y021791D01*
X016017Y021776D01*
X015948Y021765D01*
X015879Y021758D01*
X015810Y021755D01*
X015741Y021756D01*
X015671Y021761D01*
X015603Y021769D01*
X015535Y021782D01*
X015467Y021798D01*
X015401Y021819D01*
X015336Y021842D01*
X015272Y021870D01*
X015210Y021901D01*
X015150Y021936D01*
X015092Y021974D01*
X015036Y022015D01*
X014983Y022059D01*
X014932Y022106D01*
X014884Y022156D01*
X014839Y022209D01*
X014797Y022264D01*
X014758Y022321D01*
X014723Y022381D01*
X014691Y022442D01*
X014662Y022505D01*
X014637Y022570D01*
X014616Y022636D01*
X014598Y022703D01*
X014585Y022771D01*
X014575Y022840D01*
X014569Y022909D01*
X014567Y022978D01*
X014569Y023047D01*
X014575Y023116D01*
X014585Y023185D01*
X014598Y023253D01*
X014616Y023320D01*
X014637Y023386D01*
X014662Y023451D01*
X014691Y023514D01*
X014723Y023575D01*
X014758Y023635D01*
X014797Y023692D01*
X014839Y023747D01*
X014884Y023800D01*
X014932Y023850D01*
X014983Y023897D01*
X015036Y023941D01*
X015092Y023982D01*
X015150Y024020D01*
X015210Y024055D01*
X015272Y024086D01*
X015336Y024114D01*
X015401Y024137D01*
X015467Y024158D01*
X015535Y024174D01*
X015603Y024187D01*
X015671Y024195D01*
X015741Y024200D01*
X015810Y024201D01*
X015879Y024198D01*
X015948Y024191D01*
X016017Y024180D01*
X016084Y024165D01*
X016151Y024146D01*
X016217Y024124D01*
X016281Y024098D01*
X016344Y024069D01*
X016405Y024035D01*
X016463Y023999D01*
X016520Y023959D01*
X016575Y023916D01*
X016626Y023870D01*
X016676Y023821D01*
X016722Y023770D01*
X016765Y023716D01*
X016758Y023710D01*
X016715Y023764D01*
X016669Y023815D01*
X016620Y023864D01*
X016569Y023909D01*
X016515Y023952D01*
X016458Y023991D01*
X016400Y024028D01*
X016340Y024061D01*
X016277Y024090D01*
X016214Y024116D01*
X016148Y024138D01*
X016082Y024156D01*
X016015Y024171D01*
X015947Y024182D01*
X015878Y024189D01*
X015810Y024192D01*
X015741Y024191D01*
X015672Y024186D01*
X015604Y024178D01*
X015536Y024165D01*
X015470Y024149D01*
X015404Y024129D01*
X015339Y024105D01*
X015276Y024078D01*
X015215Y024047D01*
X015155Y024013D01*
X015097Y023975D01*
X015042Y023934D01*
X014989Y023890D01*
X014939Y023843D01*
X014891Y023794D01*
X014846Y023742D01*
X014804Y023687D01*
X014766Y023630D01*
X014731Y023571D01*
X014699Y023510D01*
X014670Y023447D01*
X014646Y023383D01*
X014624Y023317D01*
X014607Y023251D01*
X014594Y023183D01*
X014584Y023115D01*
X014578Y023047D01*
X014576Y022978D01*
X014578Y022909D01*
X014584Y022841D01*
X014594Y022773D01*
X014607Y022705D01*
X014624Y022639D01*
X014646Y022573D01*
X014670Y022509D01*
X014699Y022446D01*
X014731Y022385D01*
X014766Y022326D01*
X014804Y022269D01*
X014846Y022214D01*
X014891Y022162D01*
X014939Y022113D01*
X014989Y022066D01*
X015042Y022022D01*
X015097Y021981D01*
X015155Y021943D01*
X015215Y021909D01*
X015276Y021878D01*
X015339Y021851D01*
X015404Y021827D01*
X015470Y021807D01*
X015536Y021791D01*
X015604Y021778D01*
X015672Y021770D01*
X015741Y021765D01*
X015810Y021764D01*
X015878Y021767D01*
X015947Y021774D01*
X016015Y021785D01*
X016082Y021800D01*
X016148Y021818D01*
X016214Y021840D01*
X016277Y021866D01*
X016340Y021895D01*
X016400Y021928D01*
X016458Y021965D01*
X016515Y022004D01*
X016569Y022047D01*
X016620Y022092D01*
X016669Y022141D01*
X016715Y022192D01*
X016758Y022246D01*
X019855Y015427D02*
X019909Y015355D01*
X019908Y015356D02*
X019855Y015313D01*
X019804Y015268D01*
X019756Y015219D01*
X019711Y015168D01*
X019668Y015114D01*
X019629Y015058D01*
X019593Y015000D01*
X019560Y014940D01*
X019531Y014879D01*
X019506Y014815D01*
X019484Y014751D01*
X019465Y014685D01*
X019451Y014618D01*
X019440Y014551D01*
X019433Y014483D01*
X019430Y014415D01*
X019431Y014346D01*
X019436Y014278D01*
X019444Y014210D01*
X019457Y014143D01*
X019473Y014077D01*
X019493Y014012D01*
X019516Y013947D01*
X019543Y013885D01*
X019574Y013824D01*
X019608Y013765D01*
X019645Y013707D01*
X019686Y013652D01*
X019730Y013600D01*
X019776Y013550D01*
X019825Y013503D01*
X019877Y013458D01*
X019931Y013417D01*
X019988Y013378D01*
X020047Y013343D01*
X020107Y013312D01*
X020169Y013284D01*
X020233Y013259D01*
X020298Y013238D01*
X020364Y013221D01*
X020431Y013207D01*
X020499Y013198D01*
X020567Y013192D01*
X020635Y013190D01*
X020703Y013192D01*
X020771Y013198D01*
X020839Y013207D01*
X020906Y013221D01*
X020972Y013238D01*
X021037Y013259D01*
X021101Y013284D01*
X021163Y013312D01*
X021223Y013343D01*
X021282Y013378D01*
X021339Y013417D01*
X021393Y013458D01*
X021445Y013503D01*
X021494Y013550D01*
X021540Y013600D01*
X021584Y013652D01*
X021625Y013707D01*
X021662Y013765D01*
X021696Y013824D01*
X021727Y013885D01*
X021754Y013947D01*
X021777Y014012D01*
X021797Y014077D01*
X021813Y014143D01*
X021826Y014210D01*
X021834Y014278D01*
X021839Y014346D01*
X021840Y014415D01*
X021837Y014483D01*
X021830Y014551D01*
X021819Y014618D01*
X021805Y014685D01*
X021786Y014751D01*
X021764Y014815D01*
X021739Y014879D01*
X021710Y014940D01*
X021677Y015000D01*
X021641Y015058D01*
X021602Y015114D01*
X021559Y015168D01*
X021514Y015219D01*
X021466Y015268D01*
X021415Y015313D01*
X021362Y015356D01*
X021415Y015427D01*
X021416Y015428D01*
X021471Y015384D01*
X021524Y015336D01*
X021575Y015286D01*
X021622Y015233D01*
X021666Y015178D01*
X021708Y015120D01*
X021746Y015060D01*
X021781Y014999D01*
X021812Y014935D01*
X021840Y014870D01*
X021864Y014803D01*
X021885Y014735D01*
X021901Y014666D01*
X021914Y014596D01*
X021923Y014526D01*
X021929Y014455D01*
X021930Y014384D01*
X021927Y014313D01*
X021921Y014242D01*
X021911Y014172D01*
X021897Y014103D01*
X021879Y014034D01*
X021857Y013966D01*
X021832Y013900D01*
X021803Y013835D01*
X021770Y013772D01*
X021734Y013711D01*
X021695Y013652D01*
X021653Y013595D01*
X021608Y013540D01*
X021559Y013488D01*
X021508Y013439D01*
X021455Y013392D01*
X021398Y013349D01*
X021340Y013309D01*
X021279Y013272D01*
X021217Y013238D01*
X021153Y013208D01*
X021087Y013181D01*
X021020Y013158D01*
X020951Y013139D01*
X020882Y013124D01*
X020812Y013112D01*
X020741Y013104D01*
X020670Y013100D01*
X020600Y013100D01*
X020529Y013104D01*
X020458Y013112D01*
X020388Y013124D01*
X020319Y013139D01*
X020250Y013158D01*
X020183Y013181D01*
X020117Y013208D01*
X020053Y013238D01*
X019991Y013272D01*
X019930Y013309D01*
X019872Y013349D01*
X019815Y013392D01*
X019762Y013439D01*
X019711Y013488D01*
X019662Y013540D01*
X019617Y013595D01*
X019575Y013652D01*
X019536Y013711D01*
X019500Y013772D01*
X019467Y013835D01*
X019438Y013900D01*
X019413Y013966D01*
X019391Y014034D01*
X019373Y014103D01*
X019359Y014172D01*
X019349Y014242D01*
X019343Y014313D01*
X019340Y014384D01*
X019341Y014455D01*
X019347Y014526D01*
X019356Y014596D01*
X019369Y014666D01*
X019385Y014735D01*
X019406Y014803D01*
X019430Y014870D01*
X019458Y014935D01*
X019489Y014999D01*
X019524Y015060D01*
X019562Y015120D01*
X019604Y015178D01*
X019648Y015233D01*
X019695Y015286D01*
X019746Y015336D01*
X019799Y015384D01*
X019854Y015428D01*
X019859Y015421D01*
X019804Y015376D01*
X019751Y015329D01*
X019700Y015278D01*
X019653Y015225D01*
X019608Y015169D01*
X019567Y015111D01*
X019529Y015051D01*
X019494Y014989D01*
X019463Y014925D01*
X019436Y014859D01*
X019412Y014792D01*
X019392Y014723D01*
X019375Y014654D01*
X019363Y014584D01*
X019354Y014513D01*
X019350Y014442D01*
X019349Y014371D01*
X019353Y014300D01*
X019360Y014229D01*
X019371Y014158D01*
X019386Y014089D01*
X019405Y014020D01*
X019428Y013952D01*
X019454Y013886D01*
X019484Y013821D01*
X019518Y013759D01*
X019554Y013698D01*
X019595Y013639D01*
X019638Y013582D01*
X019685Y013528D01*
X019734Y013477D01*
X019787Y013429D01*
X019841Y013383D01*
X019899Y013341D01*
X019958Y013302D01*
X020020Y013266D01*
X020083Y013233D01*
X020148Y013205D01*
X020215Y013179D01*
X020283Y013158D01*
X020352Y013140D01*
X020422Y013127D01*
X020493Y013117D01*
X020564Y013111D01*
X020635Y013109D01*
X020706Y013111D01*
X020777Y013117D01*
X020848Y013127D01*
X020918Y013140D01*
X020987Y013158D01*
X021055Y013179D01*
X021122Y013205D01*
X021187Y013233D01*
X021250Y013266D01*
X021312Y013302D01*
X021371Y013341D01*
X021429Y013383D01*
X021483Y013429D01*
X021536Y013477D01*
X021585Y013528D01*
X021632Y013582D01*
X021675Y013639D01*
X021716Y013698D01*
X021752Y013759D01*
X021786Y013821D01*
X021816Y013886D01*
X021842Y013952D01*
X021865Y014020D01*
X021884Y014089D01*
X021899Y014158D01*
X021910Y014229D01*
X021917Y014300D01*
X021921Y014371D01*
X021920Y014442D01*
X021916Y014513D01*
X021907Y014584D01*
X021895Y014654D01*
X021878Y014723D01*
X021858Y014792D01*
X021834Y014859D01*
X021807Y014925D01*
X021776Y014989D01*
X021741Y015051D01*
X021703Y015111D01*
X021662Y015169D01*
X021617Y015225D01*
X021570Y015278D01*
X021519Y015329D01*
X021466Y015376D01*
X021411Y015421D01*
X021405Y015414D01*
X021460Y015369D01*
X021513Y015322D01*
X021563Y015272D01*
X021610Y015219D01*
X021654Y015164D01*
X021696Y015106D01*
X021733Y015047D01*
X021768Y014985D01*
X021799Y014921D01*
X021826Y014856D01*
X021850Y014789D01*
X021870Y014721D01*
X021886Y014652D01*
X021898Y014583D01*
X021907Y014512D01*
X021911Y014442D01*
X021912Y014371D01*
X021908Y014300D01*
X021901Y014230D01*
X021890Y014160D01*
X021875Y014091D01*
X021856Y014023D01*
X021834Y013955D01*
X021808Y013890D01*
X021778Y013825D01*
X021745Y013763D01*
X021708Y013703D01*
X021668Y013644D01*
X021625Y013588D01*
X021579Y013534D01*
X021529Y013484D01*
X021478Y013435D01*
X021423Y013390D01*
X021366Y013348D01*
X021307Y013309D01*
X021246Y013274D01*
X021183Y013241D01*
X021118Y013213D01*
X021052Y013188D01*
X020984Y013167D01*
X020916Y013149D01*
X020846Y013136D01*
X020776Y013126D01*
X020706Y013120D01*
X020635Y013118D01*
X020564Y013120D01*
X020494Y013126D01*
X020424Y013136D01*
X020354Y013149D01*
X020286Y013167D01*
X020218Y013188D01*
X020152Y013213D01*
X020087Y013241D01*
X020024Y013274D01*
X019963Y013309D01*
X019904Y013348D01*
X019847Y013390D01*
X019792Y013435D01*
X019741Y013484D01*
X019691Y013534D01*
X019645Y013588D01*
X019602Y013644D01*
X019562Y013703D01*
X019525Y013763D01*
X019492Y013825D01*
X019462Y013890D01*
X019436Y013955D01*
X019414Y014023D01*
X019395Y014091D01*
X019380Y014160D01*
X019369Y014230D01*
X019362Y014300D01*
X019358Y014371D01*
X019359Y014442D01*
X019363Y014512D01*
X019372Y014583D01*
X019384Y014652D01*
X019400Y014721D01*
X019420Y014789D01*
X019444Y014856D01*
X019471Y014921D01*
X019502Y014985D01*
X019537Y015047D01*
X019574Y015106D01*
X019616Y015164D01*
X019660Y015219D01*
X019707Y015272D01*
X019757Y015322D01*
X019810Y015369D01*
X019865Y015414D01*
X019870Y015406D01*
X019815Y015362D01*
X019762Y015314D01*
X019712Y015264D01*
X019664Y015211D01*
X019620Y015155D01*
X019579Y015097D01*
X019542Y015037D01*
X019507Y014975D01*
X019477Y014911D01*
X019450Y014845D01*
X019426Y014778D01*
X019407Y014710D01*
X019391Y014640D01*
X019379Y014570D01*
X019371Y014500D01*
X019367Y014429D01*
X019368Y014358D01*
X019372Y014287D01*
X019380Y014216D01*
X019392Y014146D01*
X019408Y014077D01*
X019427Y014009D01*
X019451Y013941D01*
X019478Y013876D01*
X019509Y013812D01*
X019543Y013750D01*
X019581Y013690D01*
X019623Y013632D01*
X019667Y013576D01*
X019714Y013523D01*
X019765Y013473D01*
X019818Y013426D01*
X019873Y013381D01*
X019931Y013340D01*
X019991Y013303D01*
X020054Y013268D01*
X020118Y013237D01*
X020183Y013210D01*
X020250Y013187D01*
X020319Y013167D01*
X020388Y013151D01*
X020458Y013139D01*
X020529Y013131D01*
X020599Y013127D01*
X020671Y013127D01*
X020741Y013131D01*
X020812Y013139D01*
X020882Y013151D01*
X020951Y013167D01*
X021020Y013187D01*
X021087Y013210D01*
X021152Y013237D01*
X021216Y013268D01*
X021279Y013303D01*
X021339Y013340D01*
X021397Y013381D01*
X021452Y013426D01*
X021505Y013473D01*
X021556Y013523D01*
X021603Y013576D01*
X021647Y013632D01*
X021689Y013690D01*
X021727Y013750D01*
X021761Y013812D01*
X021792Y013876D01*
X021819Y013941D01*
X021843Y014009D01*
X021862Y014077D01*
X021878Y014146D01*
X021890Y014216D01*
X021898Y014287D01*
X021902Y014358D01*
X021903Y014429D01*
X021899Y014500D01*
X021891Y014570D01*
X021879Y014640D01*
X021863Y014710D01*
X021844Y014778D01*
X021820Y014845D01*
X021793Y014911D01*
X021763Y014975D01*
X021728Y015037D01*
X021691Y015097D01*
X021650Y015155D01*
X021606Y015211D01*
X021558Y015264D01*
X021508Y015314D01*
X021455Y015362D01*
X021400Y015406D01*
X021394Y015399D01*
X021449Y015355D01*
X021502Y015308D01*
X021552Y015258D01*
X021599Y015205D01*
X021643Y015150D01*
X021683Y015092D01*
X021721Y015033D01*
X021755Y014971D01*
X021785Y014907D01*
X021812Y014842D01*
X021835Y014775D01*
X021855Y014707D01*
X021870Y014639D01*
X021882Y014569D01*
X021890Y014499D01*
X021894Y014428D01*
X021893Y014358D01*
X021889Y014287D01*
X021881Y014217D01*
X021869Y014148D01*
X021854Y014079D01*
X021834Y014011D01*
X021811Y013945D01*
X021784Y013880D01*
X021753Y013816D01*
X021719Y013754D01*
X021681Y013695D01*
X021640Y013637D01*
X021596Y013582D01*
X021549Y013529D01*
X021499Y013480D01*
X021447Y013433D01*
X021391Y013389D01*
X021334Y013348D01*
X021274Y013310D01*
X021212Y013276D01*
X021149Y013246D01*
X021084Y013219D01*
X021017Y013195D01*
X020949Y013176D01*
X020880Y013160D01*
X020811Y013148D01*
X020741Y013140D01*
X020670Y013136D01*
X020600Y013136D01*
X020529Y013140D01*
X020459Y013148D01*
X020390Y013160D01*
X020321Y013176D01*
X020253Y013195D01*
X020186Y013219D01*
X020121Y013246D01*
X020058Y013276D01*
X019996Y013310D01*
X019936Y013348D01*
X019879Y013389D01*
X019823Y013433D01*
X019771Y013480D01*
X019721Y013529D01*
X019674Y013582D01*
X019630Y013637D01*
X019589Y013695D01*
X019551Y013754D01*
X019517Y013816D01*
X019486Y013880D01*
X019459Y013945D01*
X019436Y014011D01*
X019416Y014079D01*
X019401Y014148D01*
X019389Y014217D01*
X019381Y014287D01*
X019377Y014358D01*
X019376Y014428D01*
X019380Y014499D01*
X019388Y014569D01*
X019400Y014639D01*
X019415Y014707D01*
X019435Y014775D01*
X019458Y014842D01*
X019485Y014907D01*
X019515Y014971D01*
X019549Y015033D01*
X019587Y015092D01*
X019627Y015150D01*
X019671Y015205D01*
X019718Y015258D01*
X019768Y015308D01*
X019821Y015355D01*
X019876Y015399D01*
X019881Y015392D01*
X019826Y015348D01*
X019774Y015301D01*
X019725Y015252D01*
X019678Y015199D01*
X019635Y015145D01*
X019594Y015087D01*
X019557Y015028D01*
X019523Y014967D01*
X019493Y014903D01*
X019466Y014839D01*
X019443Y014772D01*
X019424Y014705D01*
X019409Y014637D01*
X019397Y014568D01*
X019389Y014498D01*
X019385Y014428D01*
X019386Y014358D01*
X019390Y014288D01*
X019398Y014219D01*
X019409Y014150D01*
X019425Y014081D01*
X019444Y014014D01*
X019468Y013948D01*
X019495Y013883D01*
X019525Y013820D01*
X019559Y013759D01*
X019596Y013700D01*
X019637Y013642D01*
X019681Y013588D01*
X019727Y013536D01*
X019777Y013486D01*
X019829Y013439D01*
X019884Y013396D01*
X019941Y013355D01*
X020000Y013318D01*
X020062Y013284D01*
X020125Y013254D01*
X020190Y013227D01*
X020256Y013204D01*
X020323Y013185D01*
X020391Y013169D01*
X020460Y013157D01*
X020530Y013149D01*
X020600Y013145D01*
X020670Y013145D01*
X020740Y013149D01*
X020810Y013157D01*
X020879Y013169D01*
X020947Y013185D01*
X021014Y013204D01*
X021080Y013227D01*
X021145Y013254D01*
X021208Y013284D01*
X021270Y013318D01*
X021329Y013355D01*
X021386Y013396D01*
X021441Y013439D01*
X021493Y013486D01*
X021543Y013536D01*
X021589Y013588D01*
X021633Y013642D01*
X021674Y013700D01*
X021711Y013759D01*
X021745Y013820D01*
X021775Y013883D01*
X021802Y013948D01*
X021826Y014014D01*
X021845Y014081D01*
X021861Y014150D01*
X021872Y014219D01*
X021880Y014288D01*
X021884Y014358D01*
X021885Y014428D01*
X021881Y014498D01*
X021873Y014568D01*
X021861Y014637D01*
X021846Y014705D01*
X021827Y014772D01*
X021804Y014839D01*
X021777Y014903D01*
X021747Y014967D01*
X021713Y015028D01*
X021676Y015087D01*
X021635Y015145D01*
X021592Y015199D01*
X021545Y015252D01*
X021496Y015301D01*
X021444Y015348D01*
X021389Y015392D01*
X021384Y015385D01*
X021438Y015341D01*
X021490Y015295D01*
X021539Y015246D01*
X021585Y015194D01*
X021628Y015139D01*
X021668Y015082D01*
X021705Y015023D01*
X021739Y014962D01*
X021769Y014900D01*
X021795Y014835D01*
X021818Y014770D01*
X021837Y014703D01*
X021853Y014635D01*
X021864Y014566D01*
X021872Y014497D01*
X021876Y014428D01*
X021875Y014358D01*
X021871Y014289D01*
X021864Y014220D01*
X021852Y014151D01*
X021836Y014084D01*
X021817Y014017D01*
X021794Y013951D01*
X021767Y013887D01*
X021737Y013824D01*
X021703Y013763D01*
X021666Y013705D01*
X021626Y013648D01*
X021583Y013594D01*
X021536Y013542D01*
X021487Y013493D01*
X021435Y013446D01*
X021381Y013403D01*
X021324Y013363D01*
X021265Y013326D01*
X021204Y013292D01*
X021141Y013262D01*
X021077Y013235D01*
X021012Y013212D01*
X020945Y013193D01*
X020877Y013178D01*
X020808Y013166D01*
X020739Y013158D01*
X020670Y013154D01*
X020600Y013154D01*
X020531Y013158D01*
X020462Y013166D01*
X020393Y013178D01*
X020325Y013193D01*
X020258Y013212D01*
X020193Y013235D01*
X020129Y013262D01*
X020066Y013292D01*
X020005Y013326D01*
X019946Y013363D01*
X019889Y013403D01*
X019835Y013446D01*
X019783Y013493D01*
X019734Y013542D01*
X019687Y013594D01*
X019644Y013648D01*
X019604Y013705D01*
X019567Y013763D01*
X019533Y013824D01*
X019503Y013887D01*
X019476Y013951D01*
X019453Y014017D01*
X019434Y014084D01*
X019418Y014151D01*
X019406Y014220D01*
X019399Y014289D01*
X019395Y014358D01*
X019394Y014428D01*
X019398Y014497D01*
X019406Y014566D01*
X019417Y014635D01*
X019433Y014703D01*
X019452Y014770D01*
X019475Y014835D01*
X019501Y014900D01*
X019531Y014962D01*
X019565Y015023D01*
X019602Y015082D01*
X019642Y015139D01*
X019685Y015194D01*
X019731Y015246D01*
X019780Y015295D01*
X019832Y015341D01*
X019886Y015385D01*
X019892Y015378D01*
X019838Y015334D01*
X019787Y015288D01*
X019738Y015239D01*
X019692Y015188D01*
X019649Y015134D01*
X019609Y015077D01*
X019573Y015019D01*
X019539Y014958D01*
X019509Y014896D01*
X019483Y014832D01*
X019461Y014767D01*
X019442Y014701D01*
X019426Y014633D01*
X019415Y014565D01*
X019407Y014497D01*
X019403Y014428D01*
X019404Y014359D01*
X019408Y014290D01*
X019415Y014221D01*
X019427Y014153D01*
X019442Y014086D01*
X019462Y014019D01*
X019485Y013954D01*
X019511Y013891D01*
X019541Y013828D01*
X019574Y013768D01*
X019611Y013710D01*
X019651Y013653D01*
X019694Y013599D01*
X019740Y013548D01*
X019789Y013499D01*
X019841Y013453D01*
X019895Y013410D01*
X019951Y013370D01*
X020010Y013334D01*
X020070Y013300D01*
X020132Y013270D01*
X020196Y013244D01*
X020261Y013221D01*
X020328Y013202D01*
X020395Y013187D01*
X020463Y013175D01*
X020532Y013167D01*
X020600Y013163D01*
X020670Y013163D01*
X020738Y013167D01*
X020807Y013175D01*
X020875Y013187D01*
X020942Y013202D01*
X021009Y013221D01*
X021074Y013244D01*
X021138Y013270D01*
X021200Y013300D01*
X021260Y013334D01*
X021319Y013370D01*
X021375Y013410D01*
X021429Y013453D01*
X021481Y013499D01*
X021530Y013548D01*
X021576Y013599D01*
X021619Y013653D01*
X021659Y013710D01*
X021696Y013768D01*
X021729Y013828D01*
X021759Y013891D01*
X021785Y013954D01*
X021808Y014019D01*
X021828Y014086D01*
X021843Y014153D01*
X021855Y014221D01*
X021862Y014290D01*
X021866Y014359D01*
X021867Y014428D01*
X021863Y014497D01*
X021855Y014565D01*
X021844Y014633D01*
X021828Y014701D01*
X021809Y014767D01*
X021787Y014832D01*
X021761Y014896D01*
X021731Y014958D01*
X021697Y015019D01*
X021661Y015077D01*
X021621Y015134D01*
X021578Y015188D01*
X021532Y015239D01*
X021483Y015288D01*
X021432Y015334D01*
X021378Y015378D01*
X021373Y015370D01*
X021427Y015327D01*
X021478Y015281D01*
X021527Y015231D01*
X021573Y015180D01*
X021616Y015125D01*
X021656Y015068D01*
X021692Y015010D01*
X021726Y014949D01*
X021755Y014886D01*
X021781Y014822D01*
X021803Y014756D01*
X021822Y014689D01*
X021837Y014622D01*
X021848Y014553D01*
X021855Y014484D01*
X021858Y014415D01*
X021857Y014346D01*
X021852Y014276D01*
X021844Y014208D01*
X021831Y014140D01*
X021815Y014072D01*
X021794Y014006D01*
X021771Y013941D01*
X021743Y013877D01*
X021712Y013815D01*
X021677Y013755D01*
X021639Y013697D01*
X021598Y013641D01*
X021554Y013588D01*
X021507Y013537D01*
X021457Y013489D01*
X021404Y013444D01*
X021349Y013402D01*
X021292Y013363D01*
X021232Y013328D01*
X021171Y013296D01*
X021108Y013267D01*
X021043Y013242D01*
X020977Y013221D01*
X020910Y013203D01*
X020842Y013190D01*
X020773Y013180D01*
X020704Y013174D01*
X020635Y013172D01*
X020566Y013174D01*
X020497Y013180D01*
X020428Y013190D01*
X020360Y013203D01*
X020293Y013221D01*
X020227Y013242D01*
X020162Y013267D01*
X020099Y013296D01*
X020038Y013328D01*
X019978Y013363D01*
X019921Y013402D01*
X019866Y013444D01*
X019813Y013489D01*
X019763Y013537D01*
X019716Y013588D01*
X019672Y013641D01*
X019631Y013697D01*
X019593Y013755D01*
X019558Y013815D01*
X019527Y013877D01*
X019499Y013941D01*
X019476Y014006D01*
X019455Y014072D01*
X019439Y014140D01*
X019426Y014208D01*
X019418Y014276D01*
X019413Y014346D01*
X019412Y014415D01*
X019415Y014484D01*
X019422Y014553D01*
X019433Y014622D01*
X019448Y014689D01*
X019467Y014756D01*
X019489Y014822D01*
X019515Y014886D01*
X019544Y014949D01*
X019578Y015010D01*
X019614Y015068D01*
X019654Y015125D01*
X019697Y015180D01*
X019743Y015231D01*
X019792Y015281D01*
X019843Y015327D01*
X019897Y015370D01*
X019903Y015363D01*
X019849Y015320D01*
X019798Y015274D01*
X019749Y015225D01*
X019704Y015174D01*
X019661Y015120D01*
X019622Y015063D01*
X019585Y015005D01*
X019552Y014945D01*
X019523Y014882D01*
X019497Y014819D01*
X019475Y014753D01*
X019457Y014687D01*
X019442Y014620D01*
X019431Y014552D01*
X019424Y014483D01*
X019421Y014415D01*
X019422Y014346D01*
X019427Y014277D01*
X019435Y014209D01*
X019448Y014141D01*
X019464Y014075D01*
X019484Y014009D01*
X019508Y013944D01*
X019535Y013881D01*
X019566Y013820D01*
X019600Y013760D01*
X019638Y013702D01*
X019679Y013647D01*
X019723Y013594D01*
X019770Y013544D01*
X019819Y013496D01*
X019871Y013451D01*
X019926Y013409D01*
X019983Y013371D01*
X020042Y013336D01*
X020103Y013304D01*
X020166Y013275D01*
X020230Y013251D01*
X020296Y013229D01*
X020362Y013212D01*
X020430Y013199D01*
X020498Y013189D01*
X020566Y013183D01*
X020635Y013181D01*
X020704Y013183D01*
X020772Y013189D01*
X020840Y013199D01*
X020908Y013212D01*
X020974Y013229D01*
X021040Y013251D01*
X021104Y013275D01*
X021167Y013304D01*
X021228Y013336D01*
X021287Y013371D01*
X021344Y013409D01*
X021399Y013451D01*
X021451Y013496D01*
X021500Y013544D01*
X021547Y013594D01*
X021591Y013647D01*
X021632Y013702D01*
X021670Y013760D01*
X021704Y013820D01*
X021735Y013881D01*
X021762Y013944D01*
X021786Y014009D01*
X021806Y014075D01*
X021822Y014141D01*
X021835Y014209D01*
X021843Y014277D01*
X021848Y014346D01*
X021849Y014415D01*
X021846Y014483D01*
X021839Y014552D01*
X021828Y014620D01*
X021813Y014687D01*
X021795Y014753D01*
X021773Y014819D01*
X021747Y014882D01*
X021718Y014945D01*
X021685Y015005D01*
X021648Y015063D01*
X021609Y015120D01*
X021566Y015174D01*
X021521Y015225D01*
X021472Y015274D01*
X021421Y015320D01*
X021367Y015363D01*
X021776Y012313D02*
X021704Y012259D01*
X021705Y012260D02*
X021662Y012313D01*
X021617Y012364D01*
X021568Y012412D01*
X021517Y012457D01*
X021463Y012500D01*
X021407Y012539D01*
X021349Y012575D01*
X021289Y012608D01*
X021228Y012637D01*
X021164Y012662D01*
X021100Y012684D01*
X021034Y012703D01*
X020967Y012717D01*
X020900Y012728D01*
X020832Y012735D01*
X020764Y012738D01*
X020695Y012737D01*
X020627Y012732D01*
X020559Y012724D01*
X020492Y012711D01*
X020426Y012695D01*
X020361Y012675D01*
X020296Y012652D01*
X020234Y012625D01*
X020173Y012594D01*
X020114Y012560D01*
X020056Y012523D01*
X020001Y012482D01*
X019949Y012438D01*
X019899Y012392D01*
X019852Y012343D01*
X019807Y012291D01*
X019766Y012237D01*
X019727Y012180D01*
X019692Y012121D01*
X019661Y012061D01*
X019633Y011999D01*
X019608Y011935D01*
X019587Y011870D01*
X019570Y011804D01*
X019556Y011737D01*
X019547Y011669D01*
X019541Y011601D01*
X019539Y011533D01*
X019541Y011465D01*
X019547Y011397D01*
X019556Y011329D01*
X019570Y011262D01*
X019587Y011196D01*
X019608Y011131D01*
X019633Y011067D01*
X019661Y011005D01*
X019692Y010945D01*
X019727Y010886D01*
X019766Y010829D01*
X019807Y010775D01*
X019852Y010723D01*
X019899Y010674D01*
X019949Y010628D01*
X020001Y010584D01*
X020056Y010543D01*
X020114Y010506D01*
X020173Y010472D01*
X020234Y010441D01*
X020296Y010414D01*
X020361Y010391D01*
X020426Y010371D01*
X020492Y010355D01*
X020559Y010342D01*
X020627Y010334D01*
X020695Y010329D01*
X020764Y010328D01*
X020832Y010331D01*
X020900Y010338D01*
X020967Y010349D01*
X021034Y010363D01*
X021100Y010382D01*
X021164Y010404D01*
X021228Y010429D01*
X021289Y010458D01*
X021349Y010491D01*
X021407Y010527D01*
X021463Y010566D01*
X021517Y010609D01*
X021568Y010654D01*
X021617Y010702D01*
X021662Y010753D01*
X021705Y010806D01*
X021776Y010753D01*
X021777Y010752D01*
X021733Y010697D01*
X021685Y010644D01*
X021635Y010593D01*
X021582Y010546D01*
X021527Y010502D01*
X021469Y010460D01*
X021409Y010422D01*
X021348Y010387D01*
X021284Y010356D01*
X021219Y010328D01*
X021152Y010304D01*
X021084Y010283D01*
X021015Y010267D01*
X020945Y010254D01*
X020875Y010245D01*
X020804Y010239D01*
X020733Y010238D01*
X020662Y010241D01*
X020591Y010247D01*
X020521Y010257D01*
X020452Y010271D01*
X020383Y010289D01*
X020315Y010311D01*
X020249Y010336D01*
X020184Y010365D01*
X020121Y010398D01*
X020060Y010434D01*
X020001Y010473D01*
X019944Y010515D01*
X019889Y010560D01*
X019837Y010609D01*
X019788Y010660D01*
X019741Y010713D01*
X019698Y010770D01*
X019658Y010828D01*
X019621Y010889D01*
X019587Y010951D01*
X019557Y011015D01*
X019530Y011081D01*
X019507Y011148D01*
X019488Y011217D01*
X019473Y011286D01*
X019461Y011356D01*
X019453Y011427D01*
X019449Y011498D01*
X019449Y011568D01*
X019453Y011639D01*
X019461Y011710D01*
X019473Y011780D01*
X019488Y011849D01*
X019507Y011918D01*
X019530Y011985D01*
X019557Y012051D01*
X019587Y012115D01*
X019621Y012177D01*
X019658Y012238D01*
X019698Y012296D01*
X019741Y012353D01*
X019788Y012406D01*
X019837Y012457D01*
X019889Y012506D01*
X019944Y012551D01*
X020001Y012593D01*
X020060Y012632D01*
X020121Y012668D01*
X020184Y012701D01*
X020249Y012730D01*
X020315Y012755D01*
X020383Y012777D01*
X020452Y012795D01*
X020521Y012809D01*
X020591Y012819D01*
X020662Y012825D01*
X020733Y012828D01*
X020804Y012827D01*
X020875Y012821D01*
X020945Y012812D01*
X021015Y012799D01*
X021084Y012783D01*
X021152Y012762D01*
X021219Y012738D01*
X021284Y012710D01*
X021348Y012679D01*
X021409Y012644D01*
X021469Y012606D01*
X021527Y012564D01*
X021582Y012520D01*
X021635Y012473D01*
X021685Y012422D01*
X021733Y012369D01*
X021777Y012314D01*
X021770Y012309D01*
X021725Y012364D01*
X021678Y012417D01*
X021627Y012468D01*
X021574Y012515D01*
X021518Y012560D01*
X021460Y012601D01*
X021400Y012639D01*
X021338Y012674D01*
X021274Y012705D01*
X021208Y012732D01*
X021141Y012756D01*
X021072Y012776D01*
X021003Y012793D01*
X020933Y012805D01*
X020862Y012814D01*
X020791Y012818D01*
X020720Y012819D01*
X020649Y012815D01*
X020578Y012808D01*
X020507Y012797D01*
X020438Y012782D01*
X020369Y012763D01*
X020301Y012740D01*
X020235Y012714D01*
X020170Y012684D01*
X020108Y012650D01*
X020047Y012614D01*
X019988Y012573D01*
X019931Y012530D01*
X019877Y012483D01*
X019826Y012434D01*
X019778Y012381D01*
X019732Y012327D01*
X019690Y012269D01*
X019651Y012210D01*
X019615Y012148D01*
X019582Y012085D01*
X019554Y012020D01*
X019528Y011953D01*
X019507Y011885D01*
X019489Y011816D01*
X019476Y011746D01*
X019466Y011675D01*
X019460Y011604D01*
X019458Y011533D01*
X019460Y011462D01*
X019466Y011391D01*
X019476Y011320D01*
X019489Y011250D01*
X019507Y011181D01*
X019528Y011113D01*
X019554Y011046D01*
X019582Y010981D01*
X019615Y010918D01*
X019651Y010856D01*
X019690Y010797D01*
X019732Y010739D01*
X019778Y010685D01*
X019826Y010632D01*
X019877Y010583D01*
X019931Y010536D01*
X019988Y010493D01*
X020047Y010452D01*
X020108Y010416D01*
X020170Y010382D01*
X020235Y010352D01*
X020301Y010326D01*
X020369Y010303D01*
X020438Y010284D01*
X020507Y010269D01*
X020578Y010258D01*
X020649Y010251D01*
X020720Y010247D01*
X020791Y010248D01*
X020862Y010252D01*
X020933Y010261D01*
X021003Y010273D01*
X021072Y010290D01*
X021141Y010310D01*
X021208Y010334D01*
X021274Y010361D01*
X021338Y010392D01*
X021400Y010427D01*
X021460Y010465D01*
X021518Y010506D01*
X021574Y010551D01*
X021627Y010598D01*
X021678Y010649D01*
X021725Y010702D01*
X021770Y010757D01*
X021763Y010763D01*
X021718Y010708D01*
X021671Y010655D01*
X021621Y010605D01*
X021568Y010558D01*
X021513Y010514D01*
X021455Y010472D01*
X021396Y010435D01*
X021334Y010400D01*
X021270Y010369D01*
X021205Y010342D01*
X021138Y010318D01*
X021070Y010298D01*
X021001Y010282D01*
X020932Y010270D01*
X020861Y010261D01*
X020791Y010257D01*
X020720Y010256D01*
X020649Y010260D01*
X020579Y010267D01*
X020509Y010278D01*
X020440Y010293D01*
X020372Y010312D01*
X020304Y010334D01*
X020239Y010360D01*
X020174Y010390D01*
X020112Y010423D01*
X020052Y010460D01*
X019993Y010500D01*
X019937Y010543D01*
X019883Y010589D01*
X019833Y010639D01*
X019784Y010690D01*
X019739Y010745D01*
X019697Y010802D01*
X019658Y010861D01*
X019623Y010922D01*
X019590Y010985D01*
X019562Y011050D01*
X019537Y011116D01*
X019516Y011184D01*
X019498Y011252D01*
X019485Y011322D01*
X019475Y011392D01*
X019469Y011462D01*
X019467Y011533D01*
X019469Y011604D01*
X019475Y011674D01*
X019485Y011744D01*
X019498Y011814D01*
X019516Y011882D01*
X019537Y011950D01*
X019562Y012016D01*
X019590Y012081D01*
X019623Y012144D01*
X019658Y012205D01*
X019697Y012264D01*
X019739Y012321D01*
X019784Y012376D01*
X019833Y012427D01*
X019883Y012477D01*
X019937Y012523D01*
X019993Y012566D01*
X020052Y012606D01*
X020112Y012643D01*
X020174Y012676D01*
X020239Y012706D01*
X020304Y012732D01*
X020372Y012754D01*
X020440Y012773D01*
X020509Y012788D01*
X020579Y012799D01*
X020649Y012806D01*
X020720Y012810D01*
X020791Y012809D01*
X020861Y012805D01*
X020932Y012796D01*
X021001Y012784D01*
X021070Y012768D01*
X021138Y012748D01*
X021205Y012724D01*
X021270Y012697D01*
X021334Y012666D01*
X021396Y012631D01*
X021455Y012594D01*
X021513Y012552D01*
X021568Y012508D01*
X021621Y012461D01*
X021671Y012411D01*
X021718Y012358D01*
X021763Y012303D01*
X021755Y012298D01*
X021711Y012353D01*
X021663Y012406D01*
X021613Y012456D01*
X021560Y012504D01*
X021504Y012548D01*
X021446Y012589D01*
X021386Y012626D01*
X021324Y012661D01*
X021260Y012691D01*
X021194Y012718D01*
X021127Y012742D01*
X021059Y012761D01*
X020989Y012777D01*
X020919Y012789D01*
X020849Y012797D01*
X020778Y012801D01*
X020707Y012800D01*
X020636Y012796D01*
X020565Y012788D01*
X020495Y012776D01*
X020426Y012760D01*
X020358Y012741D01*
X020290Y012717D01*
X020225Y012690D01*
X020161Y012659D01*
X020099Y012625D01*
X020039Y012587D01*
X019981Y012545D01*
X019925Y012501D01*
X019872Y012454D01*
X019822Y012403D01*
X019775Y012350D01*
X019730Y012295D01*
X019689Y012237D01*
X019652Y012177D01*
X019617Y012114D01*
X019586Y012050D01*
X019559Y011985D01*
X019536Y011918D01*
X019516Y011849D01*
X019500Y011780D01*
X019488Y011710D01*
X019480Y011639D01*
X019476Y011569D01*
X019476Y011497D01*
X019480Y011427D01*
X019488Y011356D01*
X019500Y011286D01*
X019516Y011217D01*
X019536Y011148D01*
X019559Y011081D01*
X019586Y011016D01*
X019617Y010952D01*
X019652Y010889D01*
X019689Y010829D01*
X019730Y010771D01*
X019775Y010716D01*
X019822Y010663D01*
X019872Y010612D01*
X019925Y010565D01*
X019981Y010521D01*
X020039Y010479D01*
X020099Y010441D01*
X020161Y010407D01*
X020225Y010376D01*
X020290Y010349D01*
X020358Y010325D01*
X020426Y010306D01*
X020495Y010290D01*
X020565Y010278D01*
X020636Y010270D01*
X020707Y010266D01*
X020778Y010265D01*
X020849Y010269D01*
X020919Y010277D01*
X020989Y010289D01*
X021059Y010305D01*
X021127Y010324D01*
X021194Y010348D01*
X021260Y010375D01*
X021324Y010405D01*
X021386Y010440D01*
X021446Y010477D01*
X021504Y010518D01*
X021560Y010562D01*
X021613Y010610D01*
X021663Y010660D01*
X021711Y010713D01*
X021755Y010768D01*
X021748Y010774D01*
X021704Y010719D01*
X021657Y010666D01*
X021607Y010616D01*
X021554Y010569D01*
X021499Y010525D01*
X021441Y010485D01*
X021382Y010447D01*
X021320Y010413D01*
X021256Y010383D01*
X021191Y010356D01*
X021124Y010333D01*
X021056Y010313D01*
X020988Y010298D01*
X020918Y010286D01*
X020848Y010278D01*
X020777Y010274D01*
X020707Y010275D01*
X020636Y010279D01*
X020566Y010287D01*
X020497Y010299D01*
X020428Y010314D01*
X020360Y010334D01*
X020294Y010357D01*
X020229Y010384D01*
X020165Y010415D01*
X020103Y010449D01*
X020044Y010487D01*
X019986Y010528D01*
X019931Y010572D01*
X019878Y010619D01*
X019829Y010669D01*
X019782Y010721D01*
X019738Y010777D01*
X019697Y010834D01*
X019659Y010894D01*
X019625Y010956D01*
X019595Y011019D01*
X019568Y011084D01*
X019544Y011151D01*
X019525Y011219D01*
X019509Y011288D01*
X019497Y011357D01*
X019489Y011427D01*
X019485Y011498D01*
X019485Y011568D01*
X019489Y011639D01*
X019497Y011709D01*
X019509Y011778D01*
X019525Y011847D01*
X019544Y011915D01*
X019568Y011982D01*
X019595Y012047D01*
X019625Y012110D01*
X019659Y012172D01*
X019697Y012232D01*
X019738Y012289D01*
X019782Y012345D01*
X019829Y012397D01*
X019878Y012447D01*
X019931Y012494D01*
X019986Y012538D01*
X020044Y012579D01*
X020103Y012617D01*
X020165Y012651D01*
X020229Y012682D01*
X020294Y012709D01*
X020360Y012732D01*
X020428Y012752D01*
X020497Y012767D01*
X020566Y012779D01*
X020636Y012787D01*
X020707Y012791D01*
X020777Y012792D01*
X020848Y012788D01*
X020918Y012780D01*
X020988Y012768D01*
X021056Y012753D01*
X021124Y012733D01*
X021191Y012710D01*
X021256Y012683D01*
X021320Y012653D01*
X021382Y012619D01*
X021441Y012581D01*
X021499Y012541D01*
X021554Y012497D01*
X021607Y012450D01*
X021657Y012400D01*
X021704Y012347D01*
X021748Y012292D01*
X021741Y012287D01*
X021697Y012342D01*
X021650Y012394D01*
X021601Y012443D01*
X021548Y012490D01*
X021494Y012533D01*
X021436Y012574D01*
X021377Y012611D01*
X021316Y012645D01*
X021252Y012675D01*
X021188Y012702D01*
X021121Y012725D01*
X021054Y012744D01*
X020986Y012759D01*
X020917Y012771D01*
X020847Y012779D01*
X020777Y012783D01*
X020707Y012782D01*
X020637Y012778D01*
X020568Y012770D01*
X020499Y012759D01*
X020430Y012743D01*
X020363Y012724D01*
X020297Y012700D01*
X020232Y012673D01*
X020169Y012643D01*
X020108Y012609D01*
X020049Y012572D01*
X019991Y012531D01*
X019937Y012487D01*
X019885Y012441D01*
X019835Y012391D01*
X019788Y012339D01*
X019745Y012284D01*
X019704Y012227D01*
X019667Y012168D01*
X019633Y012106D01*
X019603Y012043D01*
X019576Y011978D01*
X019553Y011912D01*
X019534Y011845D01*
X019518Y011777D01*
X019506Y011708D01*
X019498Y011638D01*
X019494Y011568D01*
X019494Y011498D01*
X019498Y011428D01*
X019506Y011358D01*
X019518Y011289D01*
X019534Y011221D01*
X019553Y011154D01*
X019576Y011088D01*
X019603Y011023D01*
X019633Y010960D01*
X019667Y010898D01*
X019704Y010839D01*
X019745Y010782D01*
X019788Y010727D01*
X019835Y010675D01*
X019885Y010625D01*
X019937Y010579D01*
X019991Y010535D01*
X020049Y010494D01*
X020108Y010457D01*
X020169Y010423D01*
X020232Y010393D01*
X020297Y010366D01*
X020363Y010342D01*
X020430Y010323D01*
X020499Y010307D01*
X020568Y010296D01*
X020637Y010288D01*
X020707Y010284D01*
X020777Y010283D01*
X020847Y010287D01*
X020917Y010295D01*
X020986Y010307D01*
X021054Y010322D01*
X021121Y010341D01*
X021188Y010364D01*
X021252Y010391D01*
X021316Y010421D01*
X021377Y010455D01*
X021436Y010492D01*
X021494Y010533D01*
X021548Y010576D01*
X021601Y010623D01*
X021650Y010672D01*
X021697Y010724D01*
X021741Y010779D01*
X021734Y010784D01*
X021690Y010730D01*
X021644Y010678D01*
X021595Y010629D01*
X021543Y010583D01*
X021488Y010540D01*
X021431Y010500D01*
X021372Y010463D01*
X021311Y010429D01*
X021249Y010399D01*
X021184Y010373D01*
X021119Y010350D01*
X021052Y010331D01*
X020984Y010315D01*
X020915Y010304D01*
X020846Y010296D01*
X020777Y010292D01*
X020707Y010293D01*
X020638Y010297D01*
X020569Y010304D01*
X020500Y010316D01*
X020433Y010332D01*
X020366Y010351D01*
X020300Y010374D01*
X020236Y010401D01*
X020173Y010431D01*
X020112Y010465D01*
X020054Y010502D01*
X019997Y010542D01*
X019943Y010585D01*
X019891Y010632D01*
X019842Y010681D01*
X019795Y010733D01*
X019752Y010787D01*
X019712Y010844D01*
X019675Y010903D01*
X019641Y010964D01*
X019611Y011027D01*
X019584Y011091D01*
X019561Y011156D01*
X019542Y011223D01*
X019527Y011291D01*
X019515Y011360D01*
X019507Y011429D01*
X019503Y011498D01*
X019503Y011568D01*
X019507Y011637D01*
X019515Y011706D01*
X019527Y011775D01*
X019542Y011843D01*
X019561Y011910D01*
X019584Y011975D01*
X019611Y012039D01*
X019641Y012102D01*
X019675Y012163D01*
X019712Y012222D01*
X019752Y012279D01*
X019795Y012333D01*
X019842Y012385D01*
X019891Y012434D01*
X019943Y012481D01*
X019997Y012524D01*
X020054Y012564D01*
X020112Y012601D01*
X020173Y012635D01*
X020236Y012665D01*
X020300Y012692D01*
X020366Y012715D01*
X020433Y012734D01*
X020500Y012750D01*
X020569Y012762D01*
X020638Y012769D01*
X020707Y012773D01*
X020777Y012774D01*
X020846Y012770D01*
X020915Y012762D01*
X020984Y012751D01*
X021052Y012735D01*
X021119Y012716D01*
X021184Y012693D01*
X021249Y012667D01*
X021311Y012637D01*
X021372Y012603D01*
X021431Y012566D01*
X021488Y012526D01*
X021543Y012483D01*
X021595Y012437D01*
X021644Y012388D01*
X021690Y012336D01*
X021734Y012282D01*
X021727Y012276D01*
X021683Y012330D01*
X021637Y012381D01*
X021588Y012430D01*
X021537Y012476D01*
X021483Y012519D01*
X021426Y012559D01*
X021368Y012595D01*
X021307Y012629D01*
X021245Y012659D01*
X021181Y012685D01*
X021116Y012707D01*
X021050Y012726D01*
X020982Y012742D01*
X020914Y012753D01*
X020846Y012761D01*
X020777Y012765D01*
X020708Y012764D01*
X020639Y012760D01*
X020570Y012753D01*
X020502Y012741D01*
X020435Y012726D01*
X020368Y012706D01*
X020303Y012683D01*
X020240Y012657D01*
X020177Y012627D01*
X020117Y012594D01*
X020059Y012557D01*
X020002Y012517D01*
X019948Y012474D01*
X019897Y012428D01*
X019848Y012379D01*
X019802Y012327D01*
X019759Y012273D01*
X019719Y012217D01*
X019683Y012158D01*
X019649Y012098D01*
X019619Y012036D01*
X019593Y011972D01*
X019570Y011907D01*
X019551Y011840D01*
X019536Y011773D01*
X019524Y011705D01*
X019516Y011636D01*
X019512Y011568D01*
X019512Y011498D01*
X019516Y011430D01*
X019524Y011361D01*
X019536Y011293D01*
X019551Y011226D01*
X019570Y011159D01*
X019593Y011094D01*
X019619Y011030D01*
X019649Y010968D01*
X019683Y010908D01*
X019719Y010849D01*
X019759Y010793D01*
X019802Y010739D01*
X019848Y010687D01*
X019897Y010638D01*
X019948Y010592D01*
X020002Y010549D01*
X020059Y010509D01*
X020117Y010472D01*
X020177Y010439D01*
X020240Y010409D01*
X020303Y010383D01*
X020368Y010360D01*
X020435Y010340D01*
X020502Y010325D01*
X020570Y010313D01*
X020639Y010306D01*
X020708Y010302D01*
X020777Y010301D01*
X020846Y010305D01*
X020914Y010313D01*
X020982Y010324D01*
X021050Y010340D01*
X021116Y010359D01*
X021181Y010381D01*
X021245Y010407D01*
X021307Y010437D01*
X021368Y010471D01*
X021426Y010507D01*
X021483Y010547D01*
X021537Y010590D01*
X021588Y010636D01*
X021637Y010685D01*
X021683Y010736D01*
X021727Y010790D01*
X021719Y010795D01*
X021676Y010741D01*
X021630Y010690D01*
X021580Y010641D01*
X021529Y010595D01*
X021474Y010552D01*
X021417Y010512D01*
X021359Y010476D01*
X021298Y010442D01*
X021235Y010413D01*
X021171Y010387D01*
X021105Y010365D01*
X021038Y010346D01*
X020971Y010331D01*
X020902Y010320D01*
X020833Y010313D01*
X020764Y010310D01*
X020695Y010311D01*
X020625Y010316D01*
X020557Y010324D01*
X020489Y010337D01*
X020421Y010353D01*
X020355Y010374D01*
X020290Y010397D01*
X020226Y010425D01*
X020164Y010456D01*
X020104Y010491D01*
X020046Y010529D01*
X019990Y010570D01*
X019937Y010614D01*
X019886Y010661D01*
X019838Y010711D01*
X019793Y010764D01*
X019751Y010819D01*
X019712Y010876D01*
X019677Y010936D01*
X019645Y010997D01*
X019616Y011060D01*
X019591Y011125D01*
X019570Y011191D01*
X019552Y011258D01*
X019539Y011326D01*
X019529Y011395D01*
X019523Y011464D01*
X019521Y011533D01*
X019523Y011602D01*
X019529Y011671D01*
X019539Y011740D01*
X019552Y011808D01*
X019570Y011875D01*
X019591Y011941D01*
X019616Y012006D01*
X019645Y012069D01*
X019677Y012130D01*
X019712Y012190D01*
X019751Y012247D01*
X019793Y012302D01*
X019838Y012355D01*
X019886Y012405D01*
X019937Y012452D01*
X019990Y012496D01*
X020046Y012537D01*
X020104Y012575D01*
X020164Y012610D01*
X020226Y012641D01*
X020290Y012669D01*
X020355Y012692D01*
X020421Y012713D01*
X020489Y012729D01*
X020557Y012742D01*
X020625Y012750D01*
X020695Y012755D01*
X020764Y012756D01*
X020833Y012753D01*
X020902Y012746D01*
X020971Y012735D01*
X021038Y012720D01*
X021105Y012701D01*
X021171Y012679D01*
X021235Y012653D01*
X021298Y012624D01*
X021359Y012590D01*
X021417Y012554D01*
X021474Y012514D01*
X021529Y012471D01*
X021580Y012425D01*
X021630Y012376D01*
X021676Y012325D01*
X021719Y012271D01*
X021712Y012265D01*
X021669Y012319D01*
X021623Y012370D01*
X021574Y012419D01*
X021523Y012464D01*
X021469Y012507D01*
X021412Y012546D01*
X021354Y012583D01*
X021294Y012616D01*
X021231Y012645D01*
X021168Y012671D01*
X021102Y012693D01*
X021036Y012711D01*
X020969Y012726D01*
X020901Y012737D01*
X020832Y012744D01*
X020764Y012747D01*
X020695Y012746D01*
X020626Y012741D01*
X020558Y012733D01*
X020490Y012720D01*
X020424Y012704D01*
X020358Y012684D01*
X020293Y012660D01*
X020230Y012633D01*
X020169Y012602D01*
X020109Y012568D01*
X020051Y012530D01*
X019996Y012489D01*
X019943Y012445D01*
X019893Y012398D01*
X019845Y012349D01*
X019800Y012297D01*
X019758Y012242D01*
X019720Y012185D01*
X019685Y012126D01*
X019653Y012065D01*
X019624Y012002D01*
X019600Y011938D01*
X019578Y011872D01*
X019561Y011806D01*
X019548Y011738D01*
X019538Y011670D01*
X019532Y011602D01*
X019530Y011533D01*
X019532Y011464D01*
X019538Y011396D01*
X019548Y011328D01*
X019561Y011260D01*
X019578Y011194D01*
X019600Y011128D01*
X019624Y011064D01*
X019653Y011001D01*
X019685Y010940D01*
X019720Y010881D01*
X019758Y010824D01*
X019800Y010769D01*
X019845Y010717D01*
X019893Y010668D01*
X019943Y010621D01*
X019996Y010577D01*
X020051Y010536D01*
X020109Y010498D01*
X020169Y010464D01*
X020230Y010433D01*
X020293Y010406D01*
X020358Y010382D01*
X020424Y010362D01*
X020490Y010346D01*
X020558Y010333D01*
X020626Y010325D01*
X020695Y010320D01*
X020764Y010319D01*
X020832Y010322D01*
X020901Y010329D01*
X020969Y010340D01*
X021036Y010355D01*
X021102Y010373D01*
X021168Y010395D01*
X021231Y010421D01*
X021294Y010450D01*
X021354Y010483D01*
X021412Y010520D01*
X021469Y010559D01*
X021523Y010602D01*
X021574Y010647D01*
X021623Y010696D01*
X021669Y010747D01*
X021712Y010801D01*
X005697Y008794D02*
X005769Y008848D01*
X005768Y008847D02*
X005811Y008794D01*
X005856Y008743D01*
X005905Y008695D01*
X005956Y008650D01*
X006010Y008607D01*
X006066Y008568D01*
X006124Y008532D01*
X006184Y008499D01*
X006245Y008470D01*
X006309Y008445D01*
X006373Y008423D01*
X006439Y008404D01*
X006506Y008390D01*
X006573Y008379D01*
X006641Y008372D01*
X006709Y008369D01*
X006778Y008370D01*
X006846Y008375D01*
X006914Y008383D01*
X006981Y008396D01*
X007047Y008412D01*
X007112Y008432D01*
X007177Y008455D01*
X007239Y008482D01*
X007300Y008513D01*
X007359Y008547D01*
X007417Y008584D01*
X007472Y008625D01*
X007524Y008669D01*
X007574Y008715D01*
X007621Y008764D01*
X007666Y008816D01*
X007707Y008870D01*
X007746Y008927D01*
X007781Y008986D01*
X007812Y009046D01*
X007840Y009108D01*
X007865Y009172D01*
X007886Y009237D01*
X007903Y009303D01*
X007917Y009370D01*
X007926Y009438D01*
X007932Y009506D01*
X007934Y009574D01*
X007932Y009642D01*
X007926Y009710D01*
X007917Y009778D01*
X007903Y009845D01*
X007886Y009911D01*
X007865Y009976D01*
X007840Y010040D01*
X007812Y010102D01*
X007781Y010162D01*
X007746Y010221D01*
X007707Y010278D01*
X007666Y010332D01*
X007621Y010384D01*
X007574Y010433D01*
X007524Y010479D01*
X007472Y010523D01*
X007417Y010564D01*
X007359Y010601D01*
X007300Y010635D01*
X007239Y010666D01*
X007177Y010693D01*
X007112Y010716D01*
X007047Y010736D01*
X006981Y010752D01*
X006914Y010765D01*
X006846Y010773D01*
X006778Y010778D01*
X006709Y010779D01*
X006641Y010776D01*
X006573Y010769D01*
X006506Y010758D01*
X006439Y010744D01*
X006373Y010725D01*
X006309Y010703D01*
X006245Y010678D01*
X006184Y010649D01*
X006124Y010616D01*
X006066Y010580D01*
X006010Y010541D01*
X005956Y010498D01*
X005905Y010453D01*
X005856Y010405D01*
X005811Y010354D01*
X005768Y010301D01*
X005697Y010354D01*
X005696Y010355D01*
X005740Y010410D01*
X005788Y010463D01*
X005838Y010514D01*
X005891Y010561D01*
X005946Y010605D01*
X006004Y010647D01*
X006064Y010685D01*
X006125Y010720D01*
X006189Y010751D01*
X006254Y010779D01*
X006321Y010803D01*
X006389Y010824D01*
X006458Y010840D01*
X006528Y010853D01*
X006598Y010862D01*
X006669Y010868D01*
X006740Y010869D01*
X006811Y010866D01*
X006882Y010860D01*
X006952Y010850D01*
X007021Y010836D01*
X007090Y010818D01*
X007158Y010796D01*
X007224Y010771D01*
X007289Y010742D01*
X007352Y010709D01*
X007413Y010673D01*
X007472Y010634D01*
X007529Y010592D01*
X007584Y010547D01*
X007636Y010498D01*
X007685Y010447D01*
X007732Y010394D01*
X007775Y010337D01*
X007815Y010279D01*
X007852Y010218D01*
X007886Y010156D01*
X007916Y010092D01*
X007943Y010026D01*
X007966Y009959D01*
X007985Y009890D01*
X008000Y009821D01*
X008012Y009751D01*
X008020Y009680D01*
X008024Y009609D01*
X008024Y009539D01*
X008020Y009468D01*
X008012Y009397D01*
X008000Y009327D01*
X007985Y009258D01*
X007966Y009189D01*
X007943Y009122D01*
X007916Y009056D01*
X007886Y008992D01*
X007852Y008930D01*
X007815Y008869D01*
X007775Y008811D01*
X007732Y008754D01*
X007685Y008701D01*
X007636Y008650D01*
X007584Y008601D01*
X007529Y008556D01*
X007472Y008514D01*
X007413Y008475D01*
X007352Y008439D01*
X007289Y008406D01*
X007224Y008377D01*
X007158Y008352D01*
X007090Y008330D01*
X007021Y008312D01*
X006952Y008298D01*
X006882Y008288D01*
X006811Y008282D01*
X006740Y008279D01*
X006669Y008280D01*
X006598Y008286D01*
X006528Y008295D01*
X006458Y008308D01*
X006389Y008324D01*
X006321Y008345D01*
X006254Y008369D01*
X006189Y008397D01*
X006125Y008428D01*
X006064Y008463D01*
X006004Y008501D01*
X005946Y008543D01*
X005891Y008587D01*
X005838Y008634D01*
X005788Y008685D01*
X005740Y008738D01*
X005696Y008793D01*
X005703Y008798D01*
X005748Y008743D01*
X005795Y008690D01*
X005846Y008639D01*
X005899Y008592D01*
X005955Y008547D01*
X006013Y008506D01*
X006073Y008468D01*
X006135Y008433D01*
X006199Y008402D01*
X006265Y008375D01*
X006332Y008351D01*
X006401Y008331D01*
X006470Y008314D01*
X006540Y008302D01*
X006611Y008293D01*
X006682Y008289D01*
X006753Y008288D01*
X006824Y008292D01*
X006895Y008299D01*
X006966Y008310D01*
X007035Y008325D01*
X007104Y008344D01*
X007172Y008367D01*
X007238Y008393D01*
X007303Y008423D01*
X007365Y008457D01*
X007426Y008493D01*
X007485Y008534D01*
X007542Y008577D01*
X007596Y008624D01*
X007647Y008673D01*
X007695Y008726D01*
X007741Y008780D01*
X007783Y008838D01*
X007822Y008897D01*
X007858Y008959D01*
X007891Y009022D01*
X007919Y009087D01*
X007945Y009154D01*
X007966Y009222D01*
X007984Y009291D01*
X007997Y009361D01*
X008007Y009432D01*
X008013Y009503D01*
X008015Y009574D01*
X008013Y009645D01*
X008007Y009716D01*
X007997Y009787D01*
X007984Y009857D01*
X007966Y009926D01*
X007945Y009994D01*
X007919Y010061D01*
X007891Y010126D01*
X007858Y010189D01*
X007822Y010251D01*
X007783Y010310D01*
X007741Y010368D01*
X007695Y010422D01*
X007647Y010475D01*
X007596Y010524D01*
X007542Y010571D01*
X007485Y010614D01*
X007426Y010655D01*
X007365Y010691D01*
X007303Y010725D01*
X007238Y010755D01*
X007172Y010781D01*
X007104Y010804D01*
X007035Y010823D01*
X006966Y010838D01*
X006895Y010849D01*
X006824Y010856D01*
X006753Y010860D01*
X006682Y010859D01*
X006611Y010855D01*
X006540Y010846D01*
X006470Y010834D01*
X006401Y010817D01*
X006332Y010797D01*
X006265Y010773D01*
X006199Y010746D01*
X006135Y010715D01*
X006073Y010680D01*
X006013Y010642D01*
X005955Y010601D01*
X005899Y010556D01*
X005846Y010509D01*
X005795Y010458D01*
X005748Y010405D01*
X005703Y010350D01*
X005710Y010344D01*
X005755Y010399D01*
X005802Y010452D01*
X005852Y010502D01*
X005905Y010549D01*
X005960Y010593D01*
X006018Y010635D01*
X006077Y010672D01*
X006139Y010707D01*
X006203Y010738D01*
X006268Y010765D01*
X006335Y010789D01*
X006403Y010809D01*
X006472Y010825D01*
X006541Y010837D01*
X006612Y010846D01*
X006682Y010850D01*
X006753Y010851D01*
X006824Y010847D01*
X006894Y010840D01*
X006964Y010829D01*
X007033Y010814D01*
X007101Y010795D01*
X007169Y010773D01*
X007234Y010747D01*
X007299Y010717D01*
X007361Y010684D01*
X007421Y010647D01*
X007480Y010607D01*
X007536Y010564D01*
X007590Y010518D01*
X007640Y010468D01*
X007689Y010417D01*
X007734Y010362D01*
X007776Y010305D01*
X007815Y010246D01*
X007850Y010185D01*
X007883Y010122D01*
X007911Y010057D01*
X007936Y009991D01*
X007957Y009923D01*
X007975Y009855D01*
X007988Y009785D01*
X007998Y009715D01*
X008004Y009645D01*
X008006Y009574D01*
X008004Y009503D01*
X007998Y009433D01*
X007988Y009363D01*
X007975Y009293D01*
X007957Y009225D01*
X007936Y009157D01*
X007911Y009091D01*
X007883Y009026D01*
X007850Y008963D01*
X007815Y008902D01*
X007776Y008843D01*
X007734Y008786D01*
X007689Y008731D01*
X007640Y008680D01*
X007590Y008630D01*
X007536Y008584D01*
X007480Y008541D01*
X007421Y008501D01*
X007361Y008464D01*
X007299Y008431D01*
X007234Y008401D01*
X007169Y008375D01*
X007101Y008353D01*
X007033Y008334D01*
X006964Y008319D01*
X006894Y008308D01*
X006824Y008301D01*
X006753Y008297D01*
X006682Y008298D01*
X006612Y008302D01*
X006541Y008311D01*
X006472Y008323D01*
X006403Y008339D01*
X006335Y008359D01*
X006268Y008383D01*
X006203Y008410D01*
X006139Y008441D01*
X006077Y008476D01*
X006018Y008513D01*
X005960Y008555D01*
X005905Y008599D01*
X005852Y008646D01*
X005802Y008696D01*
X005755Y008749D01*
X005710Y008804D01*
X005718Y008809D01*
X005762Y008754D01*
X005810Y008701D01*
X005860Y008651D01*
X005913Y008603D01*
X005969Y008559D01*
X006027Y008518D01*
X006087Y008481D01*
X006149Y008446D01*
X006213Y008416D01*
X006279Y008389D01*
X006346Y008365D01*
X006414Y008346D01*
X006484Y008330D01*
X006554Y008318D01*
X006624Y008310D01*
X006695Y008306D01*
X006766Y008307D01*
X006837Y008311D01*
X006908Y008319D01*
X006978Y008331D01*
X007047Y008347D01*
X007115Y008366D01*
X007183Y008390D01*
X007248Y008417D01*
X007312Y008448D01*
X007374Y008482D01*
X007434Y008520D01*
X007492Y008562D01*
X007548Y008606D01*
X007601Y008653D01*
X007651Y008704D01*
X007698Y008757D01*
X007743Y008812D01*
X007784Y008870D01*
X007821Y008930D01*
X007856Y008993D01*
X007887Y009057D01*
X007914Y009122D01*
X007937Y009189D01*
X007957Y009258D01*
X007973Y009327D01*
X007985Y009397D01*
X007993Y009468D01*
X007997Y009538D01*
X007997Y009610D01*
X007993Y009680D01*
X007985Y009751D01*
X007973Y009821D01*
X007957Y009890D01*
X007937Y009959D01*
X007914Y010026D01*
X007887Y010091D01*
X007856Y010155D01*
X007821Y010218D01*
X007784Y010278D01*
X007743Y010336D01*
X007698Y010391D01*
X007651Y010444D01*
X007601Y010495D01*
X007548Y010542D01*
X007492Y010586D01*
X007434Y010628D01*
X007374Y010666D01*
X007312Y010700D01*
X007248Y010731D01*
X007183Y010758D01*
X007115Y010782D01*
X007047Y010801D01*
X006978Y010817D01*
X006908Y010829D01*
X006837Y010837D01*
X006766Y010841D01*
X006695Y010842D01*
X006624Y010838D01*
X006554Y010830D01*
X006484Y010818D01*
X006414Y010802D01*
X006346Y010783D01*
X006279Y010759D01*
X006213Y010732D01*
X006149Y010702D01*
X006087Y010667D01*
X006027Y010630D01*
X005969Y010589D01*
X005913Y010545D01*
X005860Y010497D01*
X005810Y010447D01*
X005762Y010394D01*
X005718Y010339D01*
X005725Y010333D01*
X005769Y010388D01*
X005816Y010441D01*
X005866Y010491D01*
X005919Y010538D01*
X005974Y010582D01*
X006032Y010622D01*
X006091Y010660D01*
X006153Y010694D01*
X006217Y010724D01*
X006282Y010751D01*
X006349Y010774D01*
X006417Y010794D01*
X006485Y010809D01*
X006555Y010821D01*
X006625Y010829D01*
X006696Y010833D01*
X006766Y010832D01*
X006837Y010828D01*
X006907Y010820D01*
X006976Y010808D01*
X007045Y010793D01*
X007113Y010773D01*
X007179Y010750D01*
X007244Y010723D01*
X007308Y010692D01*
X007370Y010658D01*
X007429Y010620D01*
X007487Y010579D01*
X007542Y010535D01*
X007595Y010488D01*
X007644Y010438D01*
X007691Y010386D01*
X007735Y010330D01*
X007776Y010273D01*
X007814Y010213D01*
X007848Y010151D01*
X007878Y010088D01*
X007905Y010023D01*
X007929Y009956D01*
X007948Y009888D01*
X007964Y009819D01*
X007976Y009750D01*
X007984Y009680D01*
X007988Y009609D01*
X007988Y009539D01*
X007984Y009468D01*
X007976Y009398D01*
X007964Y009329D01*
X007948Y009260D01*
X007929Y009192D01*
X007905Y009125D01*
X007878Y009060D01*
X007848Y008997D01*
X007814Y008935D01*
X007776Y008875D01*
X007735Y008818D01*
X007691Y008762D01*
X007644Y008710D01*
X007595Y008660D01*
X007542Y008613D01*
X007487Y008569D01*
X007429Y008528D01*
X007370Y008490D01*
X007308Y008456D01*
X007244Y008425D01*
X007179Y008398D01*
X007113Y008375D01*
X007045Y008355D01*
X006976Y008340D01*
X006907Y008328D01*
X006837Y008320D01*
X006766Y008316D01*
X006696Y008315D01*
X006625Y008319D01*
X006555Y008327D01*
X006485Y008339D01*
X006417Y008354D01*
X006349Y008374D01*
X006282Y008397D01*
X006217Y008424D01*
X006153Y008454D01*
X006091Y008488D01*
X006032Y008526D01*
X005974Y008566D01*
X005919Y008610D01*
X005866Y008657D01*
X005816Y008707D01*
X005769Y008760D01*
X005725Y008815D01*
X005732Y008820D01*
X005776Y008765D01*
X005823Y008713D01*
X005872Y008664D01*
X005925Y008617D01*
X005979Y008574D01*
X006037Y008533D01*
X006096Y008496D01*
X006157Y008462D01*
X006221Y008432D01*
X006285Y008405D01*
X006352Y008382D01*
X006419Y008363D01*
X006487Y008348D01*
X006556Y008336D01*
X006626Y008328D01*
X006696Y008324D01*
X006766Y008325D01*
X006836Y008329D01*
X006905Y008337D01*
X006974Y008348D01*
X007043Y008364D01*
X007110Y008383D01*
X007176Y008407D01*
X007241Y008434D01*
X007304Y008464D01*
X007365Y008498D01*
X007424Y008535D01*
X007482Y008576D01*
X007536Y008620D01*
X007588Y008666D01*
X007638Y008716D01*
X007685Y008768D01*
X007728Y008823D01*
X007769Y008880D01*
X007806Y008939D01*
X007840Y009001D01*
X007870Y009064D01*
X007897Y009129D01*
X007920Y009195D01*
X007939Y009262D01*
X007955Y009330D01*
X007967Y009399D01*
X007975Y009469D01*
X007979Y009539D01*
X007979Y009609D01*
X007975Y009679D01*
X007967Y009749D01*
X007955Y009818D01*
X007939Y009886D01*
X007920Y009953D01*
X007897Y010019D01*
X007870Y010084D01*
X007840Y010147D01*
X007806Y010209D01*
X007769Y010268D01*
X007728Y010325D01*
X007685Y010380D01*
X007638Y010432D01*
X007588Y010482D01*
X007536Y010528D01*
X007482Y010572D01*
X007424Y010613D01*
X007365Y010650D01*
X007304Y010684D01*
X007241Y010714D01*
X007176Y010741D01*
X007110Y010765D01*
X007043Y010784D01*
X006974Y010800D01*
X006905Y010811D01*
X006836Y010819D01*
X006766Y010823D01*
X006696Y010824D01*
X006626Y010820D01*
X006556Y010812D01*
X006487Y010800D01*
X006419Y010785D01*
X006352Y010766D01*
X006285Y010743D01*
X006221Y010716D01*
X006157Y010686D01*
X006096Y010652D01*
X006037Y010615D01*
X005979Y010574D01*
X005925Y010531D01*
X005872Y010484D01*
X005823Y010435D01*
X005776Y010383D01*
X005732Y010328D01*
X005739Y010323D01*
X005783Y010377D01*
X005829Y010429D01*
X005878Y010478D01*
X005930Y010524D01*
X005985Y010567D01*
X006042Y010607D01*
X006101Y010644D01*
X006162Y010678D01*
X006224Y010708D01*
X006289Y010734D01*
X006354Y010757D01*
X006421Y010776D01*
X006489Y010792D01*
X006558Y010803D01*
X006627Y010811D01*
X006696Y010815D01*
X006766Y010814D01*
X006835Y010810D01*
X006904Y010803D01*
X006973Y010791D01*
X007040Y010775D01*
X007107Y010756D01*
X007173Y010733D01*
X007237Y010706D01*
X007300Y010676D01*
X007361Y010642D01*
X007419Y010605D01*
X007476Y010565D01*
X007530Y010522D01*
X007582Y010475D01*
X007631Y010426D01*
X007678Y010374D01*
X007721Y010320D01*
X007761Y010263D01*
X007798Y010204D01*
X007832Y010143D01*
X007862Y010080D01*
X007889Y010016D01*
X007912Y009951D01*
X007931Y009884D01*
X007946Y009816D01*
X007958Y009747D01*
X007966Y009678D01*
X007970Y009609D01*
X007970Y009539D01*
X007966Y009470D01*
X007958Y009401D01*
X007946Y009332D01*
X007931Y009264D01*
X007912Y009197D01*
X007889Y009132D01*
X007862Y009068D01*
X007832Y009005D01*
X007798Y008944D01*
X007761Y008885D01*
X007721Y008828D01*
X007678Y008774D01*
X007631Y008722D01*
X007582Y008673D01*
X007530Y008626D01*
X007476Y008583D01*
X007419Y008543D01*
X007361Y008506D01*
X007300Y008472D01*
X007237Y008442D01*
X007173Y008415D01*
X007107Y008392D01*
X007040Y008373D01*
X006973Y008357D01*
X006904Y008345D01*
X006835Y008338D01*
X006766Y008334D01*
X006696Y008333D01*
X006627Y008337D01*
X006558Y008345D01*
X006489Y008356D01*
X006421Y008372D01*
X006354Y008391D01*
X006289Y008414D01*
X006224Y008440D01*
X006162Y008470D01*
X006101Y008504D01*
X006042Y008541D01*
X005985Y008581D01*
X005930Y008624D01*
X005878Y008670D01*
X005829Y008719D01*
X005783Y008771D01*
X005739Y008825D01*
X005746Y008831D01*
X005790Y008777D01*
X005836Y008726D01*
X005885Y008677D01*
X005936Y008631D01*
X005990Y008588D01*
X006047Y008548D01*
X006105Y008512D01*
X006166Y008478D01*
X006228Y008448D01*
X006292Y008422D01*
X006357Y008400D01*
X006423Y008381D01*
X006491Y008365D01*
X006559Y008354D01*
X006627Y008346D01*
X006696Y008342D01*
X006765Y008343D01*
X006834Y008347D01*
X006903Y008354D01*
X006971Y008366D01*
X007038Y008381D01*
X007105Y008401D01*
X007170Y008424D01*
X007233Y008450D01*
X007296Y008480D01*
X007356Y008513D01*
X007414Y008550D01*
X007471Y008590D01*
X007525Y008633D01*
X007576Y008679D01*
X007625Y008728D01*
X007671Y008780D01*
X007714Y008834D01*
X007754Y008890D01*
X007790Y008949D01*
X007824Y009009D01*
X007854Y009071D01*
X007880Y009135D01*
X007903Y009200D01*
X007922Y009267D01*
X007937Y009334D01*
X007949Y009402D01*
X007957Y009471D01*
X007961Y009539D01*
X007961Y009609D01*
X007957Y009677D01*
X007949Y009746D01*
X007937Y009814D01*
X007922Y009881D01*
X007903Y009948D01*
X007880Y010013D01*
X007854Y010077D01*
X007824Y010139D01*
X007790Y010199D01*
X007754Y010258D01*
X007714Y010314D01*
X007671Y010368D01*
X007625Y010420D01*
X007576Y010469D01*
X007525Y010515D01*
X007471Y010558D01*
X007414Y010598D01*
X007356Y010635D01*
X007296Y010668D01*
X007233Y010698D01*
X007170Y010724D01*
X007105Y010747D01*
X007038Y010767D01*
X006971Y010782D01*
X006903Y010794D01*
X006834Y010801D01*
X006765Y010805D01*
X006696Y010806D01*
X006627Y010802D01*
X006559Y010794D01*
X006491Y010783D01*
X006423Y010767D01*
X006357Y010748D01*
X006292Y010726D01*
X006228Y010700D01*
X006166Y010670D01*
X006105Y010636D01*
X006047Y010600D01*
X005990Y010560D01*
X005936Y010517D01*
X005885Y010471D01*
X005836Y010422D01*
X005790Y010371D01*
X005746Y010317D01*
X005754Y010312D01*
X005797Y010366D01*
X005843Y010417D01*
X005893Y010466D01*
X005944Y010512D01*
X005999Y010555D01*
X006056Y010595D01*
X006114Y010631D01*
X006175Y010665D01*
X006238Y010694D01*
X006302Y010720D01*
X006368Y010742D01*
X006435Y010761D01*
X006502Y010776D01*
X006571Y010787D01*
X006640Y010794D01*
X006709Y010797D01*
X006778Y010796D01*
X006848Y010791D01*
X006916Y010783D01*
X006984Y010770D01*
X007052Y010754D01*
X007118Y010733D01*
X007183Y010710D01*
X007247Y010682D01*
X007309Y010651D01*
X007369Y010616D01*
X007427Y010578D01*
X007483Y010537D01*
X007536Y010493D01*
X007587Y010446D01*
X007635Y010396D01*
X007680Y010343D01*
X007722Y010288D01*
X007761Y010231D01*
X007796Y010171D01*
X007828Y010110D01*
X007857Y010047D01*
X007882Y009982D01*
X007903Y009916D01*
X007921Y009849D01*
X007934Y009781D01*
X007944Y009712D01*
X007950Y009643D01*
X007952Y009574D01*
X007950Y009505D01*
X007944Y009436D01*
X007934Y009367D01*
X007921Y009299D01*
X007903Y009232D01*
X007882Y009166D01*
X007857Y009101D01*
X007828Y009038D01*
X007796Y008977D01*
X007761Y008917D01*
X007722Y008860D01*
X007680Y008805D01*
X007635Y008752D01*
X007587Y008702D01*
X007536Y008655D01*
X007483Y008611D01*
X007427Y008570D01*
X007369Y008532D01*
X007309Y008497D01*
X007247Y008466D01*
X007183Y008438D01*
X007118Y008415D01*
X007052Y008394D01*
X006984Y008378D01*
X006916Y008365D01*
X006848Y008357D01*
X006778Y008352D01*
X006709Y008351D01*
X006640Y008354D01*
X006571Y008361D01*
X006502Y008372D01*
X006435Y008387D01*
X006368Y008406D01*
X006302Y008428D01*
X006238Y008454D01*
X006175Y008483D01*
X006114Y008517D01*
X006056Y008553D01*
X005999Y008593D01*
X005944Y008636D01*
X005893Y008682D01*
X005843Y008731D01*
X005797Y008782D01*
X005754Y008836D01*
X005761Y008842D01*
X005804Y008788D01*
X005850Y008737D01*
X005899Y008688D01*
X005950Y008643D01*
X006004Y008600D01*
X006061Y008561D01*
X006119Y008524D01*
X006179Y008491D01*
X006242Y008462D01*
X006305Y008436D01*
X006371Y008414D01*
X006437Y008396D01*
X006504Y008381D01*
X006572Y008370D01*
X006641Y008363D01*
X006709Y008360D01*
X006778Y008361D01*
X006847Y008366D01*
X006915Y008374D01*
X006983Y008387D01*
X007049Y008403D01*
X007115Y008423D01*
X007180Y008447D01*
X007243Y008474D01*
X007304Y008505D01*
X007364Y008539D01*
X007422Y008577D01*
X007477Y008618D01*
X007530Y008662D01*
X007580Y008709D01*
X007628Y008758D01*
X007673Y008810D01*
X007715Y008865D01*
X007753Y008922D01*
X007788Y008981D01*
X007820Y009042D01*
X007849Y009105D01*
X007873Y009169D01*
X007895Y009235D01*
X007912Y009301D01*
X007925Y009369D01*
X007935Y009437D01*
X007941Y009505D01*
X007943Y009574D01*
X007941Y009643D01*
X007935Y009711D01*
X007925Y009779D01*
X007912Y009847D01*
X007895Y009913D01*
X007873Y009979D01*
X007849Y010043D01*
X007820Y010106D01*
X007788Y010167D01*
X007753Y010226D01*
X007715Y010283D01*
X007673Y010338D01*
X007628Y010390D01*
X007580Y010439D01*
X007530Y010486D01*
X007477Y010530D01*
X007422Y010571D01*
X007364Y010609D01*
X007304Y010643D01*
X007243Y010674D01*
X007180Y010701D01*
X007115Y010725D01*
X007049Y010745D01*
X006983Y010761D01*
X006915Y010774D01*
X006847Y010782D01*
X006778Y010787D01*
X006709Y010788D01*
X006641Y010785D01*
X006572Y010778D01*
X006504Y010767D01*
X006437Y010752D01*
X006371Y010734D01*
X006305Y010712D01*
X006242Y010686D01*
X006179Y010657D01*
X006119Y010624D01*
X006061Y010587D01*
X006004Y010548D01*
X005950Y010505D01*
X005899Y010460D01*
X005850Y010411D01*
X005804Y010360D01*
X005761Y010306D01*
X005668Y005844D02*
X005740Y005898D01*
X005739Y005897D02*
X005782Y005844D01*
X005827Y005793D01*
X005876Y005745D01*
X005927Y005700D01*
X005981Y005657D01*
X006037Y005618D01*
X006095Y005582D01*
X006155Y005549D01*
X006216Y005520D01*
X006280Y005495D01*
X006344Y005473D01*
X006410Y005454D01*
X006477Y005440D01*
X006544Y005429D01*
X006612Y005422D01*
X006680Y005419D01*
X006749Y005420D01*
X006817Y005425D01*
X006885Y005433D01*
X006952Y005446D01*
X007018Y005462D01*
X007083Y005482D01*
X007148Y005505D01*
X007210Y005532D01*
X007271Y005563D01*
X007330Y005597D01*
X007388Y005634D01*
X007443Y005675D01*
X007495Y005719D01*
X007545Y005765D01*
X007592Y005814D01*
X007637Y005866D01*
X007678Y005920D01*
X007717Y005977D01*
X007752Y006036D01*
X007783Y006096D01*
X007811Y006158D01*
X007836Y006222D01*
X007857Y006287D01*
X007874Y006353D01*
X007888Y006420D01*
X007897Y006488D01*
X007903Y006556D01*
X007905Y006624D01*
X007903Y006692D01*
X007897Y006760D01*
X007888Y006828D01*
X007874Y006895D01*
X007857Y006961D01*
X007836Y007026D01*
X007811Y007090D01*
X007783Y007152D01*
X007752Y007212D01*
X007717Y007271D01*
X007678Y007328D01*
X007637Y007382D01*
X007592Y007434D01*
X007545Y007483D01*
X007495Y007529D01*
X007443Y007573D01*
X007388Y007614D01*
X007330Y007651D01*
X007271Y007685D01*
X007210Y007716D01*
X007148Y007743D01*
X007083Y007766D01*
X007018Y007786D01*
X006952Y007802D01*
X006885Y007815D01*
X006817Y007823D01*
X006749Y007828D01*
X006680Y007829D01*
X006612Y007826D01*
X006544Y007819D01*
X006477Y007808D01*
X006410Y007794D01*
X006344Y007775D01*
X006280Y007753D01*
X006216Y007728D01*
X006155Y007699D01*
X006095Y007666D01*
X006037Y007630D01*
X005981Y007591D01*
X005927Y007548D01*
X005876Y007503D01*
X005827Y007455D01*
X005782Y007404D01*
X005739Y007351D01*
X005668Y007404D01*
X005667Y007405D01*
X005711Y007460D01*
X005759Y007513D01*
X005809Y007564D01*
X005862Y007611D01*
X005917Y007655D01*
X005975Y007697D01*
X006035Y007735D01*
X006096Y007770D01*
X006160Y007801D01*
X006225Y007829D01*
X006292Y007853D01*
X006360Y007874D01*
X006429Y007890D01*
X006499Y007903D01*
X006569Y007912D01*
X006640Y007918D01*
X006711Y007919D01*
X006782Y007916D01*
X006853Y007910D01*
X006923Y007900D01*
X006992Y007886D01*
X007061Y007868D01*
X007129Y007846D01*
X007195Y007821D01*
X007260Y007792D01*
X007323Y007759D01*
X007384Y007723D01*
X007443Y007684D01*
X007500Y007642D01*
X007555Y007597D01*
X007607Y007548D01*
X007656Y007497D01*
X007703Y007444D01*
X007746Y007387D01*
X007786Y007329D01*
X007823Y007268D01*
X007857Y007206D01*
X007887Y007142D01*
X007914Y007076D01*
X007937Y007009D01*
X007956Y006940D01*
X007971Y006871D01*
X007983Y006801D01*
X007991Y006730D01*
X007995Y006659D01*
X007995Y006589D01*
X007991Y006518D01*
X007983Y006447D01*
X007971Y006377D01*
X007956Y006308D01*
X007937Y006239D01*
X007914Y006172D01*
X007887Y006106D01*
X007857Y006042D01*
X007823Y005980D01*
X007786Y005919D01*
X007746Y005861D01*
X007703Y005804D01*
X007656Y005751D01*
X007607Y005700D01*
X007555Y005651D01*
X007500Y005606D01*
X007443Y005564D01*
X007384Y005525D01*
X007323Y005489D01*
X007260Y005456D01*
X007195Y005427D01*
X007129Y005402D01*
X007061Y005380D01*
X006992Y005362D01*
X006923Y005348D01*
X006853Y005338D01*
X006782Y005332D01*
X006711Y005329D01*
X006640Y005330D01*
X006569Y005336D01*
X006499Y005345D01*
X006429Y005358D01*
X006360Y005374D01*
X006292Y005395D01*
X006225Y005419D01*
X006160Y005447D01*
X006096Y005478D01*
X006035Y005513D01*
X005975Y005551D01*
X005917Y005593D01*
X005862Y005637D01*
X005809Y005684D01*
X005759Y005735D01*
X005711Y005788D01*
X005667Y005843D01*
X005674Y005848D01*
X005719Y005793D01*
X005766Y005740D01*
X005817Y005689D01*
X005870Y005642D01*
X005926Y005597D01*
X005984Y005556D01*
X006044Y005518D01*
X006106Y005483D01*
X006170Y005452D01*
X006236Y005425D01*
X006303Y005401D01*
X006372Y005381D01*
X006441Y005364D01*
X006511Y005352D01*
X006582Y005343D01*
X006653Y005339D01*
X006724Y005338D01*
X006795Y005342D01*
X006866Y005349D01*
X006937Y005360D01*
X007006Y005375D01*
X007075Y005394D01*
X007143Y005417D01*
X007209Y005443D01*
X007274Y005473D01*
X007336Y005507D01*
X007397Y005543D01*
X007456Y005584D01*
X007513Y005627D01*
X007567Y005674D01*
X007618Y005723D01*
X007666Y005776D01*
X007712Y005830D01*
X007754Y005888D01*
X007793Y005947D01*
X007829Y006009D01*
X007862Y006072D01*
X007890Y006137D01*
X007916Y006204D01*
X007937Y006272D01*
X007955Y006341D01*
X007968Y006411D01*
X007978Y006482D01*
X007984Y006553D01*
X007986Y006624D01*
X007984Y006695D01*
X007978Y006766D01*
X007968Y006837D01*
X007955Y006907D01*
X007937Y006976D01*
X007916Y007044D01*
X007890Y007111D01*
X007862Y007176D01*
X007829Y007239D01*
X007793Y007301D01*
X007754Y007360D01*
X007712Y007418D01*
X007666Y007472D01*
X007618Y007525D01*
X007567Y007574D01*
X007513Y007621D01*
X007456Y007664D01*
X007397Y007705D01*
X007336Y007741D01*
X007274Y007775D01*
X007209Y007805D01*
X007143Y007831D01*
X007075Y007854D01*
X007006Y007873D01*
X006937Y007888D01*
X006866Y007899D01*
X006795Y007906D01*
X006724Y007910D01*
X006653Y007909D01*
X006582Y007905D01*
X006511Y007896D01*
X006441Y007884D01*
X006372Y007867D01*
X006303Y007847D01*
X006236Y007823D01*
X006170Y007796D01*
X006106Y007765D01*
X006044Y007730D01*
X005984Y007692D01*
X005926Y007651D01*
X005870Y007606D01*
X005817Y007559D01*
X005766Y007508D01*
X005719Y007455D01*
X005674Y007400D01*
X005681Y007394D01*
X005726Y007449D01*
X005773Y007502D01*
X005823Y007552D01*
X005876Y007599D01*
X005931Y007643D01*
X005989Y007685D01*
X006048Y007722D01*
X006110Y007757D01*
X006174Y007788D01*
X006239Y007815D01*
X006306Y007839D01*
X006374Y007859D01*
X006443Y007875D01*
X006512Y007887D01*
X006583Y007896D01*
X006653Y007900D01*
X006724Y007901D01*
X006795Y007897D01*
X006865Y007890D01*
X006935Y007879D01*
X007004Y007864D01*
X007072Y007845D01*
X007140Y007823D01*
X007205Y007797D01*
X007270Y007767D01*
X007332Y007734D01*
X007392Y007697D01*
X007451Y007657D01*
X007507Y007614D01*
X007561Y007568D01*
X007611Y007518D01*
X007660Y007467D01*
X007705Y007412D01*
X007747Y007355D01*
X007786Y007296D01*
X007821Y007235D01*
X007854Y007172D01*
X007882Y007107D01*
X007907Y007041D01*
X007928Y006973D01*
X007946Y006905D01*
X007959Y006835D01*
X007969Y006765D01*
X007975Y006695D01*
X007977Y006624D01*
X007975Y006553D01*
X007969Y006483D01*
X007959Y006413D01*
X007946Y006343D01*
X007928Y006275D01*
X007907Y006207D01*
X007882Y006141D01*
X007854Y006076D01*
X007821Y006013D01*
X007786Y005952D01*
X007747Y005893D01*
X007705Y005836D01*
X007660Y005781D01*
X007611Y005730D01*
X007561Y005680D01*
X007507Y005634D01*
X007451Y005591D01*
X007392Y005551D01*
X007332Y005514D01*
X007270Y005481D01*
X007205Y005451D01*
X007140Y005425D01*
X007072Y005403D01*
X007004Y005384D01*
X006935Y005369D01*
X006865Y005358D01*
X006795Y005351D01*
X006724Y005347D01*
X006653Y005348D01*
X006583Y005352D01*
X006512Y005361D01*
X006443Y005373D01*
X006374Y005389D01*
X006306Y005409D01*
X006239Y005433D01*
X006174Y005460D01*
X006110Y005491D01*
X006048Y005526D01*
X005989Y005563D01*
X005931Y005605D01*
X005876Y005649D01*
X005823Y005696D01*
X005773Y005746D01*
X005726Y005799D01*
X005681Y005854D01*
X005689Y005859D01*
X005733Y005804D01*
X005781Y005751D01*
X005831Y005701D01*
X005884Y005653D01*
X005940Y005609D01*
X005998Y005568D01*
X006058Y005531D01*
X006120Y005496D01*
X006184Y005466D01*
X006250Y005439D01*
X006317Y005415D01*
X006385Y005396D01*
X006455Y005380D01*
X006525Y005368D01*
X006595Y005360D01*
X006666Y005356D01*
X006737Y005357D01*
X006808Y005361D01*
X006879Y005369D01*
X006949Y005381D01*
X007018Y005397D01*
X007086Y005416D01*
X007154Y005440D01*
X007219Y005467D01*
X007283Y005498D01*
X007345Y005532D01*
X007405Y005570D01*
X007463Y005612D01*
X007519Y005656D01*
X007572Y005703D01*
X007622Y005754D01*
X007669Y005807D01*
X007714Y005862D01*
X007755Y005920D01*
X007792Y005980D01*
X007827Y006043D01*
X007858Y006107D01*
X007885Y006172D01*
X007908Y006239D01*
X007928Y006308D01*
X007944Y006377D01*
X007956Y006447D01*
X007964Y006518D01*
X007968Y006588D01*
X007968Y006660D01*
X007964Y006730D01*
X007956Y006801D01*
X007944Y006871D01*
X007928Y006940D01*
X007908Y007009D01*
X007885Y007076D01*
X007858Y007141D01*
X007827Y007205D01*
X007792Y007268D01*
X007755Y007328D01*
X007714Y007386D01*
X007669Y007441D01*
X007622Y007494D01*
X007572Y007545D01*
X007519Y007592D01*
X007463Y007636D01*
X007405Y007678D01*
X007345Y007716D01*
X007283Y007750D01*
X007219Y007781D01*
X007154Y007808D01*
X007086Y007832D01*
X007018Y007851D01*
X006949Y007867D01*
X006879Y007879D01*
X006808Y007887D01*
X006737Y007891D01*
X006666Y007892D01*
X006595Y007888D01*
X006525Y007880D01*
X006455Y007868D01*
X006385Y007852D01*
X006317Y007833D01*
X006250Y007809D01*
X006184Y007782D01*
X006120Y007752D01*
X006058Y007717D01*
X005998Y007680D01*
X005940Y007639D01*
X005884Y007595D01*
X005831Y007547D01*
X005781Y007497D01*
X005733Y007444D01*
X005689Y007389D01*
X005696Y007383D01*
X005740Y007438D01*
X005787Y007491D01*
X005837Y007541D01*
X005890Y007588D01*
X005945Y007632D01*
X006003Y007672D01*
X006062Y007710D01*
X006124Y007744D01*
X006188Y007774D01*
X006253Y007801D01*
X006320Y007824D01*
X006388Y007844D01*
X006456Y007859D01*
X006526Y007871D01*
X006596Y007879D01*
X006667Y007883D01*
X006737Y007882D01*
X006808Y007878D01*
X006878Y007870D01*
X006947Y007858D01*
X007016Y007843D01*
X007084Y007823D01*
X007150Y007800D01*
X007215Y007773D01*
X007279Y007742D01*
X007341Y007708D01*
X007400Y007670D01*
X007458Y007629D01*
X007513Y007585D01*
X007566Y007538D01*
X007615Y007488D01*
X007662Y007436D01*
X007706Y007380D01*
X007747Y007323D01*
X007785Y007263D01*
X007819Y007201D01*
X007849Y007138D01*
X007876Y007073D01*
X007900Y007006D01*
X007919Y006938D01*
X007935Y006869D01*
X007947Y006800D01*
X007955Y006730D01*
X007959Y006659D01*
X007959Y006589D01*
X007955Y006518D01*
X007947Y006448D01*
X007935Y006379D01*
X007919Y006310D01*
X007900Y006242D01*
X007876Y006175D01*
X007849Y006110D01*
X007819Y006047D01*
X007785Y005985D01*
X007747Y005925D01*
X007706Y005868D01*
X007662Y005812D01*
X007615Y005760D01*
X007566Y005710D01*
X007513Y005663D01*
X007458Y005619D01*
X007400Y005578D01*
X007341Y005540D01*
X007279Y005506D01*
X007215Y005475D01*
X007150Y005448D01*
X007084Y005425D01*
X007016Y005405D01*
X006947Y005390D01*
X006878Y005378D01*
X006808Y005370D01*
X006737Y005366D01*
X006667Y005365D01*
X006596Y005369D01*
X006526Y005377D01*
X006456Y005389D01*
X006388Y005404D01*
X006320Y005424D01*
X006253Y005447D01*
X006188Y005474D01*
X006124Y005504D01*
X006062Y005538D01*
X006003Y005576D01*
X005945Y005616D01*
X005890Y005660D01*
X005837Y005707D01*
X005787Y005757D01*
X005740Y005810D01*
X005696Y005865D01*
X005703Y005870D01*
X005747Y005815D01*
X005794Y005763D01*
X005843Y005714D01*
X005896Y005667D01*
X005950Y005624D01*
X006008Y005583D01*
X006067Y005546D01*
X006128Y005512D01*
X006192Y005482D01*
X006256Y005455D01*
X006323Y005432D01*
X006390Y005413D01*
X006458Y005398D01*
X006527Y005386D01*
X006597Y005378D01*
X006667Y005374D01*
X006737Y005375D01*
X006807Y005379D01*
X006876Y005387D01*
X006945Y005398D01*
X007014Y005414D01*
X007081Y005433D01*
X007147Y005457D01*
X007212Y005484D01*
X007275Y005514D01*
X007336Y005548D01*
X007395Y005585D01*
X007453Y005626D01*
X007507Y005670D01*
X007559Y005716D01*
X007609Y005766D01*
X007656Y005818D01*
X007699Y005873D01*
X007740Y005930D01*
X007777Y005989D01*
X007811Y006051D01*
X007841Y006114D01*
X007868Y006179D01*
X007891Y006245D01*
X007910Y006312D01*
X007926Y006380D01*
X007938Y006449D01*
X007946Y006519D01*
X007950Y006589D01*
X007950Y006659D01*
X007946Y006729D01*
X007938Y006799D01*
X007926Y006868D01*
X007910Y006936D01*
X007891Y007003D01*
X007868Y007069D01*
X007841Y007134D01*
X007811Y007197D01*
X007777Y007259D01*
X007740Y007318D01*
X007699Y007375D01*
X007656Y007430D01*
X007609Y007482D01*
X007559Y007532D01*
X007507Y007578D01*
X007453Y007622D01*
X007395Y007663D01*
X007336Y007700D01*
X007275Y007734D01*
X007212Y007764D01*
X007147Y007791D01*
X007081Y007815D01*
X007014Y007834D01*
X006945Y007850D01*
X006876Y007861D01*
X006807Y007869D01*
X006737Y007873D01*
X006667Y007874D01*
X006597Y007870D01*
X006527Y007862D01*
X006458Y007850D01*
X006390Y007835D01*
X006323Y007816D01*
X006256Y007793D01*
X006192Y007766D01*
X006128Y007736D01*
X006067Y007702D01*
X006008Y007665D01*
X005950Y007624D01*
X005896Y007581D01*
X005843Y007534D01*
X005794Y007485D01*
X005747Y007433D01*
X005703Y007378D01*
X005710Y007373D01*
X005754Y007427D01*
X005800Y007479D01*
X005849Y007528D01*
X005901Y007574D01*
X005956Y007617D01*
X006013Y007657D01*
X006072Y007694D01*
X006133Y007728D01*
X006195Y007758D01*
X006260Y007784D01*
X006325Y007807D01*
X006392Y007826D01*
X006460Y007842D01*
X006529Y007853D01*
X006598Y007861D01*
X006667Y007865D01*
X006737Y007864D01*
X006806Y007860D01*
X006875Y007853D01*
X006944Y007841D01*
X007011Y007825D01*
X007078Y007806D01*
X007144Y007783D01*
X007208Y007756D01*
X007271Y007726D01*
X007332Y007692D01*
X007390Y007655D01*
X007447Y007615D01*
X007501Y007572D01*
X007553Y007525D01*
X007602Y007476D01*
X007649Y007424D01*
X007692Y007370D01*
X007732Y007313D01*
X007769Y007254D01*
X007803Y007193D01*
X007833Y007130D01*
X007860Y007066D01*
X007883Y007001D01*
X007902Y006934D01*
X007917Y006866D01*
X007929Y006797D01*
X007937Y006728D01*
X007941Y006659D01*
X007941Y006589D01*
X007937Y006520D01*
X007929Y006451D01*
X007917Y006382D01*
X007902Y006314D01*
X007883Y006247D01*
X007860Y006182D01*
X007833Y006118D01*
X007803Y006055D01*
X007769Y005994D01*
X007732Y005935D01*
X007692Y005878D01*
X007649Y005824D01*
X007602Y005772D01*
X007553Y005723D01*
X007501Y005676D01*
X007447Y005633D01*
X007390Y005593D01*
X007332Y005556D01*
X007271Y005522D01*
X007208Y005492D01*
X007144Y005465D01*
X007078Y005442D01*
X007011Y005423D01*
X006944Y005407D01*
X006875Y005395D01*
X006806Y005388D01*
X006737Y005384D01*
X006667Y005383D01*
X006598Y005387D01*
X006529Y005395D01*
X006460Y005406D01*
X006392Y005422D01*
X006325Y005441D01*
X006260Y005464D01*
X006195Y005490D01*
X006133Y005520D01*
X006072Y005554D01*
X006013Y005591D01*
X005956Y005631D01*
X005901Y005674D01*
X005849Y005720D01*
X005800Y005769D01*
X005754Y005821D01*
X005710Y005875D01*
X005717Y005881D01*
X005761Y005827D01*
X005807Y005776D01*
X005856Y005727D01*
X005907Y005681D01*
X005961Y005638D01*
X006018Y005598D01*
X006076Y005562D01*
X006137Y005528D01*
X006199Y005498D01*
X006263Y005472D01*
X006328Y005450D01*
X006394Y005431D01*
X006462Y005415D01*
X006530Y005404D01*
X006598Y005396D01*
X006667Y005392D01*
X006736Y005393D01*
X006805Y005397D01*
X006874Y005404D01*
X006942Y005416D01*
X007009Y005431D01*
X007076Y005451D01*
X007141Y005474D01*
X007204Y005500D01*
X007267Y005530D01*
X007327Y005563D01*
X007385Y005600D01*
X007442Y005640D01*
X007496Y005683D01*
X007547Y005729D01*
X007596Y005778D01*
X007642Y005830D01*
X007685Y005884D01*
X007725Y005940D01*
X007761Y005999D01*
X007795Y006059D01*
X007825Y006121D01*
X007851Y006185D01*
X007874Y006250D01*
X007893Y006317D01*
X007908Y006384D01*
X007920Y006452D01*
X007928Y006521D01*
X007932Y006589D01*
X007932Y006659D01*
X007928Y006727D01*
X007920Y006796D01*
X007908Y006864D01*
X007893Y006931D01*
X007874Y006998D01*
X007851Y007063D01*
X007825Y007127D01*
X007795Y007189D01*
X007761Y007249D01*
X007725Y007308D01*
X007685Y007364D01*
X007642Y007418D01*
X007596Y007470D01*
X007547Y007519D01*
X007496Y007565D01*
X007442Y007608D01*
X007385Y007648D01*
X007327Y007685D01*
X007267Y007718D01*
X007204Y007748D01*
X007141Y007774D01*
X007076Y007797D01*
X007009Y007817D01*
X006942Y007832D01*
X006874Y007844D01*
X006805Y007851D01*
X006736Y007855D01*
X006667Y007856D01*
X006598Y007852D01*
X006530Y007844D01*
X006462Y007833D01*
X006394Y007817D01*
X006328Y007798D01*
X006263Y007776D01*
X006199Y007750D01*
X006137Y007720D01*
X006076Y007686D01*
X006018Y007650D01*
X005961Y007610D01*
X005907Y007567D01*
X005856Y007521D01*
X005807Y007472D01*
X005761Y007421D01*
X005717Y007367D01*
X005725Y007362D01*
X005768Y007416D01*
X005814Y007467D01*
X005864Y007516D01*
X005915Y007562D01*
X005970Y007605D01*
X006027Y007645D01*
X006085Y007681D01*
X006146Y007715D01*
X006209Y007744D01*
X006273Y007770D01*
X006339Y007792D01*
X006406Y007811D01*
X006473Y007826D01*
X006542Y007837D01*
X006611Y007844D01*
X006680Y007847D01*
X006749Y007846D01*
X006819Y007841D01*
X006887Y007833D01*
X006955Y007820D01*
X007023Y007804D01*
X007089Y007783D01*
X007154Y007760D01*
X007218Y007732D01*
X007280Y007701D01*
X007340Y007666D01*
X007398Y007628D01*
X007454Y007587D01*
X007507Y007543D01*
X007558Y007496D01*
X007606Y007446D01*
X007651Y007393D01*
X007693Y007338D01*
X007732Y007281D01*
X007767Y007221D01*
X007799Y007160D01*
X007828Y007097D01*
X007853Y007032D01*
X007874Y006966D01*
X007892Y006899D01*
X007905Y006831D01*
X007915Y006762D01*
X007921Y006693D01*
X007923Y006624D01*
X007921Y006555D01*
X007915Y006486D01*
X007905Y006417D01*
X007892Y006349D01*
X007874Y006282D01*
X007853Y006216D01*
X007828Y006151D01*
X007799Y006088D01*
X007767Y006027D01*
X007732Y005967D01*
X007693Y005910D01*
X007651Y005855D01*
X007606Y005802D01*
X007558Y005752D01*
X007507Y005705D01*
X007454Y005661D01*
X007398Y005620D01*
X007340Y005582D01*
X007280Y005547D01*
X007218Y005516D01*
X007154Y005488D01*
X007089Y005465D01*
X007023Y005444D01*
X006955Y005428D01*
X006887Y005415D01*
X006819Y005407D01*
X006749Y005402D01*
X006680Y005401D01*
X006611Y005404D01*
X006542Y005411D01*
X006473Y005422D01*
X006406Y005437D01*
X006339Y005456D01*
X006273Y005478D01*
X006209Y005504D01*
X006146Y005533D01*
X006085Y005567D01*
X006027Y005603D01*
X005970Y005643D01*
X005915Y005686D01*
X005864Y005732D01*
X005814Y005781D01*
X005768Y005832D01*
X005725Y005886D01*
X005732Y005892D01*
X005775Y005838D01*
X005821Y005787D01*
X005870Y005738D01*
X005921Y005693D01*
X005975Y005650D01*
X006032Y005611D01*
X006090Y005574D01*
X006150Y005541D01*
X006213Y005512D01*
X006276Y005486D01*
X006342Y005464D01*
X006408Y005446D01*
X006475Y005431D01*
X006543Y005420D01*
X006612Y005413D01*
X006680Y005410D01*
X006749Y005411D01*
X006818Y005416D01*
X006886Y005424D01*
X006954Y005437D01*
X007020Y005453D01*
X007086Y005473D01*
X007151Y005497D01*
X007214Y005524D01*
X007275Y005555D01*
X007335Y005589D01*
X007393Y005627D01*
X007448Y005668D01*
X007501Y005712D01*
X007551Y005759D01*
X007599Y005808D01*
X007644Y005860D01*
X007686Y005915D01*
X007724Y005972D01*
X007759Y006031D01*
X007791Y006092D01*
X007820Y006155D01*
X007844Y006219D01*
X007866Y006285D01*
X007883Y006351D01*
X007896Y006419D01*
X007906Y006487D01*
X007912Y006555D01*
X007914Y006624D01*
X007912Y006693D01*
X007906Y006761D01*
X007896Y006829D01*
X007883Y006897D01*
X007866Y006963D01*
X007844Y007029D01*
X007820Y007093D01*
X007791Y007156D01*
X007759Y007217D01*
X007724Y007276D01*
X007686Y007333D01*
X007644Y007388D01*
X007599Y007440D01*
X007551Y007489D01*
X007501Y007536D01*
X007448Y007580D01*
X007393Y007621D01*
X007335Y007659D01*
X007275Y007693D01*
X007214Y007724D01*
X007151Y007751D01*
X007086Y007775D01*
X007020Y007795D01*
X006954Y007811D01*
X006886Y007824D01*
X006818Y007832D01*
X006749Y007837D01*
X006680Y007838D01*
X006612Y007835D01*
X006543Y007828D01*
X006475Y007817D01*
X006408Y007802D01*
X006342Y007784D01*
X006276Y007762D01*
X006213Y007736D01*
X006150Y007707D01*
X006090Y007674D01*
X006032Y007637D01*
X005975Y007598D01*
X005921Y007555D01*
X005870Y007510D01*
X005821Y007461D01*
X005775Y007410D01*
X005732Y007356D01*
X005781Y002957D02*
X005853Y003011D01*
X005852Y003010D02*
X005895Y002957D01*
X005940Y002906D01*
X005989Y002858D01*
X006040Y002813D01*
X006094Y002770D01*
X006150Y002731D01*
X006208Y002695D01*
X006268Y002662D01*
X006329Y002633D01*
X006393Y002608D01*
X006457Y002586D01*
X006523Y002567D01*
X006590Y002553D01*
X006657Y002542D01*
X006725Y002535D01*
X006793Y002532D01*
X006862Y002533D01*
X006930Y002538D01*
X006998Y002546D01*
X007065Y002559D01*
X007131Y002575D01*
X007196Y002595D01*
X007261Y002618D01*
X007323Y002645D01*
X007384Y002676D01*
X007443Y002710D01*
X007501Y002747D01*
X007556Y002788D01*
X007608Y002832D01*
X007658Y002878D01*
X007705Y002927D01*
X007750Y002979D01*
X007791Y003033D01*
X007830Y003090D01*
X007865Y003149D01*
X007896Y003209D01*
X007924Y003271D01*
X007949Y003335D01*
X007970Y003400D01*
X007987Y003466D01*
X008001Y003533D01*
X008010Y003601D01*
X008016Y003669D01*
X008018Y003737D01*
X008016Y003805D01*
X008010Y003873D01*
X008001Y003941D01*
X007987Y004008D01*
X007970Y004074D01*
X007949Y004139D01*
X007924Y004203D01*
X007896Y004265D01*
X007865Y004325D01*
X007830Y004384D01*
X007791Y004441D01*
X007750Y004495D01*
X007705Y004547D01*
X007658Y004596D01*
X007608Y004642D01*
X007556Y004686D01*
X007501Y004727D01*
X007443Y004764D01*
X007384Y004798D01*
X007323Y004829D01*
X007261Y004856D01*
X007196Y004879D01*
X007131Y004899D01*
X007065Y004915D01*
X006998Y004928D01*
X006930Y004936D01*
X006862Y004941D01*
X006793Y004942D01*
X006725Y004939D01*
X006657Y004932D01*
X006590Y004921D01*
X006523Y004907D01*
X006457Y004888D01*
X006393Y004866D01*
X006329Y004841D01*
X006268Y004812D01*
X006208Y004779D01*
X006150Y004743D01*
X006094Y004704D01*
X006040Y004661D01*
X005989Y004616D01*
X005940Y004568D01*
X005895Y004517D01*
X005852Y004464D01*
X005781Y004517D01*
X005780Y004518D01*
X005824Y004573D01*
X005872Y004626D01*
X005922Y004677D01*
X005975Y004724D01*
X006030Y004768D01*
X006088Y004810D01*
X006148Y004848D01*
X006209Y004883D01*
X006273Y004914D01*
X006338Y004942D01*
X006405Y004966D01*
X006473Y004987D01*
X006542Y005003D01*
X006612Y005016D01*
X006682Y005025D01*
X006753Y005031D01*
X006824Y005032D01*
X006895Y005029D01*
X006966Y005023D01*
X007036Y005013D01*
X007105Y004999D01*
X007174Y004981D01*
X007242Y004959D01*
X007308Y004934D01*
X007373Y004905D01*
X007436Y004872D01*
X007497Y004836D01*
X007556Y004797D01*
X007613Y004755D01*
X007668Y004710D01*
X007720Y004661D01*
X007769Y004610D01*
X007816Y004557D01*
X007859Y004500D01*
X007899Y004442D01*
X007936Y004381D01*
X007970Y004319D01*
X008000Y004255D01*
X008027Y004189D01*
X008050Y004122D01*
X008069Y004053D01*
X008084Y003984D01*
X008096Y003914D01*
X008104Y003843D01*
X008108Y003772D01*
X008108Y003702D01*
X008104Y003631D01*
X008096Y003560D01*
X008084Y003490D01*
X008069Y003421D01*
X008050Y003352D01*
X008027Y003285D01*
X008000Y003219D01*
X007970Y003155D01*
X007936Y003093D01*
X007899Y003032D01*
X007859Y002974D01*
X007816Y002917D01*
X007769Y002864D01*
X007720Y002813D01*
X007668Y002764D01*
X007613Y002719D01*
X007556Y002677D01*
X007497Y002638D01*
X007436Y002602D01*
X007373Y002569D01*
X007308Y002540D01*
X007242Y002515D01*
X007174Y002493D01*
X007105Y002475D01*
X007036Y002461D01*
X006966Y002451D01*
X006895Y002445D01*
X006824Y002442D01*
X006753Y002443D01*
X006682Y002449D01*
X006612Y002458D01*
X006542Y002471D01*
X006473Y002487D01*
X006405Y002508D01*
X006338Y002532D01*
X006273Y002560D01*
X006209Y002591D01*
X006148Y002626D01*
X006088Y002664D01*
X006030Y002706D01*
X005975Y002750D01*
X005922Y002797D01*
X005872Y002848D01*
X005824Y002901D01*
X005780Y002956D01*
X005787Y002961D01*
X005832Y002906D01*
X005879Y002853D01*
X005930Y002802D01*
X005983Y002755D01*
X006039Y002710D01*
X006097Y002669D01*
X006157Y002631D01*
X006219Y002596D01*
X006283Y002565D01*
X006349Y002538D01*
X006416Y002514D01*
X006485Y002494D01*
X006554Y002477D01*
X006624Y002465D01*
X006695Y002456D01*
X006766Y002452D01*
X006837Y002451D01*
X006908Y002455D01*
X006979Y002462D01*
X007050Y002473D01*
X007119Y002488D01*
X007188Y002507D01*
X007256Y002530D01*
X007322Y002556D01*
X007387Y002586D01*
X007449Y002620D01*
X007510Y002656D01*
X007569Y002697D01*
X007626Y002740D01*
X007680Y002787D01*
X007731Y002836D01*
X007779Y002889D01*
X007825Y002943D01*
X007867Y003001D01*
X007906Y003060D01*
X007942Y003122D01*
X007975Y003185D01*
X008003Y003250D01*
X008029Y003317D01*
X008050Y003385D01*
X008068Y003454D01*
X008081Y003524D01*
X008091Y003595D01*
X008097Y003666D01*
X008099Y003737D01*
X008097Y003808D01*
X008091Y003879D01*
X008081Y003950D01*
X008068Y004020D01*
X008050Y004089D01*
X008029Y004157D01*
X008003Y004224D01*
X007975Y004289D01*
X007942Y004352D01*
X007906Y004414D01*
X007867Y004473D01*
X007825Y004531D01*
X007779Y004585D01*
X007731Y004638D01*
X007680Y004687D01*
X007626Y004734D01*
X007569Y004777D01*
X007510Y004818D01*
X007449Y004854D01*
X007387Y004888D01*
X007322Y004918D01*
X007256Y004944D01*
X007188Y004967D01*
X007119Y004986D01*
X007050Y005001D01*
X006979Y005012D01*
X006908Y005019D01*
X006837Y005023D01*
X006766Y005022D01*
X006695Y005018D01*
X006624Y005009D01*
X006554Y004997D01*
X006485Y004980D01*
X006416Y004960D01*
X006349Y004936D01*
X006283Y004909D01*
X006219Y004878D01*
X006157Y004843D01*
X006097Y004805D01*
X006039Y004764D01*
X005983Y004719D01*
X005930Y004672D01*
X005879Y004621D01*
X005832Y004568D01*
X005787Y004513D01*
X005794Y004507D01*
X005839Y004562D01*
X005886Y004615D01*
X005936Y004665D01*
X005989Y004712D01*
X006044Y004756D01*
X006102Y004798D01*
X006161Y004835D01*
X006223Y004870D01*
X006287Y004901D01*
X006352Y004928D01*
X006419Y004952D01*
X006487Y004972D01*
X006556Y004988D01*
X006625Y005000D01*
X006696Y005009D01*
X006766Y005013D01*
X006837Y005014D01*
X006908Y005010D01*
X006978Y005003D01*
X007048Y004992D01*
X007117Y004977D01*
X007185Y004958D01*
X007253Y004936D01*
X007318Y004910D01*
X007383Y004880D01*
X007445Y004847D01*
X007505Y004810D01*
X007564Y004770D01*
X007620Y004727D01*
X007674Y004681D01*
X007724Y004631D01*
X007773Y004580D01*
X007818Y004525D01*
X007860Y004468D01*
X007899Y004409D01*
X007934Y004348D01*
X007967Y004285D01*
X007995Y004220D01*
X008020Y004154D01*
X008041Y004086D01*
X008059Y004018D01*
X008072Y003948D01*
X008082Y003878D01*
X008088Y003808D01*
X008090Y003737D01*
X008088Y003666D01*
X008082Y003596D01*
X008072Y003526D01*
X008059Y003456D01*
X008041Y003388D01*
X008020Y003320D01*
X007995Y003254D01*
X007967Y003189D01*
X007934Y003126D01*
X007899Y003065D01*
X007860Y003006D01*
X007818Y002949D01*
X007773Y002894D01*
X007724Y002843D01*
X007674Y002793D01*
X007620Y002747D01*
X007564Y002704D01*
X007505Y002664D01*
X007445Y002627D01*
X007383Y002594D01*
X007318Y002564D01*
X007253Y002538D01*
X007185Y002516D01*
X007117Y002497D01*
X007048Y002482D01*
X006978Y002471D01*
X006908Y002464D01*
X006837Y002460D01*
X006766Y002461D01*
X006696Y002465D01*
X006625Y002474D01*
X006556Y002486D01*
X006487Y002502D01*
X006419Y002522D01*
X006352Y002546D01*
X006287Y002573D01*
X006223Y002604D01*
X006161Y002639D01*
X006102Y002676D01*
X006044Y002718D01*
X005989Y002762D01*
X005936Y002809D01*
X005886Y002859D01*
X005839Y002912D01*
X005794Y002967D01*
X005802Y002972D01*
X005846Y002917D01*
X005894Y002864D01*
X005944Y002814D01*
X005997Y002766D01*
X006053Y002722D01*
X006111Y002681D01*
X006171Y002644D01*
X006233Y002609D01*
X006297Y002579D01*
X006363Y002552D01*
X006430Y002528D01*
X006498Y002509D01*
X006568Y002493D01*
X006638Y002481D01*
X006708Y002473D01*
X006779Y002469D01*
X006850Y002470D01*
X006921Y002474D01*
X006992Y002482D01*
X007062Y002494D01*
X007131Y002510D01*
X007199Y002529D01*
X007267Y002553D01*
X007332Y002580D01*
X007396Y002611D01*
X007458Y002645D01*
X007518Y002683D01*
X007576Y002725D01*
X007632Y002769D01*
X007685Y002816D01*
X007735Y002867D01*
X007782Y002920D01*
X007827Y002975D01*
X007868Y003033D01*
X007905Y003093D01*
X007940Y003156D01*
X007971Y003220D01*
X007998Y003285D01*
X008021Y003352D01*
X008041Y003421D01*
X008057Y003490D01*
X008069Y003560D01*
X008077Y003631D01*
X008081Y003701D01*
X008081Y003773D01*
X008077Y003843D01*
X008069Y003914D01*
X008057Y003984D01*
X008041Y004053D01*
X008021Y004122D01*
X007998Y004189D01*
X007971Y004254D01*
X007940Y004318D01*
X007905Y004381D01*
X007868Y004441D01*
X007827Y004499D01*
X007782Y004554D01*
X007735Y004607D01*
X007685Y004658D01*
X007632Y004705D01*
X007576Y004749D01*
X007518Y004791D01*
X007458Y004829D01*
X007396Y004863D01*
X007332Y004894D01*
X007267Y004921D01*
X007199Y004945D01*
X007131Y004964D01*
X007062Y004980D01*
X006992Y004992D01*
X006921Y005000D01*
X006850Y005004D01*
X006779Y005005D01*
X006708Y005001D01*
X006638Y004993D01*
X006568Y004981D01*
X006498Y004965D01*
X006430Y004946D01*
X006363Y004922D01*
X006297Y004895D01*
X006233Y004865D01*
X006171Y004830D01*
X006111Y004793D01*
X006053Y004752D01*
X005997Y004708D01*
X005944Y004660D01*
X005894Y004610D01*
X005846Y004557D01*
X005802Y004502D01*
X005809Y004496D01*
X005853Y004551D01*
X005900Y004604D01*
X005950Y004654D01*
X006003Y004701D01*
X006058Y004745D01*
X006116Y004785D01*
X006175Y004823D01*
X006237Y004857D01*
X006301Y004887D01*
X006366Y004914D01*
X006433Y004937D01*
X006501Y004957D01*
X006569Y004972D01*
X006639Y004984D01*
X006709Y004992D01*
X006780Y004996D01*
X006850Y004995D01*
X006921Y004991D01*
X006991Y004983D01*
X007060Y004971D01*
X007129Y004956D01*
X007197Y004936D01*
X007263Y004913D01*
X007328Y004886D01*
X007392Y004855D01*
X007454Y004821D01*
X007513Y004783D01*
X007571Y004742D01*
X007626Y004698D01*
X007679Y004651D01*
X007728Y004601D01*
X007775Y004549D01*
X007819Y004493D01*
X007860Y004436D01*
X007898Y004376D01*
X007932Y004314D01*
X007962Y004251D01*
X007989Y004186D01*
X008013Y004119D01*
X008032Y004051D01*
X008048Y003982D01*
X008060Y003913D01*
X008068Y003843D01*
X008072Y003772D01*
X008072Y003702D01*
X008068Y003631D01*
X008060Y003561D01*
X008048Y003492D01*
X008032Y003423D01*
X008013Y003355D01*
X007989Y003288D01*
X007962Y003223D01*
X007932Y003160D01*
X007898Y003098D01*
X007860Y003038D01*
X007819Y002981D01*
X007775Y002925D01*
X007728Y002873D01*
X007679Y002823D01*
X007626Y002776D01*
X007571Y002732D01*
X007513Y002691D01*
X007454Y002653D01*
X007392Y002619D01*
X007328Y002588D01*
X007263Y002561D01*
X007197Y002538D01*
X007129Y002518D01*
X007060Y002503D01*
X006991Y002491D01*
X006921Y002483D01*
X006850Y002479D01*
X006780Y002478D01*
X006709Y002482D01*
X006639Y002490D01*
X006569Y002502D01*
X006501Y002517D01*
X006433Y002537D01*
X006366Y002560D01*
X006301Y002587D01*
X006237Y002617D01*
X006175Y002651D01*
X006116Y002689D01*
X006058Y002729D01*
X006003Y002773D01*
X005950Y002820D01*
X005900Y002870D01*
X005853Y002923D01*
X005809Y002978D01*
X005816Y002983D01*
X005860Y002928D01*
X005907Y002876D01*
X005956Y002827D01*
X006009Y002780D01*
X006063Y002737D01*
X006121Y002696D01*
X006180Y002659D01*
X006241Y002625D01*
X006305Y002595D01*
X006369Y002568D01*
X006436Y002545D01*
X006503Y002526D01*
X006571Y002511D01*
X006640Y002499D01*
X006710Y002491D01*
X006780Y002487D01*
X006850Y002488D01*
X006920Y002492D01*
X006989Y002500D01*
X007058Y002511D01*
X007127Y002527D01*
X007194Y002546D01*
X007260Y002570D01*
X007325Y002597D01*
X007388Y002627D01*
X007449Y002661D01*
X007508Y002698D01*
X007566Y002739D01*
X007620Y002783D01*
X007672Y002829D01*
X007722Y002879D01*
X007769Y002931D01*
X007812Y002986D01*
X007853Y003043D01*
X007890Y003102D01*
X007924Y003164D01*
X007954Y003227D01*
X007981Y003292D01*
X008004Y003358D01*
X008023Y003425D01*
X008039Y003493D01*
X008051Y003562D01*
X008059Y003632D01*
X008063Y003702D01*
X008063Y003772D01*
X008059Y003842D01*
X008051Y003912D01*
X008039Y003981D01*
X008023Y004049D01*
X008004Y004116D01*
X007981Y004182D01*
X007954Y004247D01*
X007924Y004310D01*
X007890Y004372D01*
X007853Y004431D01*
X007812Y004488D01*
X007769Y004543D01*
X007722Y004595D01*
X007672Y004645D01*
X007620Y004691D01*
X007566Y004735D01*
X007508Y004776D01*
X007449Y004813D01*
X007388Y004847D01*
X007325Y004877D01*
X007260Y004904D01*
X007194Y004928D01*
X007127Y004947D01*
X007058Y004963D01*
X006989Y004974D01*
X006920Y004982D01*
X006850Y004986D01*
X006780Y004987D01*
X006710Y004983D01*
X006640Y004975D01*
X006571Y004963D01*
X006503Y004948D01*
X006436Y004929D01*
X006369Y004906D01*
X006305Y004879D01*
X006241Y004849D01*
X006180Y004815D01*
X006121Y004778D01*
X006063Y004737D01*
X006009Y004694D01*
X005956Y004647D01*
X005907Y004598D01*
X005860Y004546D01*
X005816Y004491D01*
X005823Y004486D01*
X005867Y004540D01*
X005913Y004592D01*
X005962Y004641D01*
X006014Y004687D01*
X006069Y004730D01*
X006126Y004770D01*
X006185Y004807D01*
X006246Y004841D01*
X006308Y004871D01*
X006373Y004897D01*
X006438Y004920D01*
X006505Y004939D01*
X006573Y004955D01*
X006642Y004966D01*
X006711Y004974D01*
X006780Y004978D01*
X006850Y004977D01*
X006919Y004973D01*
X006988Y004966D01*
X007057Y004954D01*
X007124Y004938D01*
X007191Y004919D01*
X007257Y004896D01*
X007321Y004869D01*
X007384Y004839D01*
X007445Y004805D01*
X007503Y004768D01*
X007560Y004728D01*
X007614Y004685D01*
X007666Y004638D01*
X007715Y004589D01*
X007762Y004537D01*
X007805Y004483D01*
X007845Y004426D01*
X007882Y004367D01*
X007916Y004306D01*
X007946Y004243D01*
X007973Y004179D01*
X007996Y004114D01*
X008015Y004047D01*
X008030Y003979D01*
X008042Y003910D01*
X008050Y003841D01*
X008054Y003772D01*
X008054Y003702D01*
X008050Y003633D01*
X008042Y003564D01*
X008030Y003495D01*
X008015Y003427D01*
X007996Y003360D01*
X007973Y003295D01*
X007946Y003231D01*
X007916Y003168D01*
X007882Y003107D01*
X007845Y003048D01*
X007805Y002991D01*
X007762Y002937D01*
X007715Y002885D01*
X007666Y002836D01*
X007614Y002789D01*
X007560Y002746D01*
X007503Y002706D01*
X007445Y002669D01*
X007384Y002635D01*
X007321Y002605D01*
X007257Y002578D01*
X007191Y002555D01*
X007124Y002536D01*
X007057Y002520D01*
X006988Y002508D01*
X006919Y002501D01*
X006850Y002497D01*
X006780Y002496D01*
X006711Y002500D01*
X006642Y002508D01*
X006573Y002519D01*
X006505Y002535D01*
X006438Y002554D01*
X006373Y002577D01*
X006308Y002603D01*
X006246Y002633D01*
X006185Y002667D01*
X006126Y002704D01*
X006069Y002744D01*
X006014Y002787D01*
X005962Y002833D01*
X005913Y002882D01*
X005867Y002934D01*
X005823Y002988D01*
X005830Y002994D01*
X005874Y002940D01*
X005920Y002889D01*
X005969Y002840D01*
X006020Y002794D01*
X006074Y002751D01*
X006131Y002711D01*
X006189Y002675D01*
X006250Y002641D01*
X006312Y002611D01*
X006376Y002585D01*
X006441Y002563D01*
X006507Y002544D01*
X006575Y002528D01*
X006643Y002517D01*
X006711Y002509D01*
X006780Y002505D01*
X006849Y002506D01*
X006918Y002510D01*
X006987Y002517D01*
X007055Y002529D01*
X007122Y002544D01*
X007189Y002564D01*
X007254Y002587D01*
X007317Y002613D01*
X007380Y002643D01*
X007440Y002676D01*
X007498Y002713D01*
X007555Y002753D01*
X007609Y002796D01*
X007660Y002842D01*
X007709Y002891D01*
X007755Y002943D01*
X007798Y002997D01*
X007838Y003053D01*
X007874Y003112D01*
X007908Y003172D01*
X007938Y003234D01*
X007964Y003298D01*
X007987Y003363D01*
X008006Y003430D01*
X008021Y003497D01*
X008033Y003565D01*
X008041Y003634D01*
X008045Y003702D01*
X008045Y003772D01*
X008041Y003840D01*
X008033Y003909D01*
X008021Y003977D01*
X008006Y004044D01*
X007987Y004111D01*
X007964Y004176D01*
X007938Y004240D01*
X007908Y004302D01*
X007874Y004362D01*
X007838Y004421D01*
X007798Y004477D01*
X007755Y004531D01*
X007709Y004583D01*
X007660Y004632D01*
X007609Y004678D01*
X007555Y004721D01*
X007498Y004761D01*
X007440Y004798D01*
X007380Y004831D01*
X007317Y004861D01*
X007254Y004887D01*
X007189Y004910D01*
X007122Y004930D01*
X007055Y004945D01*
X006987Y004957D01*
X006918Y004964D01*
X006849Y004968D01*
X006780Y004969D01*
X006711Y004965D01*
X006643Y004957D01*
X006575Y004946D01*
X006507Y004930D01*
X006441Y004911D01*
X006376Y004889D01*
X006312Y004863D01*
X006250Y004833D01*
X006189Y004799D01*
X006131Y004763D01*
X006074Y004723D01*
X006020Y004680D01*
X005969Y004634D01*
X005920Y004585D01*
X005874Y004534D01*
X005830Y004480D01*
X005838Y004475D01*
X005881Y004529D01*
X005927Y004580D01*
X005977Y004629D01*
X006028Y004675D01*
X006083Y004718D01*
X006140Y004758D01*
X006198Y004794D01*
X006259Y004828D01*
X006322Y004857D01*
X006386Y004883D01*
X006452Y004905D01*
X006519Y004924D01*
X006586Y004939D01*
X006655Y004950D01*
X006724Y004957D01*
X006793Y004960D01*
X006862Y004959D01*
X006932Y004954D01*
X007000Y004946D01*
X007068Y004933D01*
X007136Y004917D01*
X007202Y004896D01*
X007267Y004873D01*
X007331Y004845D01*
X007393Y004814D01*
X007453Y004779D01*
X007511Y004741D01*
X007567Y004700D01*
X007620Y004656D01*
X007671Y004609D01*
X007719Y004559D01*
X007764Y004506D01*
X007806Y004451D01*
X007845Y004394D01*
X007880Y004334D01*
X007912Y004273D01*
X007941Y004210D01*
X007966Y004145D01*
X007987Y004079D01*
X008005Y004012D01*
X008018Y003944D01*
X008028Y003875D01*
X008034Y003806D01*
X008036Y003737D01*
X008034Y003668D01*
X008028Y003599D01*
X008018Y003530D01*
X008005Y003462D01*
X007987Y003395D01*
X007966Y003329D01*
X007941Y003264D01*
X007912Y003201D01*
X007880Y003140D01*
X007845Y003080D01*
X007806Y003023D01*
X007764Y002968D01*
X007719Y002915D01*
X007671Y002865D01*
X007620Y002818D01*
X007567Y002774D01*
X007511Y002733D01*
X007453Y002695D01*
X007393Y002660D01*
X007331Y002629D01*
X007267Y002601D01*
X007202Y002578D01*
X007136Y002557D01*
X007068Y002541D01*
X007000Y002528D01*
X006932Y002520D01*
X006862Y002515D01*
X006793Y002514D01*
X006724Y002517D01*
X006655Y002524D01*
X006586Y002535D01*
X006519Y002550D01*
X006452Y002569D01*
X006386Y002591D01*
X006322Y002617D01*
X006259Y002646D01*
X006198Y002680D01*
X006140Y002716D01*
X006083Y002756D01*
X006028Y002799D01*
X005977Y002845D01*
X005927Y002894D01*
X005881Y002945D01*
X005838Y002999D01*
X005845Y003005D01*
X005888Y002951D01*
X005934Y002900D01*
X005983Y002851D01*
X006034Y002806D01*
X006088Y002763D01*
X006145Y002724D01*
X006203Y002687D01*
X006263Y002654D01*
X006326Y002625D01*
X006389Y002599D01*
X006455Y002577D01*
X006521Y002559D01*
X006588Y002544D01*
X006656Y002533D01*
X006725Y002526D01*
X006793Y002523D01*
X006862Y002524D01*
X006931Y002529D01*
X006999Y002537D01*
X007067Y002550D01*
X007133Y002566D01*
X007199Y002586D01*
X007264Y002610D01*
X007327Y002637D01*
X007388Y002668D01*
X007448Y002702D01*
X007506Y002740D01*
X007561Y002781D01*
X007614Y002825D01*
X007664Y002872D01*
X007712Y002921D01*
X007757Y002973D01*
X007799Y003028D01*
X007837Y003085D01*
X007872Y003144D01*
X007904Y003205D01*
X007933Y003268D01*
X007957Y003332D01*
X007979Y003398D01*
X007996Y003464D01*
X008009Y003532D01*
X008019Y003600D01*
X008025Y003668D01*
X008027Y003737D01*
X008025Y003806D01*
X008019Y003874D01*
X008009Y003942D01*
X007996Y004010D01*
X007979Y004076D01*
X007957Y004142D01*
X007933Y004206D01*
X007904Y004269D01*
X007872Y004330D01*
X007837Y004389D01*
X007799Y004446D01*
X007757Y004501D01*
X007712Y004553D01*
X007664Y004602D01*
X007614Y004649D01*
X007561Y004693D01*
X007506Y004734D01*
X007448Y004772D01*
X007388Y004806D01*
X007327Y004837D01*
X007264Y004864D01*
X007199Y004888D01*
X007133Y004908D01*
X007067Y004924D01*
X006999Y004937D01*
X006931Y004945D01*
X006862Y004950D01*
X006793Y004951D01*
X006725Y004948D01*
X006656Y004941D01*
X006588Y004930D01*
X006521Y004915D01*
X006455Y004897D01*
X006389Y004875D01*
X006326Y004849D01*
X006263Y004820D01*
X006203Y004787D01*
X006145Y004750D01*
X006088Y004711D01*
X006034Y004668D01*
X005983Y004623D01*
X005934Y004574D01*
X005888Y004523D01*
X005845Y004469D01*
D16*
X010637Y003507D02*
X010727Y003597D01*
X010727Y003326D01*
X010637Y003326D02*
X010817Y003326D01*
X010931Y003326D02*
X010931Y003597D01*
X011066Y003507D02*
X010931Y003416D01*
X011066Y003326D01*
X011471Y003326D02*
X011471Y003597D01*
X011606Y003597D01*
X011652Y003552D01*
X011652Y003461D01*
X011606Y003416D01*
X011471Y003416D01*
X011766Y003461D02*
X011766Y003371D01*
X011811Y003326D01*
X011901Y003326D01*
X011946Y003371D01*
X011946Y003461D01*
X011901Y003507D01*
X011811Y003507D01*
X011766Y003461D01*
X012061Y003507D02*
X012061Y003371D01*
X012106Y003326D01*
X012151Y003371D01*
X012196Y003326D01*
X012241Y003371D01*
X012241Y003507D01*
X012355Y003461D02*
X012355Y003371D01*
X012400Y003326D01*
X012490Y003326D01*
X012535Y003416D02*
X012355Y003416D01*
X012355Y003461D02*
X012400Y003507D01*
X012490Y003507D01*
X012535Y003461D01*
X012535Y003416D01*
X012650Y003416D02*
X012740Y003507D01*
X012785Y003507D01*
X012650Y003507D02*
X012650Y003326D01*
X012477Y002440D02*
X012386Y002395D01*
X012296Y002305D01*
X012432Y002305D01*
X012477Y002259D01*
X012477Y002214D01*
X012432Y002169D01*
X012341Y002169D01*
X012296Y002214D01*
X012296Y002305D01*
X012182Y002305D02*
X012182Y002395D01*
X012137Y002440D01*
X012002Y002440D01*
X012002Y002169D01*
X012002Y002259D02*
X012137Y002259D01*
X012182Y002305D01*
X011597Y002350D02*
X011462Y002259D01*
X011597Y002169D01*
X011462Y002169D02*
X011462Y002440D01*
X011257Y002440D02*
X011257Y002169D01*
X011167Y002169D02*
X011347Y002169D01*
X011167Y002350D02*
X011257Y002440D01*
X011207Y004652D02*
X011207Y004923D01*
X011342Y004832D02*
X011207Y004742D01*
X011342Y004652D01*
X011092Y004652D02*
X010912Y004652D01*
X011002Y004652D02*
X011002Y004923D01*
X010912Y004832D01*
X011747Y004742D02*
X011882Y004742D01*
X011927Y004787D01*
X011927Y004877D01*
X011882Y004923D01*
X011747Y004923D01*
X011747Y004652D01*
X012041Y004652D02*
X012041Y004923D01*
X012177Y004923D01*
X012222Y004877D01*
X012222Y004787D01*
X012177Y004742D01*
X012041Y004742D01*
X012131Y004742D02*
X012222Y004652D01*
X012336Y004697D02*
X012336Y004877D01*
X012381Y004923D01*
X012471Y004923D01*
X012516Y004877D01*
X012516Y004697D01*
X012471Y004652D01*
X012381Y004652D01*
X012336Y004697D01*
X012336Y005801D02*
X012336Y006072D01*
X012472Y006072D01*
X012517Y006026D01*
X012517Y005936D01*
X012472Y005891D01*
X012336Y005891D01*
X012427Y005891D02*
X012517Y005801D01*
X012222Y005801D02*
X012042Y005801D01*
X012042Y006072D01*
X012222Y006072D01*
X012132Y005936D02*
X012042Y005936D01*
X011637Y005981D02*
X011502Y005891D01*
X011637Y005801D01*
X011502Y005801D02*
X011502Y006072D01*
X011297Y006072D02*
X011297Y005801D01*
X011207Y005801D02*
X011387Y005801D01*
X011207Y005981D02*
X011297Y006072D01*
X011269Y006954D02*
X011269Y007224D01*
X011179Y007134D01*
X011179Y006954D02*
X011359Y006954D01*
X011473Y006954D02*
X011473Y007224D01*
X011609Y007134D02*
X011473Y007044D01*
X011609Y006954D01*
X012014Y006954D02*
X012014Y007224D01*
X012014Y007089D02*
X012194Y007089D01*
X012308Y007089D02*
X012443Y007089D01*
X012488Y007044D01*
X012488Y006999D01*
X012443Y006954D01*
X012308Y006954D01*
X012308Y007224D01*
X012443Y007224D01*
X012488Y007179D01*
X012488Y007134D01*
X012443Y007089D01*
X012194Y007224D02*
X012194Y006954D01*
X021001Y018882D02*
X020911Y018972D01*
X021181Y018972D01*
X021181Y018882D02*
X021181Y019062D01*
X021181Y019177D02*
X020911Y019177D01*
X021001Y019312D02*
X021091Y019177D01*
X021181Y019312D01*
X021181Y019717D02*
X020911Y019717D01*
X020911Y019852D01*
X020956Y019897D01*
X021046Y019897D01*
X021091Y019852D01*
X021091Y019717D01*
X021136Y020012D02*
X020956Y020192D01*
X021136Y020192D01*
X021181Y020147D01*
X021181Y020057D01*
X021136Y020012D01*
X020956Y020012D01*
X020911Y020057D01*
X020911Y020147D01*
X020956Y020192D01*
X020038Y020197D02*
X019993Y020152D01*
X019813Y020332D01*
X019993Y020332D01*
X020038Y020287D01*
X020038Y020197D01*
X019993Y020152D02*
X019813Y020152D01*
X019768Y020197D01*
X019768Y020287D01*
X019813Y020332D01*
X019768Y020447D02*
X020038Y020447D01*
X019948Y020447D02*
X019858Y020582D01*
X019948Y020447D02*
X020038Y020582D01*
X020038Y020037D02*
X020038Y019857D01*
X020038Y019947D02*
X019768Y019947D01*
X019858Y019857D01*
X018795Y019809D02*
X018524Y019809D01*
X018524Y019944D01*
X018569Y019989D01*
X018659Y019989D01*
X018705Y019944D01*
X018705Y019809D01*
X018795Y020104D02*
X018795Y020284D01*
X018795Y020194D02*
X018524Y020194D01*
X018614Y020104D01*
X018569Y020398D02*
X018524Y020443D01*
X018524Y020534D01*
X018569Y020579D01*
X018614Y020579D01*
X018659Y020534D01*
X018705Y020579D01*
X018750Y020579D01*
X018795Y020534D01*
X018795Y020443D01*
X018750Y020398D01*
X018659Y020489D02*
X018659Y020534D01*
X018614Y019404D02*
X018705Y019269D01*
X018795Y019404D01*
X018795Y019269D02*
X018524Y019269D01*
X018524Y019064D02*
X018795Y019064D01*
X018795Y018974D02*
X018795Y019154D01*
X018614Y018974D02*
X018524Y019064D01*
D17*
X003437Y019094D02*
X003235Y019341D01*
X003287Y019441D01*
X002946Y019582D01*
X002917Y019529D01*
X002879Y019482D01*
X002832Y019444D01*
X002779Y019416D01*
X002721Y019398D01*
X002661Y019392D01*
X002599Y019399D01*
X002538Y019418D01*
X002483Y019449D01*
X002436Y019491D01*
X002398Y019541D01*
X002371Y019598D01*
X002356Y019660D01*
X002355Y019723D01*
X002366Y019785D01*
X002389Y019843D01*
X002425Y019896D01*
X002470Y019940D01*
X002523Y019974D01*
X002582Y019997D01*
X002644Y020007D01*
X002707Y020004D01*
X002768Y019988D01*
X002825Y019960D01*
X002875Y019921D01*
X002916Y019873D01*
X002946Y019817D01*
X003287Y019959D01*
X003235Y020058D01*
X003437Y020306D01*
X003267Y020475D01*
X003020Y020274D01*
X002920Y020325D01*
X002814Y020359D01*
X002781Y020677D01*
X002541Y020677D01*
X002509Y020359D01*
X002402Y020325D01*
X002303Y020274D01*
X002055Y020475D01*
X001886Y020306D01*
X002088Y020058D01*
X002036Y019959D01*
X002002Y019852D01*
X001684Y019820D01*
X001684Y019580D01*
X002002Y019548D01*
X002036Y019441D01*
X002088Y019341D01*
X001886Y019094D01*
X002055Y018924D01*
X002303Y019126D01*
X002402Y019075D01*
X002509Y019040D01*
X002541Y018723D01*
X002781Y018723D01*
X002814Y019040D01*
X002920Y019075D01*
X003020Y019126D01*
X003267Y018924D01*
X003437Y019094D01*
X003414Y019071D02*
X003087Y019071D01*
X003158Y019014D02*
X003357Y019014D01*
X003299Y018956D02*
X003228Y018956D01*
X003409Y019129D02*
X001914Y019129D01*
X001908Y019071D02*
X002236Y019071D01*
X002165Y019014D02*
X001966Y019014D01*
X002024Y018956D02*
X002094Y018956D01*
X001961Y019186D02*
X003362Y019186D01*
X003315Y019244D02*
X002008Y019244D01*
X002055Y019302D02*
X003268Y019302D01*
X003245Y019359D02*
X002078Y019359D01*
X002049Y019417D02*
X002542Y019417D01*
X002454Y019474D02*
X002026Y019474D01*
X002007Y019532D02*
X002405Y019532D01*
X002375Y019590D02*
X001684Y019590D01*
X001684Y019647D02*
X002359Y019647D01*
X002355Y019705D02*
X001684Y019705D01*
X001684Y019762D02*
X002362Y019762D01*
X002380Y019820D02*
X001687Y019820D01*
X002010Y019878D02*
X002412Y019878D01*
X002464Y019935D02*
X002029Y019935D01*
X002054Y019993D02*
X002571Y019993D01*
X002751Y019993D02*
X003269Y019993D01*
X003239Y020050D02*
X002083Y020050D01*
X002047Y020108D02*
X003276Y020108D01*
X003323Y020166D02*
X002000Y020166D01*
X001953Y020223D02*
X003370Y020223D01*
X003417Y020281D02*
X003029Y020281D01*
X003006Y020281D02*
X002317Y020281D01*
X002294Y020281D02*
X001906Y020281D01*
X001918Y020338D02*
X002223Y020338D01*
X002153Y020396D02*
X001976Y020396D01*
X002034Y020454D02*
X002082Y020454D01*
X002444Y020338D02*
X002878Y020338D01*
X002810Y020396D02*
X002513Y020396D01*
X002519Y020454D02*
X002804Y020454D01*
X002798Y020511D02*
X002525Y020511D01*
X002531Y020569D02*
X002792Y020569D01*
X002786Y020626D02*
X002536Y020626D01*
X003099Y020338D02*
X003404Y020338D01*
X003347Y020396D02*
X003170Y020396D01*
X003241Y020454D02*
X003289Y020454D01*
X003230Y019935D02*
X002857Y019935D01*
X002912Y019878D02*
X003091Y019878D01*
X002952Y019820D02*
X002944Y019820D01*
X002919Y019532D02*
X003066Y019532D01*
X003206Y019474D02*
X002869Y019474D01*
X002781Y019417D02*
X003274Y019417D01*
X002910Y019071D02*
X002413Y019071D01*
X002512Y019014D02*
X002811Y019014D01*
X002805Y018956D02*
X002518Y018956D01*
X002524Y018898D02*
X002799Y018898D01*
X002793Y018841D02*
X002529Y018841D01*
X002535Y018783D02*
X002787Y018783D01*
X002782Y018726D02*
X002541Y018726D01*
M02*
